<svg xmlns="http://www.w3.org/2000/svg" viewBox="0 0 1744.000 1744.000" width="1744.000" height="1744.000" role="img">
<title>Dendrogram</title>
<style>
.edge { fill: none; stroke-width: 2.000; stroke-linecap: round; }
.node { }
.label { font-family: Helvetica, Arial, sans-serif; }
</style>
<path class="edge" stroke="#0072b2" d="M 792.000,952.000 L 789.850,958.616 L 787.701,965.232 L 785.551,971.848 L 783.401,978.464 L 781.252,985.080 L 779.102,991.696 L 776.952,998.312 L 774.803,1004.928 L 772.653,1011.544 L 770.503,1018.160 L 768.353,1024.776 L 766.204,1031.393 L 764.054,1038.009 L 761.904,1044.625 L 759.755,1051.241 L 757.605,1057.857 L 755.455,1064.473 L 753.306,1071.089 L 751.156,1077.705 L 749.006,1084.321 L 746.857,1090.937 L 744.707,1097.553 L 742.557,1104.169 L 746.217,1105.310 L 749.904,1106.363 L 753.614,1107.327 L 757.347,1108.202 L 761.099,1108.988 L 764.869,1109.683 L 768.655,1110.288 L 772.454,1110.802 L 776.264,1111.224 L 780.084,1111.556 L 783.910,1111.795 L 787.741,1111.943 L 791.574,1111.999 L 795.408,1111.964 L 799.239,1111.836 L 803.067,1111.617 L 806.888,1111.306 L 810.700,1110.903 L 814.502,1110.410 L 818.291,1109.825 L 822.065,1109.150 L 825.821,1108.385 L 829.558,1107.529 L 833.274,1106.585 L 836.966,1105.552 L 840.632,1104.430 L 844.270,1103.221 L 847.878,1101.925 L 851.454,1100.544 L 854.996,1099.077 L 858.502,1097.525 L 861.969,1095.890 L 865.397,1094.172 L 868.782,1092.373 L 872.123,1090.493 L 875.418,1088.534 L 878.665,1086.496 L 881.863,1084.381 L 885.009,1082.190 L 888.101,1079.924 L 891.139,1077.585 L 894.119,1075.173 L 897.041,1072.691 L 899.902,1070.140 L 902.702,1067.521 L 905.438,1064.835 L 908.109,1062.085 L 910.713,1059.272 L 913.249,1056.397 L 915.715,1053.462 L 918.111,1050.469 L 920.434,1047.419 L 922.683,1044.314 L 924.857,1041.157 L 926.955,1037.948 L 928.976,1034.690 L 930.918,1031.384 L 932.780,1028.033 L 934.561,1024.638" />
<path class="edge" stroke="#0072b2" d="M 934.561,1024.638 L 940.759,1027.797 L 946.958,1030.955 L 953.156,1034.113 L 959.354,1037.271 L 965.553,1040.429 L 971.751,1043.588 L 977.949,1046.746 L 984.147,1049.904 L 990.346,1053.062 L 996.544,1056.220 L 1002.742,1059.379 L 1008.941,1062.537 L 1015.139,1065.695 L 1021.337,1068.853 L 1027.536,1072.011 L 1033.734,1075.170 L 1039.932,1078.328 L 1046.131,1081.486 L 1052.329,1084.644 L 1058.527,1087.802 L 1064.725,1090.961 L 1070.924,1094.119 L 1077.122,1097.277 L 1079.406,1092.704 L 1081.617,1088.095 L 1083.754,1083.452 L 1085.817,1078.774 L 1087.804,1074.065 L 1089.716,1069.324 L 1091.552,1064.554 L 1093.312,1059.755 L 1094.995,1054.928 L 1096.600,1050.075 L 1098.128,1045.197 L 1099.578,1040.295 L 1100.949,1035.371 L 1102.241,1030.425 L 1103.454,1025.459 L 1104.588,1020.475 L 1105.642,1015.473 L 1106.616,1010.455 L 1107.509,1005.422 L 1108.322,1000.375 L 1109.055,995.316 L 1109.706,990.246 L 1110.277,985.167 L 1110.766,980.078 L 1111.174,974.983 L 1111.500,969.882 L 1111.745,964.776 L 1111.908,959.667 L 1111.990,954.556 L 1111.990,949.444 L 1111.908,944.333 L 1111.745,939.224 L 1111.500,934.118 L 1111.174,929.017 L 1110.766,923.922 L 1110.277,918.833 L 1109.706,913.754 L 1109.055,908.684 L 1108.322,903.625 L 1107.509,898.578 L 1106.616,893.545 L 1105.642,888.527 L 1104.588,883.525 L 1103.454,878.541 L 1102.241,873.575 L 1100.949,868.629 L 1099.578,863.705 L 1098.128,858.803 L 1096.600,853.925 L 1094.995,849.072 L 1093.312,844.245 L 1091.552,839.446 L 1089.716,834.676 L 1087.804,829.935 L 1085.817,825.226 L 1083.754,820.548 L 1081.617,815.905 L 1079.406,811.296 L 1077.122,806.723" />
<path class="edge" stroke="#0072b2" d="M 1077.122,806.723 L 1083.320,803.565 L 1089.519,800.407 L 1095.717,797.248 L 1101.915,794.090 L 1108.114,790.932 L 1114.312,787.774 L 1120.510,784.616 L 1126.709,781.457 L 1132.907,778.299 L 1139.105,775.141 L 1145.303,771.983 L 1151.502,768.825 L 1157.700,765.667 L 1163.898,762.508 L 1170.097,759.350 L 1176.295,756.192 L 1182.493,753.034 L 1188.692,749.876 L 1194.890,746.717 L 1201.088,743.559 L 1207.287,740.401 L 1213.485,737.243 L 1219.683,734.085 L 1217.338,729.542 L 1214.945,725.025 L 1212.504,720.534 L 1210.015,716.069 L 1207.479,711.631 L 1204.896,707.220 L 1202.266,702.837 L 1199.589,698.482 L 1196.866,694.156 L 1194.097,689.859 L 1191.283,685.592 L 1188.423,681.355 L 1185.518,677.149 L 1182.569,672.974 L 1179.576,668.830 L 1176.538,664.719 L 1173.457,660.640 L 1170.333,656.594 L 1167.165,652.582 L 1163.955,648.604 L 1160.703,644.660 L 1157.410,640.751 L 1154.074,636.877 L 1150.698,633.039 L 1147.281,629.238 L 1143.824,625.472 L 1140.326,621.744 L 1136.790,618.054 L 1133.214,614.401 L 1129.599,610.786 L 1125.946,607.210 L 1122.256,603.674 L 1118.528,600.176 L 1114.762,596.719 L 1110.961,593.302 L 1107.123,589.926 L 1103.249,586.590 L 1099.340,583.297 L 1095.396,580.045 L 1091.418,576.835 L 1087.406,573.667 L 1083.360,570.543 L 1079.281,567.462 L 1075.170,564.424 L 1071.026,561.431 L 1066.851,558.482 L 1062.645,555.577 L 1058.408,552.717 L 1054.141,549.903 L 1049.844,547.134 L 1045.518,544.411 L 1041.163,541.734 L 1036.780,539.104 L 1032.369,536.521 L 1027.931,533.985 L 1023.466,531.496 L 1018.975,529.055 L 1014.458,526.662 L 1009.915,524.317" />
<path class="edge" stroke="#0072b2" d="M 1009.915,524.317 L 1013.074,518.119 L 1016.232,511.920 L 1019.390,505.722 L 1022.548,499.524 L 1025.706,493.325 L 1028.865,487.127 L 1032.023,480.929 L 1035.181,474.730 L 1038.339,468.532 L 1041.497,462.334 L 1044.656,456.135 L 1047.814,449.937 L 1050.972,443.739 L 1054.130,437.541 L 1057.288,431.342 L 1060.447,425.144 L 1063.605,418.946 L 1066.763,412.747 L 1069.921,406.549 L 1073.079,400.351 L 1076.238,394.152 L 1079.396,387.954 L 1082.554,381.756 L 1079.513,380.217 L 1076.465,378.694 L 1073.408,377.187 L 1070.343,375.697 L 1067.271,374.223 L 1064.190,372.766 L 1061.102,371.325 L 1058.007,369.900 L 1054.903,368.492 L 1051.792,367.100 L 1048.674,365.725 L 1045.549,364.367 L 1042.416,363.025 L 1039.277,361.700 L 1036.130,360.392 L 1032.976,359.100 L 1029.816,357.825 L 1026.649,356.567 L 1023.475,355.326 L 1020.295,354.102 L 1017.108,352.895 L 1013.915,351.705 L 1010.715,350.532 L 1007.509,349.376 L 1004.297,348.237 L 1001.080,347.115 L 997.856,346.010 L 994.626,344.923 L 991.391,343.853 L 988.150,342.799 L 984.903,341.764 L 981.651,340.745 L 978.394,339.744 L 975.131,338.760 L 971.863,337.794 L 968.590,336.845 L 965.312,335.913 L 962.029,334.999 L 958.741,334.102 L 955.449,333.223 L 952.152,332.362 L 948.850,331.518 L 945.544,330.691 L 942.233,329.883 L 938.919,329.092 L 935.600,328.318 L 932.277,327.562 L 928.950,326.824 L 925.619,326.104 L 922.284,325.401 L 918.946,324.716 L 915.604,324.049 L 912.259,323.400 L 908.910,322.769 L 905.558,322.155 L 902.202,321.559 L 898.844,320.981 L 895.482,320.422 L 892.118,319.879" />
<path class="edge" stroke="#0072b2" d="M 892.118,319.879 L 892.662,316.444 L 893.206,313.009 L 893.750,309.573 L 894.295,306.138 L 894.839,302.702 L 895.383,299.267 L 895.927,295.831 L 896.471,292.396 L 897.015,288.961 L 897.559,285.525 L 898.103,282.090 L 898.647,278.654 L 899.192,275.219 L 899.736,271.783 L 900.280,268.348 L 900.824,264.912 L 901.368,261.477 L 901.912,258.042 L 902.456,254.606 L 903.000,251.171 L 903.545,247.735 L 904.089,244.300 L 904.633,240.864 L 902.739,240.567 L 900.845,240.275 L 898.949,239.987 L 897.053,239.705 L 895.157,239.428 L 893.259,239.156 L 891.361,238.889 L 889.462,238.627 L 887.562,238.370 L 885.662,238.118 L 883.761,237.871 L 881.860,237.629 L 879.957,237.393 L 878.054,237.161 L 876.151,236.935 L 874.247,236.713 L 872.342,236.497 L 870.437,236.285 L 868.531,236.079 L 866.625,235.878 L 864.718,235.682 L 862.811,235.491 L 860.903,235.305 L 858.995,235.124 L 857.086,234.948 L 855.176,234.777 L 853.267,234.611 L 851.357,234.451 L 849.446,234.295 L 847.535,234.145 L 845.624,234.000 L 843.712,233.859 L 841.800,233.724 L 839.887,233.594 L 837.974,233.469 L 836.061,233.349 L 834.148,233.235 L 832.234,233.125 L 830.320,233.020 L 828.406,232.921 L 826.491,232.827 L 824.576,232.737 L 822.661,232.653 L 820.746,232.574 L 818.830,232.500 L 816.915,232.431 L 814.999,232.367 L 813.083,232.309 L 811.167,232.255 L 809.250,232.207 L 807.334,232.163 L 805.418,232.125 L 803.501,232.092 L 801.584,232.064 L 799.667,232.041 L 797.751,232.023 L 795.834,232.010 L 793.917,232.003 L 792.000,232.000 L 792.000,228.522 L 792.000,225.043 L 792.000,221.565 L 792.000,218.087 L 792.000,214.609 L 792.000,211.130 L 792.000,207.652 L 792.000,204.174 L 792.000,200.696 L 792.000,197.217 L 792.000,193.739 L 792.000,190.261 L 792.000,186.783 L 792.000,183.304 L 792.000,179.826 L 792.000,176.348 L 792.000,172.870 L 792.000,169.391 L 792.000,165.913 L 792.000,162.435 L 792.000,158.957 L 792.000,155.478 L 792.000,152.000" />
<path class="edge" stroke="#0072b2" d="M 892.118,319.879 L 892.662,316.444 L 893.206,313.009 L 893.750,309.573 L 894.295,306.138 L 894.839,302.702 L 895.383,299.267 L 895.927,295.831 L 896.471,292.396 L 897.015,288.961 L 897.559,285.525 L 898.103,282.090 L 898.647,278.654 L 899.192,275.219 L 899.736,271.783 L 900.280,268.348 L 900.824,264.912 L 901.368,261.477 L 901.912,258.042 L 902.456,254.606 L 903.000,251.171 L 903.545,247.735 L 904.089,244.300 L 904.633,240.864 L 906.526,241.167 L 908.418,241.474 L 910.309,241.787 L 912.199,242.104 L 914.089,242.427 L 915.978,242.754 L 917.866,243.087 L 919.753,243.424 L 921.639,243.767 L 923.524,244.115 L 925.408,244.467 L 927.291,244.825 L 929.173,245.188 L 931.055,245.556 L 932.935,245.928 L 934.814,246.306 L 936.693,246.689 L 938.570,247.076 L 940.446,247.469 L 942.321,247.867 L 944.195,248.270 L 946.069,248.677 L 947.940,249.090 L 949.811,249.508 L 951.681,249.930 L 953.550,250.358 L 955.417,250.790 L 957.283,251.228 L 959.149,251.671 L 961.012,252.118 L 962.875,252.570 L 964.737,253.028 L 966.597,253.490 L 968.456,253.958 L 970.314,254.430 L 972.170,254.907 L 974.026,255.389 L 975.880,255.876 L 977.732,256.368 L 979.584,256.865 L 981.434,257.367 L 983.283,257.874 L 985.130,258.386 L 986.976,258.902 L 988.820,259.424 L 990.664,259.950 L 992.505,260.482 L 994.346,261.018 L 996.185,261.559 L 998.022,262.105 L 999.858,262.656 L 1001.693,263.212 L 1003.526,263.773 L 1005.357,264.338 L 1007.187,264.909 L 1009.016,265.484 L 1010.843,266.064 L 1012.668,266.649 L 1014.492,267.239 L 1015.567,263.931 L 1016.642,260.623 L 1017.717,257.315 L 1018.792,254.007 L 1019.866,250.699 L 1020.941,247.391 L 1022.016,244.083 L 1023.091,240.775 L 1024.166,237.467 L 1025.241,234.159 L 1026.315,230.851 L 1027.390,227.543 L 1028.465,224.235 L 1029.540,220.927 L 1030.615,217.619 L 1031.690,214.311 L 1032.765,211.003 L 1033.839,207.695 L 1034.914,204.387 L 1035.989,201.079 L 1037.064,197.771 L 1038.139,194.463 L 1039.214,191.155" />
<path class="edge" stroke="#0072b2" d="M 1009.915,524.317 L 1013.074,518.119 L 1016.232,511.920 L 1019.390,505.722 L 1022.548,499.524 L 1025.706,493.325 L 1028.865,487.127 L 1032.023,480.929 L 1035.181,474.730 L 1038.339,468.532 L 1041.497,462.334 L 1044.656,456.135 L 1047.814,449.937 L 1050.972,443.739 L 1054.130,437.541 L 1057.288,431.342 L 1060.447,425.144 L 1063.605,418.946 L 1066.763,412.747 L 1069.921,406.549 L 1073.079,400.351 L 1076.238,394.152 L 1079.396,387.954 L 1082.554,381.756 L 1085.586,383.311 L 1088.610,384.882 L 1091.626,386.470 L 1094.633,388.073 L 1097.631,389.693 L 1100.621,391.328 L 1103.602,392.979 L 1106.574,394.646 L 1109.537,396.329 L 1112.492,398.028 L 1115.437,399.742 L 1118.373,401.472 L 1121.300,403.218 L 1124.217,404.979 L 1127.125,406.756 L 1130.024,408.548 L 1132.913,410.356 L 1135.792,412.179 L 1138.661,414.017 L 1141.521,415.870 L 1144.371,417.739 L 1147.211,419.623 L 1150.040,421.522 L 1152.860,423.436 L 1155.669,425.365 L 1158.468,427.309 L 1161.257,429.267 L 1164.035,431.241 L 1166.803,433.229 L 1169.560,435.232 L 1172.306,437.250 L 1175.042,439.283 L 1177.766,441.329 L 1180.480,443.391 L 1183.183,445.466 L 1185.874,447.557 L 1188.555,449.661 L 1191.224,451.780 L 1193.882,453.912 L 1196.528,456.059 L 1199.163,458.220 L 1201.787,460.396 L 1204.398,462.584 L 1206.999,464.787 L 1209.587,467.004 L 1212.163,469.234 L 1214.728,471.478 L 1217.281,473.736 L 1219.821,476.007 L 1222.350,478.292 L 1224.866,480.590 L 1227.370,482.902 L 1229.862,485.227 L 1232.341,487.565 L 1234.808,489.916 L 1237.262,492.281 L 1239.703,494.658 L 1242.132,497.048 L 1244.548,499.452" />
<path class="edge" stroke="#0072b2" d="M 1244.548,499.452 L 1247.008,496.992 L 1249.467,494.533 L 1251.927,492.073 L 1254.386,489.614 L 1256.846,487.154 L 1259.305,484.695 L 1261.765,482.235 L 1264.224,479.776 L 1266.684,477.316 L 1269.143,474.857 L 1271.603,472.397 L 1274.062,469.938 L 1276.522,467.478 L 1278.981,465.019 L 1281.441,462.559 L 1283.900,460.100 L 1286.360,457.640 L 1288.819,455.181 L 1291.279,452.721 L 1293.738,450.262 L 1296.198,447.802 L 1298.657,445.343 L 1301.117,442.883 L 1299.760,441.529 L 1298.399,440.179 L 1297.034,438.833 L 1295.666,437.490 L 1294.295,436.151 L 1292.920,434.816 L 1291.541,433.484 L 1290.159,432.156 L 1288.773,430.831 L 1287.384,429.511 L 1285.991,428.194 L 1284.594,426.880 L 1283.195,425.571 L 1281.791,424.265 L 1280.385,422.963 L 1278.974,421.664 L 1277.561,420.370 L 1276.144,419.079 L 1274.723,417.792 L 1273.299,416.508 L 1271.872,415.229 L 1270.441,413.953 L 1269.007,412.681 L 1267.569,411.413 L 1266.128,410.149 L 1264.684,408.889 L 1263.236,407.632 L 1261.785,406.379 L 1260.331,405.131 L 1258.873,403.886 L 1257.412,402.645 L 1255.948,401.408 L 1254.481,400.174 L 1253.010,398.945 L 1251.536,397.720 L 1250.058,396.498 L 1248.578,395.280 L 1247.094,394.067 L 1245.607,392.857 L 1244.117,391.652 L 1242.623,390.450 L 1241.127,389.252 L 1239.627,388.058 L 1238.124,386.869 L 1236.618,385.683 L 1235.108,384.501 L 1233.596,383.323 L 1232.080,382.150 L 1230.562,380.980 L 1229.040,379.815 L 1227.515,378.653 L 1225.987,377.496 L 1224.456,376.342 L 1222.922,375.193 L 1221.384,374.048 L 1219.844,372.906 L 1218.301,371.769 L 1216.755,370.637 L 1215.205,369.508 L 1217.250,366.694 L 1219.294,363.880 L 1221.339,361.066 L 1223.383,358.252 L 1225.428,355.438 L 1227.472,352.624 L 1229.517,349.810 L 1231.561,346.996 L 1233.606,344.182 L 1235.650,341.368 L 1237.695,338.554 L 1239.739,335.740 L 1241.783,332.926 L 1243.828,330.112 L 1245.872,327.298 L 1247.917,324.484 L 1249.961,321.670 L 1252.006,318.856 L 1254.050,316.042 L 1256.095,313.228 L 1258.139,310.414 L 1260.184,307.600 L 1262.228,304.786" />
<path class="edge" stroke="#0072b2" d="M 1244.548,499.452 L 1247.008,496.992 L 1249.467,494.533 L 1251.927,492.073 L 1254.386,489.614 L 1256.846,487.154 L 1259.305,484.695 L 1261.765,482.235 L 1264.224,479.776 L 1266.684,477.316 L 1269.143,474.857 L 1271.603,472.397 L 1274.062,469.938 L 1276.522,467.478 L 1278.981,465.019 L 1281.441,462.559 L 1283.900,460.100 L 1286.360,457.640 L 1288.819,455.181 L 1291.279,452.721 L 1293.738,450.262 L 1296.198,447.802 L 1298.657,445.343 L 1301.117,442.883 L 1302.471,444.240 L 1303.821,445.601 L 1305.167,446.966 L 1306.510,448.334 L 1307.849,449.705 L 1309.184,451.080 L 1310.516,452.459 L 1311.844,453.841 L 1313.169,455.227 L 1314.489,456.616 L 1315.806,458.009 L 1317.120,459.406 L 1318.429,460.805 L 1319.735,462.209 L 1321.037,463.615 L 1322.336,465.026 L 1323.630,466.439 L 1324.921,467.856 L 1326.208,469.277 L 1327.492,470.701 L 1328.771,472.128 L 1330.047,473.559 L 1331.319,474.993 L 1332.587,476.431 L 1333.851,477.872 L 1335.111,479.316 L 1336.368,480.764 L 1337.621,482.215 L 1338.869,483.669 L 1340.114,485.127 L 1341.355,486.588 L 1342.592,488.052 L 1343.826,489.519 L 1345.055,490.990 L 1346.280,492.464 L 1347.502,493.942 L 1348.720,495.422 L 1349.933,496.906 L 1351.143,498.393 L 1352.348,499.883 L 1353.550,501.377 L 1354.748,502.873 L 1355.942,504.373 L 1357.131,505.876 L 1358.317,507.382 L 1359.499,508.892 L 1360.677,510.404 L 1361.850,511.920 L 1363.020,513.438 L 1364.185,514.960 L 1365.347,516.485 L 1366.504,518.013 L 1367.658,519.544 L 1368.807,521.078 L 1369.952,522.616 L 1371.094,524.156 L 1372.231,525.699 L 1373.363,527.245 L 1374.492,528.795 L 1377.306,526.750 L 1380.120,524.706 L 1382.934,522.661 L 1385.748,520.617 L 1388.562,518.572 L 1391.376,516.528 L 1394.190,514.483 L 1397.004,512.439 L 1399.818,510.394 L 1402.632,508.350 L 1405.446,506.305 L 1408.260,504.261 L 1411.074,502.217 L 1413.888,500.172 L 1416.702,498.128 L 1419.516,496.083 L 1422.330,494.039 L 1425.144,491.994 L 1427.958,489.950 L 1430.772,487.905 L 1433.586,485.861 L 1436.400,483.816 L 1439.214,481.772" />
<path class="edge" stroke="#0072b2" d="M 1077.122,806.723 L 1083.320,803.565 L 1089.519,800.407 L 1095.717,797.248 L 1101.915,794.090 L 1108.114,790.932 L 1114.312,787.774 L 1120.510,784.616 L 1126.709,781.457 L 1132.907,778.299 L 1139.105,775.141 L 1145.303,771.983 L 1151.502,768.825 L 1157.700,765.667 L 1163.898,762.508 L 1170.097,759.350 L 1176.295,756.192 L 1182.493,753.034 L 1188.692,749.876 L 1194.890,746.717 L 1201.088,743.559 L 1207.287,740.401 L 1213.485,737.243 L 1219.683,734.085 L 1221.980,738.651 L 1224.227,743.242 L 1226.426,747.857 L 1228.575,752.495 L 1230.675,757.156 L 1232.725,761.838 L 1234.725,766.542 L 1236.675,771.268 L 1238.574,776.013 L 1240.423,780.779 L 1242.221,785.564 L 1243.968,790.368 L 1245.664,795.190 L 1247.308,800.030 L 1248.900,804.888 L 1250.441,809.762 L 1251.930,814.652 L 1253.366,819.558 L 1254.751,824.478 L 1256.082,829.413 L 1257.362,834.363 L 1258.588,839.325 L 1259.761,844.300 L 1260.882,849.288 L 1261.949,854.287 L 1262.963,859.297 L 1263.923,864.318 L 1264.830,869.348 L 1265.684,874.388 L 1266.484,879.437 L 1267.229,884.494 L 1267.921,889.559 L 1268.559,894.630 L 1269.143,899.709 L 1269.673,904.793 L 1270.149,909.882 L 1270.570,914.977 L 1270.937,920.075 L 1271.250,925.177 L 1271.508,930.283 L 1271.713,935.390 L 1271.862,940.500 L 1271.957,945.611 L 1271.998,950.722 L 1271.985,955.834 L 1271.917,960.945 L 1271.794,966.055 L 1271.617,971.164 L 1271.386,976.270 L 1271.100,981.374 L 1270.760,986.475 L 1270.366,991.571 L 1269.918,996.663 L 1269.415,1001.750 L 1268.858,1006.831 L 1268.247,1011.906 L 1267.582,1016.975 L 1266.863,1022.036 L 1266.090,1027.089" />
<path class="edge" stroke="#0072b2" d="M 1266.090,1027.089 L 1272.961,1028.177 L 1279.832,1029.265 L 1286.703,1030.353 L 1293.574,1031.442 L 1300.445,1032.530 L 1307.316,1033.618 L 1314.187,1034.706 L 1321.057,1035.794 L 1327.928,1036.883 L 1334.799,1037.971 L 1341.670,1039.059 L 1348.541,1040.147 L 1355.412,1041.236 L 1362.283,1042.324 L 1369.154,1043.412 L 1376.024,1044.500 L 1382.895,1045.589 L 1389.766,1046.677 L 1396.637,1047.765 L 1403.508,1048.853 L 1410.379,1049.942 L 1417.250,1051.030 L 1424.121,1052.118 L 1424.645,1048.751 L 1425.151,1045.381 L 1425.639,1042.008 L 1426.109,1038.633 L 1426.562,1035.255 L 1426.996,1031.875 L 1427.412,1028.493 L 1427.811,1025.108 L 1428.191,1021.722 L 1428.553,1018.333 L 1428.897,1014.943 L 1429.223,1011.551 L 1429.531,1008.157 L 1429.821,1004.761 L 1430.093,1001.364 L 1430.347,997.966 L 1430.583,994.566 L 1430.800,991.166 L 1431.000,987.764 L 1431.181,984.361 L 1431.345,980.957 L 1431.490,977.552 L 1431.617,974.146 L 1431.726,970.740 L 1431.816,967.334 L 1431.889,963.927 L 1431.943,960.519 L 1431.980,957.112 L 1431.998,953.704 L 1431.998,950.296 L 1431.980,946.888 L 1431.943,943.481 L 1431.889,940.073 L 1431.816,936.666 L 1431.726,933.260 L 1431.617,929.854 L 1431.490,926.448 L 1431.345,923.043 L 1431.181,919.639 L 1431.000,916.236 L 1430.800,912.834 L 1430.583,909.434 L 1430.347,906.034 L 1430.093,902.636 L 1429.821,899.239 L 1429.531,895.843 L 1429.223,892.449 L 1428.897,889.057 L 1428.553,885.667 L 1428.191,882.278 L 1427.811,878.892 L 1427.412,875.507 L 1426.996,872.125 L 1426.562,868.745 L 1426.109,865.367 L 1425.639,861.992 L 1425.151,858.619 L 1424.645,855.249 L 1424.121,851.882" />
<path class="edge" stroke="#0072b2" d="M 1424.121,851.882 L 1427.556,851.338 L 1430.991,850.794 L 1434.427,850.250 L 1437.862,849.705 L 1441.298,849.161 L 1444.733,848.617 L 1448.169,848.073 L 1451.604,847.529 L 1455.039,846.985 L 1458.475,846.441 L 1461.910,845.897 L 1465.346,845.353 L 1468.781,844.808 L 1472.217,844.264 L 1475.652,843.720 L 1479.088,843.176 L 1482.523,842.632 L 1485.958,842.088 L 1489.394,841.544 L 1492.829,841.000 L 1496.265,840.455 L 1499.700,839.911 L 1503.136,839.367 L 1502.833,837.474 L 1502.526,835.582 L 1502.213,833.691 L 1501.896,831.801 L 1501.573,829.911 L 1501.246,828.022 L 1500.913,826.134 L 1500.576,824.247 L 1500.233,822.361 L 1499.885,820.476 L 1499.533,818.592 L 1499.175,816.709 L 1498.812,814.827 L 1498.444,812.945 L 1498.072,811.065 L 1497.694,809.186 L 1497.311,807.307 L 1496.924,805.430 L 1496.531,803.554 L 1496.133,801.679 L 1495.730,799.805 L 1495.323,797.931 L 1494.910,796.060 L 1494.492,794.189 L 1494.070,792.319 L 1493.642,790.450 L 1493.210,788.583 L 1492.772,786.717 L 1492.329,784.851 L 1491.882,782.988 L 1491.430,781.125 L 1490.972,779.263 L 1490.510,777.403 L 1490.042,775.544 L 1489.570,773.686 L 1489.093,771.830 L 1488.611,769.974 L 1488.124,768.120 L 1487.632,766.268 L 1487.135,764.416 L 1486.633,762.566 L 1486.126,760.717 L 1485.614,758.870 L 1485.098,757.024 L 1484.576,755.180 L 1484.050,753.336 L 1483.518,751.495 L 1482.982,749.654 L 1482.441,747.815 L 1481.895,745.978 L 1481.344,744.142 L 1480.788,742.307 L 1480.227,740.474 L 1479.662,738.643 L 1479.091,736.813 L 1478.516,734.984 L 1477.936,733.157 L 1477.351,731.332 L 1476.761,729.508 L 1480.069,728.433 L 1483.377,727.358 L 1486.685,726.283 L 1489.993,725.208 L 1493.301,724.134 L 1496.609,723.059 L 1499.917,721.984 L 1503.225,720.909 L 1506.533,719.834 L 1509.841,718.759 L 1513.149,717.685 L 1516.457,716.610 L 1519.765,715.535 L 1523.073,714.460 L 1526.381,713.385 L 1529.689,712.310 L 1532.997,711.235 L 1536.305,710.161 L 1539.613,709.086 L 1542.921,708.011 L 1546.229,706.936 L 1549.537,705.861 L 1552.845,704.786" />
<path class="edge" stroke="#0072b2" d="M 1424.121,851.882 L 1427.556,851.338 L 1430.991,850.794 L 1434.427,850.250 L 1437.862,849.705 L 1441.298,849.161 L 1444.733,848.617 L 1448.169,848.073 L 1451.604,847.529 L 1455.039,846.985 L 1458.475,846.441 L 1461.910,845.897 L 1465.346,845.353 L 1468.781,844.808 L 1472.217,844.264 L 1475.652,843.720 L 1479.088,843.176 L 1482.523,842.632 L 1485.958,842.088 L 1489.394,841.544 L 1492.829,841.000 L 1496.265,840.455 L 1499.700,839.911 L 1503.136,839.367 L 1503.433,841.261 L 1503.725,843.155 L 1504.013,845.051 L 1504.295,846.947 L 1504.572,848.843 L 1504.844,850.741 L 1505.111,852.639 L 1505.373,854.538 L 1505.630,856.438 L 1505.882,858.338 L 1506.129,860.239 L 1506.371,862.140 L 1506.607,864.043 L 1506.839,865.946 L 1507.065,867.849 L 1507.287,869.753 L 1507.503,871.658 L 1507.715,873.563 L 1507.921,875.469 L 1508.122,877.375 L 1508.318,879.282 L 1508.509,881.189 L 1508.695,883.097 L 1508.876,885.005 L 1509.052,886.914 L 1509.223,888.824 L 1509.389,890.733 L 1509.549,892.643 L 1509.705,894.554 L 1509.855,896.465 L 1510.000,898.376 L 1510.141,900.288 L 1510.276,902.200 L 1510.406,904.113 L 1510.531,906.026 L 1510.651,907.939 L 1510.765,909.852 L 1510.875,911.766 L 1510.980,913.680 L 1511.079,915.594 L 1511.173,917.509 L 1511.263,919.424 L 1511.347,921.339 L 1511.426,923.254 L 1511.500,925.170 L 1511.569,927.085 L 1511.633,929.001 L 1511.691,930.917 L 1511.745,932.833 L 1511.793,934.750 L 1511.837,936.666 L 1511.875,938.582 L 1511.908,940.499 L 1511.936,942.416 L 1511.959,944.333 L 1511.977,946.249 L 1511.990,948.166 L 1511.997,950.083 L 1512.000,952.000 L 1515.478,952.000 L 1518.957,952.000 L 1522.435,952.000 L 1525.913,952.000 L 1529.391,952.000 L 1532.870,952.000 L 1536.348,952.000 L 1539.826,952.000 L 1543.304,952.000 L 1546.783,952.000 L 1550.261,952.000 L 1553.739,952.000 L 1557.217,952.000 L 1560.696,952.000 L 1564.174,952.000 L 1567.652,952.000 L 1571.130,952.000 L 1574.609,952.000 L 1578.087,952.000 L 1581.565,952.000 L 1585.043,952.000 L 1588.522,952.000 L 1592.000,952.000" />
<path class="edge" stroke="#0072b2" d="M 1266.090,1027.089 L 1272.961,1028.177 L 1279.832,1029.265 L 1286.703,1030.353 L 1293.574,1031.442 L 1300.445,1032.530 L 1307.316,1033.618 L 1314.187,1034.706 L 1321.057,1035.794 L 1327.928,1036.883 L 1334.799,1037.971 L 1341.670,1039.059 L 1348.541,1040.147 L 1355.412,1041.236 L 1362.283,1042.324 L 1369.154,1043.412 L 1376.024,1044.500 L 1382.895,1045.589 L 1389.766,1046.677 L 1396.637,1047.765 L 1403.508,1048.853 L 1410.379,1049.942 L 1417.250,1051.030 L 1424.121,1052.118 L 1423.578,1055.482 L 1423.019,1058.844 L 1422.441,1062.202 L 1421.845,1065.558 L 1421.231,1068.910 L 1420.600,1072.259 L 1419.951,1075.604 L 1419.284,1078.946 L 1418.599,1082.284 L 1417.896,1085.619 L 1417.176,1088.950 L 1416.438,1092.277 L 1415.682,1095.600 L 1414.908,1098.919 L 1414.117,1102.233 L 1413.309,1105.544 L 1412.482,1108.850 L 1411.638,1112.152 L 1410.777,1115.449 L 1409.898,1118.741 L 1409.001,1122.029 L 1408.087,1125.312 L 1407.155,1128.590 L 1406.206,1131.863 L 1405.240,1135.131 L 1404.256,1138.394 L 1403.255,1141.651 L 1402.236,1144.903 L 1401.201,1148.150 L 1400.147,1151.391 L 1399.077,1154.626 L 1397.990,1157.856 L 1396.885,1161.080 L 1395.763,1164.297 L 1394.624,1167.509 L 1393.468,1170.715 L 1392.295,1173.915 L 1391.105,1177.108 L 1389.898,1180.295 L 1388.674,1183.475 L 1387.433,1186.649 L 1386.175,1189.816 L 1384.900,1192.976 L 1383.608,1196.130 L 1382.300,1199.277 L 1380.975,1202.416 L 1379.633,1205.549 L 1378.275,1208.674 L 1376.900,1211.792 L 1375.508,1214.903 L 1374.100,1218.007 L 1372.675,1221.102 L 1371.234,1224.190 L 1369.777,1227.271 L 1368.303,1230.343 L 1366.813,1233.408 L 1365.306,1236.465 L 1363.783,1239.513 L 1362.244,1242.554" />
<path class="edge" stroke="#0072b2" d="M 1362.244,1242.554 L 1365.343,1244.133 L 1368.442,1245.712 L 1371.542,1247.291 L 1374.641,1248.870 L 1377.740,1250.449 L 1380.839,1252.029 L 1383.938,1253.608 L 1387.037,1255.187 L 1390.137,1256.766 L 1393.236,1258.345 L 1396.335,1259.924 L 1399.434,1261.503 L 1402.533,1263.082 L 1405.632,1264.661 L 1408.731,1266.240 L 1411.831,1267.819 L 1414.930,1269.399 L 1418.029,1270.978 L 1421.128,1272.557 L 1424.227,1274.136 L 1427.326,1275.715 L 1430.426,1277.294 L 1433.525,1278.873 L 1434.393,1277.164 L 1435.256,1275.453 L 1436.115,1273.739 L 1436.969,1272.023 L 1437.819,1270.305 L 1438.664,1268.584 L 1439.505,1266.861 L 1440.341,1265.136 L 1441.172,1263.409 L 1441.999,1261.680 L 1442.821,1259.948 L 1443.639,1258.214 L 1444.452,1256.478 L 1445.260,1254.740 L 1446.064,1253.000 L 1446.863,1251.257 L 1447.657,1249.513 L 1448.447,1247.766 L 1449.232,1246.017 L 1450.012,1244.267 L 1450.788,1242.514 L 1451.559,1240.759 L 1452.326,1239.002 L 1453.087,1237.243 L 1453.845,1235.482 L 1454.597,1233.718 L 1455.345,1231.953 L 1456.088,1230.186 L 1456.826,1228.417 L 1457.559,1226.646 L 1458.288,1224.873 L 1459.012,1223.099 L 1459.732,1221.322 L 1460.446,1219.543 L 1461.156,1217.762 L 1461.862,1215.980 L 1462.562,1214.196 L 1463.258,1212.409 L 1463.949,1210.621 L 1464.635,1208.831 L 1465.316,1207.040 L 1465.993,1205.246 L 1466.665,1203.451 L 1467.332,1201.654 L 1467.994,1199.855 L 1468.652,1198.054 L 1469.304,1196.252 L 1469.952,1194.448 L 1470.595,1192.642 L 1471.233,1190.835 L 1471.867,1189.025 L 1472.496,1187.214 L 1473.119,1185.402 L 1473.738,1183.588 L 1474.352,1181.772 L 1474.962,1179.954 L 1475.566,1178.135 L 1476.166,1176.315 L 1476.761,1174.492 L 1480.069,1175.567 L 1483.377,1176.642 L 1486.685,1177.717 L 1489.993,1178.792 L 1493.301,1179.866 L 1496.609,1180.941 L 1499.917,1182.016 L 1503.225,1183.091 L 1506.533,1184.166 L 1509.841,1185.241 L 1513.149,1186.315 L 1516.457,1187.390 L 1519.765,1188.465 L 1523.073,1189.540 L 1526.381,1190.615 L 1529.689,1191.690 L 1532.997,1192.765 L 1536.305,1193.839 L 1539.613,1194.914 L 1542.921,1195.989 L 1546.229,1197.064 L 1549.537,1198.139 L 1552.845,1199.214" />
<path class="edge" stroke="#0072b2" d="M 1362.244,1242.554 L 1365.343,1244.133 L 1368.442,1245.712 L 1371.542,1247.291 L 1374.641,1248.870 L 1377.740,1250.449 L 1380.839,1252.029 L 1383.938,1253.608 L 1387.037,1255.187 L 1390.137,1256.766 L 1393.236,1258.345 L 1396.335,1259.924 L 1399.434,1261.503 L 1402.533,1263.082 L 1405.632,1264.661 L 1408.731,1266.240 L 1411.831,1267.819 L 1414.930,1269.399 L 1418.029,1270.978 L 1421.128,1272.557 L 1424.227,1274.136 L 1427.326,1275.715 L 1430.426,1277.294 L 1433.525,1278.873 L 1432.652,1280.580 L 1431.775,1282.284 L 1430.893,1283.987 L 1430.007,1285.686 L 1429.117,1287.384 L 1428.222,1289.079 L 1427.322,1290.772 L 1426.418,1292.462 L 1425.509,1294.150 L 1424.596,1295.835 L 1423.678,1297.518 L 1422.756,1299.199 L 1421.829,1300.877 L 1420.898,1302.552 L 1419.963,1304.225 L 1419.023,1305.896 L 1418.078,1307.564 L 1417.130,1309.230 L 1416.176,1310.893 L 1415.219,1312.553 L 1414.256,1314.211 L 1413.290,1315.867 L 1412.319,1317.519 L 1411.344,1319.170 L 1410.364,1320.817 L 1409.380,1322.462 L 1408.391,1324.105 L 1407.398,1325.744 L 1406.401,1327.381 L 1405.400,1329.016 L 1404.394,1330.648 L 1403.383,1332.277 L 1402.369,1333.903 L 1401.350,1335.527 L 1400.327,1337.148 L 1399.299,1338.766 L 1398.267,1340.381 L 1397.231,1341.994 L 1396.191,1343.604 L 1395.146,1345.211 L 1394.097,1346.816 L 1393.044,1348.417 L 1391.986,1350.016 L 1390.924,1351.612 L 1389.858,1353.205 L 1388.788,1354.795 L 1387.713,1356.383 L 1386.635,1357.967 L 1385.552,1359.549 L 1384.465,1361.128 L 1383.373,1362.704 L 1382.278,1364.277 L 1381.178,1365.847 L 1380.074,1367.414 L 1378.966,1368.978 L 1377.854,1370.540 L 1376.737,1372.098 L 1375.617,1373.653 L 1374.492,1375.205 L 1377.306,1377.250 L 1380.120,1379.294 L 1382.934,1381.339 L 1385.748,1383.383 L 1388.562,1385.428 L 1391.376,1387.472 L 1394.190,1389.517 L 1397.004,1391.561 L 1399.818,1393.606 L 1402.632,1395.650 L 1405.446,1397.695 L 1408.260,1399.739 L 1411.074,1401.783 L 1413.888,1403.828 L 1416.702,1405.872 L 1419.516,1407.917 L 1422.330,1409.961 L 1425.144,1412.006 L 1427.958,1414.050 L 1430.772,1416.095 L 1433.586,1418.139 L 1436.400,1420.184 L 1439.214,1422.228" />
<path class="edge" stroke="#0072b2" d="M 934.561,1024.638 L 940.759,1027.797 L 946.958,1030.955 L 953.156,1034.113 L 959.354,1037.271 L 965.553,1040.429 L 971.751,1043.588 L 977.949,1046.746 L 984.147,1049.904 L 990.346,1053.062 L 996.544,1056.220 L 1002.742,1059.379 L 1008.941,1062.537 L 1015.139,1065.695 L 1021.337,1068.853 L 1027.536,1072.011 L 1033.734,1075.170 L 1039.932,1078.328 L 1046.131,1081.486 L 1052.329,1084.644 L 1058.527,1087.802 L 1064.725,1090.961 L 1070.924,1094.119 L 1077.122,1097.277 L 1074.765,1101.813 L 1072.336,1106.310 L 1069.835,1110.769 L 1067.264,1115.186 L 1064.622,1119.563 L 1061.911,1123.896 L 1059.130,1128.185 L 1056.282,1132.430 L 1053.366,1136.628 L 1050.384,1140.780 L 1047.335,1144.883 L 1044.222,1148.937 L 1041.044,1152.941 L 1037.802,1156.893 L 1034.498,1160.793 L 1031.132,1164.640 L 1027.705,1168.433 L 1024.218,1172.170 L 1020.671,1175.852 L 1017.066,1179.476 L 1013.404,1183.042 L 1009.685,1186.549 L 1005.911,1189.996 L 1002.082,1193.383 L 998.199,1196.708 L 994.264,1199.970 L 990.277,1203.170 L 986.240,1206.305 L 982.153,1209.375 L 978.018,1212.379 L 973.835,1215.318 L 969.605,1218.189 L 965.331,1220.992 L 961.012,1223.726 L 956.650,1226.391 L 952.246,1228.986 L 947.801,1231.510 L 943.316,1233.963 L 938.793,1236.344 L 934.232,1238.653 L 929.635,1240.888 L 925.003,1243.050 L 920.337,1245.137 L 915.638,1247.150 L 910.908,1249.087 L 906.147,1250.949 L 901.357,1252.734 L 896.540,1254.442 L 891.695,1256.074 L 886.825,1257.627 L 881.931,1259.103 L 877.014,1260.500 L 872.076,1261.819 L 867.117,1263.059 L 862.138,1264.219 L 857.142,1265.299 L 852.129,1266.300 L 847.101,1267.220 L 842.059,1268.060" />
<path class="edge" stroke="#0072b2" d="M 842.059,1268.060 L 843.147,1274.931 L 844.236,1281.802 L 845.324,1288.673 L 846.412,1295.544 L 847.500,1302.415 L 848.588,1309.286 L 849.677,1316.156 L 850.765,1323.027 L 851.853,1329.898 L 852.941,1336.769 L 854.030,1343.640 L 855.118,1350.511 L 856.206,1357.382 L 857.294,1364.253 L 858.383,1371.123 L 859.471,1377.994 L 860.559,1384.865 L 861.647,1391.736 L 862.736,1398.607 L 863.824,1405.478 L 864.912,1412.349 L 866.000,1419.220 L 867.089,1426.090 L 869.612,1425.684 L 872.133,1425.264 L 874.652,1424.830 L 877.168,1424.384 L 879.682,1423.923 L 882.194,1423.450 L 884.703,1422.963 L 887.210,1422.463 L 889.713,1421.949 L 892.214,1421.422 L 894.712,1420.882 L 897.208,1420.328 L 899.700,1419.761 L 902.189,1419.181 L 904.675,1418.588 L 907.158,1417.981 L 909.637,1417.362 L 912.114,1416.729 L 914.587,1416.082 L 917.056,1415.423 L 919.522,1414.751 L 921.984,1414.065 L 924.442,1413.366 L 926.897,1412.655 L 929.348,1411.930 L 931.795,1411.192 L 934.238,1410.441 L 936.677,1409.677 L 939.112,1408.900 L 941.543,1408.111 L 943.970,1407.308 L 946.392,1406.492 L 948.810,1405.664 L 951.223,1404.822 L 953.632,1403.968 L 956.036,1403.101 L 958.436,1402.221 L 960.831,1401.329 L 963.221,1400.423 L 965.606,1399.505 L 967.987,1398.574 L 970.362,1397.631 L 972.732,1396.675 L 975.098,1395.706 L 977.458,1394.725 L 979.812,1393.731 L 982.162,1392.725 L 984.506,1391.706 L 986.844,1390.675 L 989.177,1389.631 L 991.505,1388.575 L 993.827,1387.507 L 996.143,1386.426 L 998.453,1385.333 L 1000.758,1384.227 L 1003.056,1383.109 L 1005.349,1381.980 L 1007.635,1380.837 L 1009.915,1379.683" />
<path class="edge" stroke="#0072b2" d="M 1009.915,1379.683 L 1011.495,1382.782 L 1013.074,1385.881 L 1014.653,1388.981 L 1016.232,1392.080 L 1017.811,1395.179 L 1019.390,1398.278 L 1020.969,1401.377 L 1022.548,1404.476 L 1024.127,1407.576 L 1025.706,1410.675 L 1027.286,1413.774 L 1028.865,1416.873 L 1030.444,1419.972 L 1032.023,1423.071 L 1033.602,1426.170 L 1035.181,1429.270 L 1036.760,1432.369 L 1038.339,1435.468 L 1039.918,1438.567 L 1041.497,1441.666 L 1043.076,1444.765 L 1044.656,1447.865 L 1046.235,1450.964 L 1047.562,1450.285 L 1048.888,1449.603 L 1050.212,1448.917 L 1051.534,1448.228 L 1052.854,1447.535 L 1054.172,1446.839 L 1055.489,1446.139 L 1056.804,1445.436 L 1058.116,1444.729 L 1059.427,1444.019 L 1060.736,1443.305 L 1062.043,1442.588 L 1063.348,1441.867 L 1064.652,1441.143 L 1065.953,1440.416 L 1067.252,1439.684 L 1068.550,1438.950 L 1069.845,1438.212 L 1071.139,1437.470 L 1072.430,1436.726 L 1073.720,1435.977 L 1075.007,1435.225 L 1076.293,1434.470 L 1077.576,1433.712 L 1078.858,1432.950 L 1080.137,1432.184 L 1081.415,1431.415 L 1082.690,1430.643 L 1083.963,1429.868 L 1085.235,1429.089 L 1086.504,1428.306 L 1087.771,1427.520 L 1089.036,1426.731 L 1090.299,1425.939 L 1091.559,1425.143 L 1092.818,1424.344 L 1094.074,1423.541 L 1095.329,1422.735 L 1096.581,1421.926 L 1097.831,1421.113 L 1099.079,1420.298 L 1100.325,1419.478 L 1101.568,1418.656 L 1102.809,1417.830 L 1104.048,1417.001 L 1105.285,1416.168 L 1106.520,1415.333 L 1107.752,1414.494 L 1108.983,1413.651 L 1110.211,1412.806 L 1111.436,1411.957 L 1112.660,1411.105 L 1113.881,1410.250 L 1115.100,1409.391 L 1116.316,1408.529 L 1117.531,1407.664 L 1118.743,1406.796 L 1119.952,1405.924 L 1121.160,1405.050 L 1123.204,1407.863 L 1125.249,1410.677 L 1127.293,1413.491 L 1129.338,1416.305 L 1131.382,1419.119 L 1133.427,1421.933 L 1135.471,1424.747 L 1137.516,1427.561 L 1139.560,1430.375 L 1141.604,1433.189 L 1143.649,1436.003 L 1145.693,1438.817 L 1147.738,1441.631 L 1149.782,1444.445 L 1151.827,1447.259 L 1153.871,1450.073 L 1155.916,1452.887 L 1157.960,1455.701 L 1160.005,1458.515 L 1162.049,1461.329 L 1164.094,1464.143 L 1166.138,1466.957 L 1168.183,1469.771" />
<path class="edge" stroke="#0072b2" d="M 1009.915,1379.683 L 1011.495,1382.782 L 1013.074,1385.881 L 1014.653,1388.981 L 1016.232,1392.080 L 1017.811,1395.179 L 1019.390,1398.278 L 1020.969,1401.377 L 1022.548,1404.476 L 1024.127,1407.576 L 1025.706,1410.675 L 1027.286,1413.774 L 1028.865,1416.873 L 1030.444,1419.972 L 1032.023,1423.071 L 1033.602,1426.170 L 1035.181,1429.270 L 1036.760,1432.369 L 1038.339,1435.468 L 1039.918,1438.567 L 1041.497,1441.666 L 1043.076,1444.765 L 1044.656,1447.865 L 1046.235,1450.964 L 1044.905,1451.639 L 1043.574,1452.310 L 1042.241,1452.978 L 1040.907,1453.643 L 1039.570,1454.304 L 1038.232,1454.961 L 1036.892,1455.615 L 1035.550,1456.265 L 1034.207,1456.912 L 1032.862,1457.555 L 1031.515,1458.194 L 1030.167,1458.830 L 1028.816,1459.462 L 1027.464,1460.091 L 1026.111,1460.716 L 1024.756,1461.338 L 1023.399,1461.955 L 1022.040,1462.570 L 1020.680,1463.180 L 1019.318,1463.787 L 1017.955,1464.391 L 1016.590,1464.991 L 1015.224,1465.587 L 1013.855,1466.179 L 1012.486,1466.768 L 1011.114,1467.353 L 1009.742,1467.935 L 1008.367,1468.513 L 1006.991,1469.087 L 1005.614,1469.657 L 1004.235,1470.224 L 1002.854,1470.787 L 1001.472,1471.347 L 1000.089,1471.903 L 998.704,1472.455 L 997.318,1473.003 L 995.930,1473.548 L 994.541,1474.089 L 993.150,1474.627 L 991.758,1475.160 L 990.364,1475.690 L 988.969,1476.217 L 987.573,1476.739 L 986.175,1477.258 L 984.776,1477.773 L 983.376,1478.285 L 981.974,1478.792 L 980.571,1479.296 L 979.166,1479.796 L 977.760,1480.293 L 976.353,1480.785 L 974.945,1481.274 L 973.535,1481.759 L 972.124,1482.241 L 970.711,1482.719 L 969.298,1483.193 L 967.883,1483.663 L 966.467,1484.129 L 965.050,1484.592 L 966.124,1487.900 L 967.199,1491.208 L 968.274,1494.516 L 969.349,1497.824 L 970.424,1501.132 L 971.499,1504.440 L 972.573,1507.748 L 973.648,1511.056 L 974.723,1514.364 L 975.798,1517.672 L 976.873,1520.980 L 977.948,1524.288 L 979.022,1527.596 L 980.097,1530.904 L 981.172,1534.212 L 982.247,1537.520 L 983.322,1540.828 L 984.397,1544.136 L 985.472,1547.444 L 986.546,1550.752 L 987.621,1554.060 L 988.696,1557.368 L 989.771,1560.676" />
<path class="edge" stroke="#0072b2" d="M 842.059,1268.060 L 843.147,1274.931 L 844.236,1281.802 L 845.324,1288.673 L 846.412,1295.544 L 847.500,1302.415 L 848.588,1309.286 L 849.677,1316.156 L 850.765,1323.027 L 851.853,1329.898 L 852.941,1336.769 L 854.030,1343.640 L 855.118,1350.511 L 856.206,1357.382 L 857.294,1364.253 L 858.383,1371.123 L 859.471,1377.994 L 860.559,1384.865 L 861.647,1391.736 L 862.736,1398.607 L 863.824,1405.478 L 864.912,1412.349 L 866.000,1419.220 L 867.089,1426.090 L 864.563,1426.484 L 862.036,1426.863 L 859.506,1427.229 L 856.975,1427.582 L 854.441,1427.921 L 851.906,1428.247 L 849.370,1428.559 L 846.831,1428.858 L 844.291,1429.143 L 841.750,1429.415 L 839.207,1429.673 L 836.663,1429.918 L 834.118,1430.149 L 831.571,1430.366 L 829.023,1430.570 L 826.475,1430.760 L 823.925,1430.937 L 821.374,1431.100 L 818.823,1431.250 L 816.270,1431.386 L 813.717,1431.508 L 811.164,1431.617 L 808.610,1431.713 L 806.055,1431.794 L 803.500,1431.862 L 800.945,1431.917 L 798.389,1431.957 L 795.834,1431.985 L 793.278,1431.998 L 790.722,1431.998 L 788.166,1431.985 L 785.611,1431.957 L 783.055,1431.917 L 780.500,1431.862 L 777.945,1431.794 L 775.390,1431.713 L 772.836,1431.617 L 770.283,1431.508 L 767.730,1431.386 L 765.177,1431.250 L 762.626,1431.100 L 760.075,1430.937 L 757.525,1430.760 L 754.977,1430.570 L 752.429,1430.366 L 749.882,1430.149 L 747.337,1429.918 L 744.793,1429.673 L 742.250,1429.415 L 739.709,1429.143 L 737.169,1428.858 L 734.630,1428.559 L 732.094,1428.247 L 729.559,1427.921 L 727.025,1427.582 L 724.494,1427.229 L 721.964,1426.863 L 719.437,1426.484 L 716.911,1426.090" />
<path class="edge" stroke="#0072b2" d="M 716.911,1426.090 L 716.367,1429.526 L 715.823,1432.961 L 715.279,1436.397 L 714.735,1439.832 L 714.191,1443.268 L 713.647,1446.703 L 713.103,1450.138 L 712.558,1453.574 L 712.014,1457.009 L 711.470,1460.445 L 710.926,1463.880 L 710.382,1467.316 L 709.838,1470.751 L 709.294,1474.187 L 708.750,1477.622 L 708.206,1481.057 L 707.661,1484.493 L 707.117,1487.928 L 706.573,1491.364 L 706.029,1494.799 L 705.485,1498.235 L 704.941,1501.670 L 704.397,1505.105 L 705.870,1505.337 L 707.343,1505.564 L 708.817,1505.788 L 710.292,1506.007 L 711.767,1506.223 L 713.243,1506.434 L 714.719,1506.642 L 716.196,1506.846 L 717.674,1507.046 L 719.152,1507.242 L 720.630,1507.433 L 722.109,1507.622 L 723.589,1507.806 L 725.069,1507.986 L 726.549,1508.162 L 728.030,1508.334 L 729.512,1508.503 L 730.993,1508.667 L 732.476,1508.827 L 733.958,1508.984 L 735.441,1509.137 L 736.925,1509.285 L 738.409,1509.430 L 739.893,1509.571 L 741.378,1509.707 L 742.863,1509.840 L 744.348,1509.969 L 745.834,1510.094 L 747.320,1510.215 L 748.806,1510.332 L 750.293,1510.445 L 751.780,1510.554 L 753.267,1510.659 L 754.754,1510.760 L 756.242,1510.857 L 757.730,1510.950 L 759.218,1511.040 L 760.707,1511.125 L 762.196,1511.206 L 763.684,1511.284 L 765.174,1511.357 L 766.663,1511.427 L 768.152,1511.492 L 769.642,1511.554 L 771.132,1511.611 L 772.622,1511.665 L 774.112,1511.714 L 775.602,1511.760 L 777.093,1511.802 L 778.583,1511.839 L 780.073,1511.873 L 781.564,1511.903 L 783.055,1511.929 L 784.546,1511.950 L 786.036,1511.968 L 787.527,1511.982 L 789.018,1511.992 L 790.509,1511.998 L 792.000,1512.000 L 792.000,1515.478 L 792.000,1518.957 L 792.000,1522.435 L 792.000,1525.913 L 792.000,1529.391 L 792.000,1532.870 L 792.000,1536.348 L 792.000,1539.826 L 792.000,1543.304 L 792.000,1546.783 L 792.000,1550.261 L 792.000,1553.739 L 792.000,1557.217 L 792.000,1560.696 L 792.000,1564.174 L 792.000,1567.652 L 792.000,1571.130 L 792.000,1574.609 L 792.000,1578.087 L 792.000,1581.565 L 792.000,1585.043 L 792.000,1588.522 L 792.000,1592.000" />
<path class="edge" stroke="#0072b2" d="M 716.911,1426.090 L 716.367,1429.526 L 715.823,1432.961 L 715.279,1436.397 L 714.735,1439.832 L 714.191,1443.268 L 713.647,1446.703 L 713.103,1450.138 L 712.558,1453.574 L 712.014,1457.009 L 711.470,1460.445 L 710.926,1463.880 L 710.382,1467.316 L 709.838,1470.751 L 709.294,1474.187 L 708.750,1477.622 L 708.206,1481.057 L 707.661,1484.493 L 707.117,1487.928 L 706.573,1491.364 L 706.029,1494.799 L 705.485,1498.235 L 704.941,1501.670 L 704.397,1505.105 L 702.924,1504.870 L 701.453,1504.631 L 699.982,1504.388 L 698.512,1504.141 L 697.042,1503.890 L 695.573,1503.636 L 694.105,1503.377 L 692.637,1503.114 L 691.170,1502.848 L 689.704,1502.577 L 688.238,1502.303 L 686.774,1502.025 L 685.310,1501.743 L 683.846,1501.457 L 682.384,1501.167 L 680.922,1500.873 L 679.461,1500.575 L 678.001,1500.274 L 676.542,1499.968 L 675.083,1499.659 L 673.626,1499.346 L 672.169,1499.029 L 670.713,1498.708 L 669.258,1498.383 L 667.804,1498.054 L 666.350,1497.722 L 664.898,1497.385 L 663.446,1497.045 L 661.996,1496.701 L 660.546,1496.353 L 659.097,1496.001 L 657.649,1495.645 L 656.202,1495.285 L 654.756,1494.922 L 653.311,1494.555 L 651.867,1494.183 L 650.424,1493.808 L 648.982,1493.430 L 647.541,1493.047 L 646.101,1492.660 L 644.663,1492.270 L 643.225,1491.876 L 641.788,1491.478 L 640.352,1491.076 L 638.917,1490.670 L 637.484,1490.261 L 636.051,1489.848 L 634.620,1489.430 L 633.190,1489.010 L 631.761,1488.585 L 630.333,1488.156 L 628.906,1487.724 L 627.480,1487.288 L 626.055,1486.848 L 624.632,1486.404 L 623.210,1485.957 L 621.789,1485.506 L 620.369,1485.050 L 618.950,1484.592 L 617.876,1487.900 L 616.801,1491.208 L 615.726,1494.516 L 614.651,1497.824 L 613.576,1501.132 L 612.501,1504.440 L 611.427,1507.748 L 610.352,1511.056 L 609.277,1514.364 L 608.202,1517.672 L 607.127,1520.980 L 606.052,1524.288 L 604.978,1527.596 L 603.903,1530.904 L 602.828,1534.212 L 601.753,1537.520 L 600.678,1540.828 L 599.603,1544.136 L 598.528,1547.444 L 597.454,1550.752 L 596.379,1554.060 L 595.304,1557.368 L 594.229,1560.676" />
<path class="edge" stroke="#d55e00" d="M 792.000,952.000 L 789.850,958.616 L 787.701,965.232 L 785.551,971.848 L 783.401,978.464 L 781.252,985.080 L 779.102,991.696 L 776.952,998.312 L 774.803,1004.928 L 772.653,1011.544 L 770.503,1018.160 L 768.353,1024.776 L 766.204,1031.393 L 764.054,1038.009 L 761.904,1044.625 L 759.755,1051.241 L 757.605,1057.857 L 755.455,1064.473 L 753.306,1071.089 L 751.156,1077.705 L 749.006,1084.321 L 746.857,1090.937 L 744.707,1097.553 L 742.557,1104.169 L 738.926,1102.941 L 735.324,1101.626 L 731.756,1100.225 L 728.222,1098.739 L 724.724,1097.169 L 721.266,1095.515 L 717.847,1093.779 L 714.472,1091.962 L 711.141,1090.064 L 707.856,1088.087 L 704.620,1086.032 L 701.434,1083.900 L 698.299,1081.693 L 695.219,1079.410 L 692.194,1077.055 L 689.227,1074.628 L 686.318,1072.130 L 683.470,1069.564 L 680.685,1066.930 L 677.963,1064.230 L 675.307,1061.465 L 672.718,1058.638 L 670.197,1055.750 L 667.746,1052.802 L 665.367,1049.796 L 663.060,1046.734 L 660.827,1043.617 L 658.670,1040.448 L 656.589,1037.228 L 654.586,1033.959 L 652.662,1030.644 L 650.817,1027.283 L 649.054,1023.878 L 647.373,1020.433 L 645.775,1016.948 L 644.261,1013.426 L 642.832,1009.869 L 641.488,1006.278 L 640.231,1002.657 L 639.061,999.006 L 637.978,995.328 L 636.984,991.625 L 636.080,987.900 L 635.264,984.154 L 634.539,980.389 L 633.904,976.609 L 633.360,972.814 L 632.906,969.007 L 632.545,965.190 L 632.274,961.366 L 632.096,957.537 L 632.009,953.704 L 632.014,949.870 L 632.111,946.038 L 632.300,942.209 L 632.580,938.385 L 632.952,934.570 L 633.416,930.764 L 633.970,926.970" />
<path class="edge" stroke="#d55e00" d="M 633.970,926.970 L 627.099,925.882 L 620.228,924.794 L 613.357,923.706 L 606.486,922.618 L 599.615,921.529 L 592.745,920.441 L 585.874,919.353 L 579.003,918.265 L 572.132,917.176 L 565.261,916.088 L 558.390,915.000 L 551.519,913.912 L 544.648,912.823 L 537.778,911.735 L 530.907,910.647 L 524.036,909.559 L 517.165,908.470 L 510.294,907.382 L 503.423,906.294 L 496.552,905.206 L 489.681,904.117 L 482.811,903.029 L 475.940,901.941 L 475.425,905.310 L 474.945,908.684 L 474.502,912.062 L 474.095,915.446 L 473.723,918.833 L 473.388,922.225 L 473.089,925.619 L 472.826,929.017 L 472.600,932.417 L 472.409,935.820 L 472.255,939.224 L 472.137,942.630 L 472.056,946.037 L 472.010,949.444 L 472.001,952.852 L 472.028,956.260 L 472.092,959.667 L 472.192,963.073 L 472.328,966.478 L 472.500,969.882 L 472.709,973.283 L 472.953,976.682 L 473.234,980.078 L 473.551,983.471 L 473.905,986.861 L 474.294,990.246 L 474.719,993.628 L 475.180,997.004 L 475.678,1000.375 L 476.211,1003.741 L 476.780,1007.101 L 477.384,1010.455 L 478.025,1013.802 L 478.701,1017.142 L 479.412,1020.475 L 480.159,1023.800 L 480.941,1027.117 L 481.759,1030.425 L 482.612,1033.724 L 483.500,1037.014 L 484.422,1040.295 L 485.380,1043.565 L 486.373,1046.825 L 487.400,1050.075 L 488.461,1053.313 L 489.558,1056.540 L 490.688,1059.755 L 491.853,1062.957 L 493.051,1066.147 L 494.284,1069.324 L 495.550,1072.488 L 496.850,1075.638 L 498.183,1078.774 L 499.550,1081.896 L 500.950,1085.003 L 502.383,1088.095 L 503.849,1091.172 L 505.347,1094.232 L 506.878,1097.277" />
<path class="edge" stroke="#d55e00" d="M 506.878,1097.277 L 500.680,1100.435 L 494.481,1103.593 L 488.283,1106.752 L 482.085,1109.910 L 475.886,1113.068 L 469.688,1116.226 L 463.490,1119.384 L 457.291,1122.543 L 451.093,1125.701 L 444.895,1128.859 L 438.697,1132.017 L 432.498,1135.175 L 426.300,1138.333 L 420.102,1141.492 L 413.903,1144.650 L 407.705,1147.808 L 401.507,1150.966 L 395.308,1154.124 L 389.110,1157.283 L 382.912,1160.441 L 376.713,1163.599 L 370.515,1166.757 L 364.317,1169.915 L 365.483,1172.190 L 366.662,1174.458 L 367.852,1176.719 L 369.055,1178.975 L 370.269,1181.223 L 371.496,1183.466 L 372.734,1185.701 L 373.985,1187.931 L 375.247,1190.153 L 376.521,1192.369 L 377.807,1194.578 L 379.104,1196.780 L 380.414,1198.975 L 381.734,1201.163 L 383.067,1203.344 L 384.411,1205.518 L 385.767,1207.684 L 387.134,1209.844 L 388.513,1211.996 L 389.903,1214.141 L 391.304,1216.278 L 392.717,1218.408 L 394.141,1220.530 L 395.577,1222.645 L 397.024,1224.752 L 398.482,1226.851 L 399.951,1228.943 L 401.431,1231.026 L 402.922,1233.102 L 404.424,1235.170 L 405.938,1237.230 L 407.462,1239.281 L 408.997,1241.325 L 410.543,1243.360 L 412.100,1245.387 L 413.667,1247.406 L 415.246,1249.416 L 416.835,1251.418 L 418.434,1253.411 L 420.045,1255.396 L 421.665,1257.372 L 423.297,1259.340 L 424.938,1261.299 L 426.590,1263.249 L 428.253,1265.190 L 429.926,1267.123 L 431.609,1269.046 L 433.302,1270.961 L 435.006,1272.866 L 436.719,1274.762 L 438.443,1276.650 L 440.176,1278.528 L 441.920,1280.396 L 443.674,1282.256 L 445.437,1284.106 L 447.210,1285.946 L 448.994,1287.778 L 450.786,1289.599 L 452.589,1291.411" />
<path class="edge" stroke="#d55e00" d="M 452.589,1291.411 L 450.129,1293.871 L 447.670,1296.330 L 445.210,1298.790 L 442.751,1301.249 L 440.291,1303.709 L 437.832,1306.168 L 435.372,1308.628 L 432.913,1311.087 L 430.453,1313.547 L 427.994,1316.006 L 425.534,1318.466 L 423.075,1320.925 L 420.615,1323.385 L 418.156,1325.844 L 415.696,1328.304 L 413.237,1330.763 L 410.777,1333.223 L 408.318,1335.682 L 405.858,1338.142 L 403.399,1340.601 L 400.939,1343.061 L 398.480,1345.520 L 396.020,1347.980 L 397.076,1349.033 L 398.134,1350.083 L 399.196,1351.130 L 400.260,1352.174 L 401.326,1353.216 L 402.396,1354.254 L 403.468,1355.290 L 404.543,1356.323 L 405.621,1357.353 L 406.702,1358.381 L 407.785,1359.405 L 408.871,1360.426 L 409.960,1361.445 L 411.051,1362.461 L 412.145,1363.474 L 413.242,1364.483 L 414.342,1365.490 L 415.444,1366.494 L 416.549,1367.495 L 417.656,1368.493 L 418.767,1369.489 L 419.879,1370.481 L 420.995,1371.470 L 422.113,1372.456 L 423.234,1373.440 L 424.357,1374.420 L 425.483,1375.397 L 426.611,1376.372 L 427.743,1377.343 L 428.876,1378.311 L 430.013,1379.276 L 431.151,1380.239 L 432.293,1381.198 L 433.437,1382.154 L 434.583,1383.107 L 435.732,1384.057 L 436.884,1385.004 L 438.038,1385.948 L 439.194,1386.889 L 440.354,1387.827 L 441.515,1388.761 L 442.679,1389.693 L 443.846,1390.621 L 445.015,1391.547 L 446.186,1392.469 L 447.360,1393.388 L 448.536,1394.304 L 449.715,1395.217 L 450.896,1396.127 L 452.080,1397.033 L 453.266,1397.937 L 454.455,1398.837 L 455.645,1399.734 L 456.839,1400.628 L 458.034,1401.519 L 459.232,1402.406 L 460.433,1403.290 L 461.635,1404.172 L 462.840,1405.050 L 460.796,1407.863 L 458.751,1410.677 L 456.707,1413.491 L 454.662,1416.305 L 452.618,1419.119 L 450.573,1421.933 L 448.529,1424.747 L 446.484,1427.561 L 444.440,1430.375 L 442.396,1433.189 L 440.351,1436.003 L 438.307,1438.817 L 436.262,1441.631 L 434.218,1444.445 L 432.173,1447.259 L 430.129,1450.073 L 428.084,1452.887 L 426.040,1455.701 L 423.995,1458.515 L 421.951,1461.329 L 419.906,1464.143 L 417.862,1466.957 L 415.817,1469.771" />
<path class="edge" stroke="#d55e00" d="M 452.589,1291.411 L 450.129,1293.871 L 447.670,1296.330 L 445.210,1298.790 L 442.751,1301.249 L 440.291,1303.709 L 437.832,1306.168 L 435.372,1308.628 L 432.913,1311.087 L 430.453,1313.547 L 427.994,1316.006 L 425.534,1318.466 L 423.075,1320.925 L 420.615,1323.385 L 418.156,1325.844 L 415.696,1328.304 L 413.237,1330.763 L 410.777,1333.223 L 408.318,1335.682 L 405.858,1338.142 L 403.399,1340.601 L 400.939,1343.061 L 398.480,1345.520 L 396.020,1347.980 L 394.967,1346.924 L 393.917,1345.866 L 392.870,1344.804 L 391.826,1343.740 L 390.784,1342.674 L 389.746,1341.604 L 388.710,1340.532 L 387.677,1339.457 L 386.647,1338.379 L 385.619,1337.298 L 384.595,1336.215 L 383.574,1335.129 L 382.555,1334.040 L 381.539,1332.949 L 380.526,1331.855 L 379.517,1330.758 L 378.510,1329.658 L 377.506,1328.556 L 376.505,1327.451 L 375.507,1326.344 L 374.511,1325.233 L 373.519,1324.121 L 372.530,1323.005 L 371.544,1321.887 L 370.560,1320.766 L 369.580,1319.643 L 368.603,1318.517 L 367.628,1317.389 L 366.657,1316.257 L 365.689,1315.124 L 364.724,1313.987 L 363.761,1312.849 L 362.802,1311.707 L 361.846,1310.563 L 360.893,1309.417 L 359.943,1308.268 L 358.996,1307.116 L 358.052,1305.962 L 357.111,1304.806 L 356.173,1303.646 L 355.239,1302.485 L 354.307,1301.321 L 353.379,1300.154 L 352.453,1298.985 L 351.531,1297.814 L 350.612,1296.640 L 349.696,1295.464 L 348.783,1294.285 L 347.873,1293.104 L 346.967,1291.920 L 346.063,1290.734 L 345.163,1289.545 L 344.266,1288.355 L 343.372,1287.161 L 342.481,1285.966 L 341.594,1284.768 L 340.710,1283.567 L 339.828,1282.365 L 338.950,1281.160 L 336.137,1283.204 L 333.323,1285.249 L 330.509,1287.293 L 327.695,1289.338 L 324.881,1291.382 L 322.067,1293.427 L 319.253,1295.471 L 316.439,1297.516 L 313.625,1299.560 L 310.811,1301.604 L 307.997,1303.649 L 305.183,1305.693 L 302.369,1307.738 L 299.555,1309.782 L 296.741,1311.827 L 293.927,1313.871 L 291.113,1315.916 L 288.299,1317.960 L 285.485,1320.005 L 282.671,1322.049 L 279.857,1324.094 L 277.043,1326.138 L 274.229,1328.183" />
<path class="edge" stroke="#d55e00" d="M 506.878,1097.277 L 500.680,1100.435 L 494.481,1103.593 L 488.283,1106.752 L 482.085,1109.910 L 475.886,1113.068 L 469.688,1116.226 L 463.490,1119.384 L 457.291,1122.543 L 451.093,1125.701 L 444.895,1128.859 L 438.697,1132.017 L 432.498,1135.175 L 426.300,1138.333 L 420.102,1141.492 L 413.903,1144.650 L 407.705,1147.808 L 401.507,1150.966 L 395.308,1154.124 L 389.110,1157.283 L 382.912,1160.441 L 376.713,1163.599 L 370.515,1166.757 L 364.317,1169.915 L 363.163,1167.635 L 362.020,1165.349 L 360.891,1163.056 L 359.773,1160.758 L 358.667,1158.453 L 357.574,1156.143 L 356.493,1153.827 L 355.425,1151.505 L 354.369,1149.177 L 353.325,1146.844 L 352.294,1144.506 L 351.275,1142.162 L 350.269,1139.812 L 349.275,1137.458 L 348.294,1135.098 L 347.325,1132.732 L 346.369,1130.362 L 345.426,1127.987 L 344.495,1125.606 L 343.577,1123.221 L 342.671,1120.831 L 341.779,1118.436 L 340.899,1116.036 L 340.032,1113.632 L 339.178,1111.223 L 338.336,1108.810 L 337.508,1106.392 L 336.692,1103.970 L 335.889,1101.543 L 335.100,1099.112 L 334.323,1096.677 L 333.559,1094.238 L 332.808,1091.795 L 332.070,1089.348 L 331.345,1086.897 L 330.634,1084.442 L 329.935,1081.984 L 329.249,1079.522 L 328.577,1077.056 L 327.918,1074.587 L 327.271,1072.114 L 326.638,1069.637 L 326.019,1067.158 L 325.412,1064.675 L 324.819,1062.189 L 324.239,1059.700 L 323.672,1057.208 L 323.118,1054.712 L 322.578,1052.214 L 322.051,1049.713 L 321.537,1047.210 L 321.037,1044.703 L 320.550,1042.194 L 320.077,1039.682 L 319.616,1037.168 L 319.170,1034.652 L 318.736,1032.133 L 318.316,1029.612 L 317.910,1027.089" />
<path class="edge" stroke="#d55e00" d="M 317.910,1027.089 L 314.474,1027.633 L 311.039,1028.177 L 307.603,1028.721 L 304.168,1029.265 L 300.732,1029.809 L 297.297,1030.353 L 293.862,1030.897 L 290.426,1031.442 L 286.991,1031.986 L 283.555,1032.530 L 280.120,1033.074 L 276.684,1033.618 L 273.249,1034.162 L 269.813,1034.706 L 266.378,1035.250 L 262.943,1035.794 L 259.507,1036.339 L 256.072,1036.883 L 252.636,1037.427 L 249.201,1037.971 L 245.765,1038.515 L 242.330,1039.059 L 238.895,1039.603 L 239.130,1041.076 L 239.369,1042.547 L 239.612,1044.018 L 239.859,1045.488 L 240.110,1046.958 L 240.364,1048.427 L 240.623,1049.895 L 240.886,1051.363 L 241.152,1052.830 L 241.423,1054.296 L 241.697,1055.762 L 241.975,1057.226 L 242.257,1058.690 L 242.543,1060.154 L 242.833,1061.616 L 243.127,1063.078 L 243.425,1064.539 L 243.726,1065.999 L 244.032,1067.458 L 244.341,1068.917 L 244.654,1070.374 L 244.971,1071.831 L 245.292,1073.287 L 245.617,1074.742 L 245.946,1076.196 L 246.278,1077.650 L 246.615,1079.102 L 246.955,1080.554 L 247.299,1082.004 L 247.647,1083.454 L 247.999,1084.903 L 248.355,1086.351 L 248.715,1087.798 L 249.078,1089.244 L 249.445,1090.689 L 249.817,1092.133 L 250.192,1093.576 L 250.570,1095.018 L 250.953,1096.459 L 251.340,1097.899 L 251.730,1099.337 L 252.124,1100.775 L 252.522,1102.212 L 252.924,1103.648 L 253.330,1105.083 L 253.739,1106.516 L 254.152,1107.949 L 254.570,1109.380 L 254.990,1110.810 L 255.415,1112.239 L 255.844,1113.667 L 256.276,1115.094 L 256.712,1116.520 L 257.152,1117.945 L 257.596,1119.368 L 258.043,1120.790 L 258.494,1122.211 L 258.950,1123.631 L 259.408,1125.050 L 256.100,1126.124 L 252.792,1127.199 L 249.484,1128.274 L 246.176,1129.349 L 242.868,1130.424 L 239.560,1131.499 L 236.252,1132.573 L 232.944,1133.648 L 229.636,1134.723 L 226.328,1135.798 L 223.020,1136.873 L 219.712,1137.948 L 216.404,1139.022 L 213.096,1140.097 L 209.788,1141.172 L 206.480,1142.247 L 203.172,1143.322 L 199.864,1144.397 L 196.556,1145.472 L 193.248,1146.546 L 189.940,1147.621 L 186.632,1148.696 L 183.324,1149.771" />
<path class="edge" stroke="#d55e00" d="M 317.910,1027.089 L 314.474,1027.633 L 311.039,1028.177 L 307.603,1028.721 L 304.168,1029.265 L 300.732,1029.809 L 297.297,1030.353 L 293.862,1030.897 L 290.426,1031.442 L 286.991,1031.986 L 283.555,1032.530 L 280.120,1033.074 L 276.684,1033.618 L 273.249,1034.162 L 269.813,1034.706 L 266.378,1035.250 L 262.943,1035.794 L 259.507,1036.339 L 256.072,1036.883 L 252.636,1037.427 L 249.201,1037.971 L 245.765,1038.515 L 242.330,1039.059 L 238.895,1039.603 L 238.663,1038.130 L 238.436,1036.657 L 238.212,1035.183 L 237.993,1033.708 L 237.777,1032.233 L 237.566,1030.757 L 237.358,1029.281 L 237.154,1027.804 L 236.954,1026.326 L 236.758,1024.848 L 236.567,1023.370 L 236.378,1021.891 L 236.194,1020.411 L 236.014,1018.931 L 235.838,1017.451 L 235.666,1015.970 L 235.497,1014.488 L 235.333,1013.007 L 235.173,1011.524 L 235.016,1010.042 L 234.863,1008.559 L 234.715,1007.075 L 234.570,1005.591 L 234.429,1004.107 L 234.293,1002.622 L 234.160,1001.137 L 234.031,999.652 L 233.906,998.166 L 233.785,996.680 L 233.668,995.194 L 233.555,993.707 L 233.446,992.220 L 233.341,990.733 L 233.240,989.246 L 233.143,987.758 L 233.050,986.270 L 232.960,984.782 L 232.875,983.293 L 232.794,981.804 L 232.716,980.316 L 232.643,978.826 L 232.573,977.337 L 232.508,975.848 L 232.446,974.358 L 232.389,972.868 L 232.335,971.378 L 232.286,969.888 L 232.240,968.398 L 232.198,966.907 L 232.161,965.417 L 232.127,963.927 L 232.097,962.436 L 232.071,960.945 L 232.050,959.454 L 232.032,957.964 L 232.018,956.473 L 232.008,954.982 L 232.002,953.491 L 232.000,952.000 L 228.522,952.000 L 225.043,952.000 L 221.565,952.000 L 218.087,952.000 L 214.609,952.000 L 211.130,952.000 L 207.652,952.000 L 204.174,952.000 L 200.696,952.000 L 197.217,952.000 L 193.739,952.000 L 190.261,952.000 L 186.783,952.000 L 183.304,952.000 L 179.826,952.000 L 176.348,952.000 L 172.870,952.000 L 169.391,952.000 L 165.913,952.000 L 162.435,952.000 L 158.957,952.000 L 155.478,952.000 L 152.000,952.000" />
<path class="edge" stroke="#d55e00" d="M 633.970,926.970 L 627.099,925.882 L 620.228,924.794 L 613.357,923.706 L 606.486,922.618 L 599.615,921.529 L 592.745,920.441 L 585.874,919.353 L 579.003,918.265 L 572.132,917.176 L 565.261,916.088 L 558.390,915.000 L 551.519,913.912 L 544.648,912.823 L 537.778,911.735 L 530.907,910.647 L 524.036,909.559 L 517.165,908.470 L 510.294,907.382 L 503.423,906.294 L 496.552,905.206 L 489.681,904.117 L 482.811,903.029 L 475.940,901.941 L 476.491,898.578 L 477.078,895.221 L 477.700,891.871 L 478.358,888.527 L 479.052,885.191 L 479.781,881.862 L 480.546,878.541 L 481.346,875.228 L 482.181,871.924 L 483.051,868.629 L 483.957,865.344 L 484.897,862.069 L 485.872,858.803 L 486.882,855.548 L 487.926,852.305 L 489.005,849.072 L 490.118,845.851 L 491.266,842.643 L 492.448,839.446 L 493.663,836.262 L 494.913,833.092 L 496.196,829.935 L 497.512,826.792 L 498.863,823.663 L 500.246,820.548 L 501.662,817.449 L 503.112,814.365 L 504.594,811.296 L 506.108,808.243 L 507.656,805.207 L 509.235,802.187 L 510.846,799.184 L 512.490,796.199 L 514.165,793.231 L 515.871,790.282 L 517.609,787.350 L 519.378,784.437 L 521.178,781.544 L 523.008,778.669 L 524.870,775.815 L 526.761,772.980 L 528.682,770.165 L 530.634,767.372 L 532.615,764.599 L 534.625,761.847 L 536.665,759.117 L 538.733,756.409 L 540.830,753.723 L 542.956,751.059 L 545.110,748.418 L 547.292,745.801 L 549.502,743.207 L 551.739,740.636 L 554.004,738.089 L 556.295,735.567 L 558.613,733.069 L 560.958,730.596 L 563.329,728.148 L 565.726,725.726" />
<path class="edge" stroke="#d55e00" d="M 565.726,725.726 L 560.807,720.807 L 555.888,715.888 L 550.969,710.969 L 546.050,706.050 L 541.131,701.131 L 536.212,696.212 L 531.293,691.293 L 526.374,686.374 L 521.455,681.455 L 516.536,676.536 L 511.617,671.617 L 506.698,666.698 L 501.779,661.779 L 496.860,656.860 L 491.941,651.941 L 487.022,647.022 L 482.103,642.103 L 477.184,637.184 L 472.265,632.265 L 467.346,627.346 L 462.427,622.427 L 457.508,617.508 L 452.589,612.589 L 450.786,614.401 L 448.994,616.222 L 447.210,618.054 L 445.437,619.894 L 443.674,621.744 L 441.920,623.604 L 440.176,625.472 L 438.443,627.350 L 436.719,629.238 L 435.006,631.134 L 433.302,633.039 L 431.609,634.954 L 429.926,636.877 L 428.253,638.810 L 426.590,640.751 L 424.938,642.701 L 423.297,644.660 L 421.665,646.628 L 420.045,648.604 L 418.434,650.589 L 416.835,652.582 L 415.246,654.584 L 413.667,656.594 L 412.100,658.613 L 410.543,660.640 L 408.997,662.675 L 407.462,664.719 L 405.938,666.770 L 404.424,668.830 L 402.922,670.898 L 401.431,672.974 L 399.951,675.057 L 398.482,677.149 L 397.024,679.248 L 395.577,681.355 L 394.141,683.470 L 392.717,685.592 L 391.304,687.722 L 389.903,689.859 L 388.513,692.004 L 387.134,694.156 L 385.767,696.316 L 384.411,698.482 L 383.067,700.656 L 381.734,702.837 L 380.414,705.025 L 379.104,707.220 L 377.807,709.422 L 376.521,711.631 L 375.247,713.847 L 373.985,716.069 L 372.734,718.299 L 371.496,720.534 L 370.269,722.777 L 369.055,725.025 L 367.852,727.281 L 366.662,729.542 L 365.483,731.810 L 364.317,734.085" />
<path class="edge" stroke="#d55e00" d="M 364.317,734.085 L 361.218,732.505 L 358.119,730.926 L 355.019,729.347 L 351.920,727.768 L 348.821,726.189 L 345.722,724.610 L 342.623,723.031 L 339.524,721.452 L 336.424,719.873 L 333.325,718.294 L 330.226,716.714 L 327.127,715.135 L 324.028,713.556 L 320.929,711.977 L 317.830,710.398 L 314.730,708.819 L 311.631,707.240 L 308.532,705.661 L 305.433,704.082 L 302.334,702.503 L 299.235,700.924 L 296.135,699.344 L 293.036,697.765 L 292.361,699.095 L 291.690,700.426 L 291.022,701.759 L 290.357,703.093 L 289.696,704.430 L 289.039,705.768 L 288.385,707.108 L 287.735,708.450 L 287.088,709.793 L 286.445,711.138 L 285.806,712.485 L 285.170,713.833 L 284.538,715.184 L 283.909,716.536 L 283.284,717.889 L 282.662,719.244 L 282.045,720.601 L 281.430,721.960 L 280.820,723.320 L 280.213,724.682 L 279.609,726.045 L 279.009,727.410 L 278.413,728.776 L 277.821,730.145 L 277.232,731.514 L 276.647,732.886 L 276.065,734.258 L 275.487,735.633 L 274.913,737.009 L 274.343,738.386 L 273.776,739.765 L 273.213,741.146 L 272.653,742.528 L 272.097,743.911 L 271.545,745.296 L 270.997,746.682 L 270.452,748.070 L 269.911,749.459 L 269.373,750.850 L 268.840,752.242 L 268.310,753.636 L 267.783,755.031 L 267.261,756.427 L 266.742,757.825 L 266.227,759.224 L 265.715,760.624 L 265.208,762.026 L 264.704,763.429 L 264.204,764.834 L 263.707,766.240 L 263.215,767.647 L 262.726,769.055 L 262.241,770.465 L 261.759,771.876 L 261.281,773.289 L 260.807,774.702 L 260.337,776.117 L 259.871,777.533 L 259.408,778.950 L 256.100,777.876 L 252.792,776.801 L 249.484,775.726 L 246.176,774.651 L 242.868,773.576 L 239.560,772.501 L 236.252,771.427 L 232.944,770.352 L 229.636,769.277 L 226.328,768.202 L 223.020,767.127 L 219.712,766.052 L 216.404,764.978 L 213.096,763.903 L 209.788,762.828 L 206.480,761.753 L 203.172,760.678 L 199.864,759.603 L 196.556,758.528 L 193.248,757.454 L 189.940,756.379 L 186.632,755.304 L 183.324,754.229" />
<path class="edge" stroke="#d55e00" d="M 364.317,734.085 L 361.218,732.505 L 358.119,730.926 L 355.019,729.347 L 351.920,727.768 L 348.821,726.189 L 345.722,724.610 L 342.623,723.031 L 339.524,721.452 L 336.424,719.873 L 333.325,718.294 L 330.226,716.714 L 327.127,715.135 L 324.028,713.556 L 320.929,711.977 L 317.830,710.398 L 314.730,708.819 L 311.631,707.240 L 308.532,705.661 L 305.433,704.082 L 302.334,702.503 L 299.235,700.924 L 296.135,699.344 L 293.036,697.765 L 293.715,696.438 L 294.397,695.112 L 295.083,693.788 L 295.772,692.466 L 296.465,691.146 L 297.161,689.828 L 297.861,688.511 L 298.564,687.196 L 299.271,685.884 L 299.981,684.573 L 300.695,683.264 L 301.412,681.957 L 302.133,680.652 L 302.857,679.348 L 303.584,678.047 L 304.316,676.748 L 305.050,675.450 L 305.788,674.155 L 306.530,672.861 L 307.274,671.570 L 308.023,670.280 L 308.775,668.993 L 309.530,667.707 L 310.288,666.424 L 311.050,665.142 L 311.816,663.863 L 312.585,662.585 L 313.357,661.310 L 314.132,660.037 L 314.911,658.765 L 315.694,657.496 L 316.480,656.229 L 317.269,654.964 L 318.061,653.701 L 318.857,652.441 L 319.656,651.182 L 320.459,649.926 L 321.265,648.671 L 322.074,647.419 L 322.887,646.169 L 323.702,644.921 L 324.522,643.675 L 325.344,642.432 L 326.170,641.191 L 326.999,639.952 L 327.832,638.715 L 328.667,637.480 L 329.506,636.248 L 330.349,635.017 L 331.194,633.789 L 332.043,632.564 L 332.895,631.340 L 333.750,630.119 L 334.609,628.900 L 335.471,627.684 L 336.336,626.469 L 337.204,625.257 L 338.076,624.048 L 338.950,622.840 L 336.137,620.796 L 333.323,618.751 L 330.509,616.707 L 327.695,614.662 L 324.881,612.618 L 322.067,610.573 L 319.253,608.529 L 316.439,606.484 L 313.625,604.440 L 310.811,602.396 L 307.997,600.351 L 305.183,598.307 L 302.369,596.262 L 299.555,594.218 L 296.741,592.173 L 293.927,590.129 L 291.113,588.084 L 288.299,586.040 L 285.485,583.995 L 282.671,581.951 L 279.857,579.906 L 277.043,577.862 L 274.229,575.817" />
<path class="edge" stroke="#d55e00" d="M 565.726,725.726 L 560.807,720.807 L 555.888,715.888 L 550.969,710.969 L 546.050,706.050 L 541.131,701.131 L 536.212,696.212 L 531.293,691.293 L 526.374,686.374 L 521.455,681.455 L 516.536,676.536 L 511.617,671.617 L 506.698,666.698 L 501.779,661.779 L 496.860,656.860 L 491.941,651.941 L 487.022,647.022 L 482.103,642.103 L 477.184,637.184 L 472.265,632.265 L 467.346,627.346 L 462.427,622.427 L 457.508,617.508 L 452.589,612.589 L 454.401,610.786 L 456.222,608.994 L 458.054,607.210 L 459.894,605.437 L 461.744,603.674 L 463.604,601.920 L 465.472,600.176 L 467.350,598.443 L 469.238,596.719 L 471.134,595.006 L 473.039,593.302 L 474.954,591.609 L 476.877,589.926 L 478.810,588.253 L 480.751,586.590 L 482.701,584.938 L 484.660,583.297 L 486.628,581.665 L 488.604,580.045 L 490.589,578.434 L 492.582,576.835 L 494.584,575.246 L 496.594,573.667 L 498.613,572.100 L 500.640,570.543 L 502.675,568.997 L 504.719,567.462 L 506.770,565.938 L 508.830,564.424 L 510.898,562.922 L 512.974,561.431 L 515.057,559.951 L 517.149,558.482 L 519.248,557.024 L 521.355,555.577 L 523.470,554.141 L 525.592,552.717 L 527.722,551.304 L 529.859,549.903 L 532.004,548.513 L 534.156,547.134 L 536.316,545.767 L 538.482,544.411 L 540.656,543.067 L 542.837,541.734 L 545.025,540.414 L 547.220,539.104 L 549.422,537.807 L 551.631,536.521 L 553.847,535.247 L 556.069,533.985 L 558.299,532.734 L 560.534,531.496 L 562.777,530.269 L 565.025,529.055 L 567.281,527.852 L 569.542,526.662 L 571.810,525.483 L 574.085,524.317" />
<path class="edge" stroke="#d55e00" d="M 574.085,524.317 L 572.505,521.218 L 570.926,518.119 L 569.347,515.019 L 567.768,511.920 L 566.189,508.821 L 564.610,505.722 L 563.031,502.623 L 561.452,499.524 L 559.873,496.424 L 558.294,493.325 L 556.714,490.226 L 555.135,487.127 L 553.556,484.028 L 551.977,480.929 L 550.398,477.830 L 548.819,474.730 L 547.240,471.631 L 545.661,468.532 L 544.082,465.433 L 542.503,462.334 L 540.924,459.235 L 539.344,456.135 L 537.765,453.036 L 536.438,453.715 L 535.112,454.397 L 533.788,455.083 L 532.466,455.772 L 531.146,456.465 L 529.828,457.161 L 528.511,457.861 L 527.196,458.564 L 525.884,459.271 L 524.573,459.981 L 523.264,460.695 L 521.957,461.412 L 520.652,462.133 L 519.348,462.857 L 518.047,463.584 L 516.748,464.316 L 515.450,465.050 L 514.155,465.788 L 512.861,466.530 L 511.570,467.274 L 510.280,468.023 L 508.993,468.775 L 507.707,469.530 L 506.424,470.288 L 505.142,471.050 L 503.863,471.816 L 502.585,472.585 L 501.310,473.357 L 500.037,474.132 L 498.765,474.911 L 497.496,475.694 L 496.229,476.480 L 494.964,477.269 L 493.701,478.061 L 492.441,478.857 L 491.182,479.656 L 489.926,480.459 L 488.671,481.265 L 487.419,482.074 L 486.169,482.887 L 484.921,483.702 L 483.675,484.522 L 482.432,485.344 L 481.191,486.170 L 479.952,486.999 L 478.715,487.832 L 477.480,488.667 L 476.248,489.506 L 475.017,490.349 L 473.789,491.194 L 472.564,492.043 L 471.340,492.895 L 470.119,493.750 L 468.900,494.609 L 467.684,495.471 L 466.469,496.336 L 465.257,497.204 L 464.048,498.076 L 462.840,498.950 L 460.796,496.137 L 458.751,493.323 L 456.707,490.509 L 454.662,487.695 L 452.618,484.881 L 450.573,482.067 L 448.529,479.253 L 446.484,476.439 L 444.440,473.625 L 442.396,470.811 L 440.351,467.997 L 438.307,465.183 L 436.262,462.369 L 434.218,459.555 L 432.173,456.741 L 430.129,453.927 L 428.084,451.113 L 426.040,448.299 L 423.995,445.485 L 421.951,442.671 L 419.906,439.857 L 417.862,437.043 L 415.817,434.229" />
<path class="edge" stroke="#d55e00" d="M 574.085,524.317 L 572.505,521.218 L 570.926,518.119 L 569.347,515.019 L 567.768,511.920 L 566.189,508.821 L 564.610,505.722 L 563.031,502.623 L 561.452,499.524 L 559.873,496.424 L 558.294,493.325 L 556.714,490.226 L 555.135,487.127 L 553.556,484.028 L 551.977,480.929 L 550.398,477.830 L 548.819,474.730 L 547.240,471.631 L 545.661,468.532 L 544.082,465.433 L 542.503,462.334 L 540.924,459.235 L 539.344,456.135 L 537.765,453.036 L 539.095,452.361 L 540.426,451.690 L 541.759,451.022 L 543.093,450.357 L 544.430,449.696 L 545.768,449.039 L 547.108,448.385 L 548.450,447.735 L 549.793,447.088 L 551.138,446.445 L 552.485,445.806 L 553.833,445.170 L 555.184,444.538 L 556.536,443.909 L 557.889,443.284 L 559.244,442.662 L 560.601,442.045 L 561.960,441.430 L 563.320,440.820 L 564.682,440.213 L 566.045,439.609 L 567.410,439.009 L 568.776,438.413 L 570.145,437.821 L 571.514,437.232 L 572.886,436.647 L 574.258,436.065 L 575.633,435.487 L 577.009,434.913 L 578.386,434.343 L 579.765,433.776 L 581.146,433.213 L 582.528,432.653 L 583.911,432.097 L 585.296,431.545 L 586.682,430.997 L 588.070,430.452 L 589.459,429.911 L 590.850,429.373 L 592.242,428.840 L 593.636,428.310 L 595.031,427.783 L 596.427,427.261 L 597.825,426.742 L 599.224,426.227 L 600.624,425.715 L 602.026,425.208 L 603.429,424.704 L 604.834,424.204 L 606.240,423.707 L 607.647,423.215 L 609.055,422.726 L 610.465,422.241 L 611.876,421.759 L 613.289,421.281 L 614.702,420.807 L 616.117,420.337 L 617.533,419.871 L 618.950,419.408 L 617.876,416.100 L 616.801,412.792 L 615.726,409.484 L 614.651,406.176 L 613.576,402.868 L 612.501,399.560 L 611.427,396.252 L 610.352,392.944 L 609.277,389.636 L 608.202,386.328 L 607.127,383.020 L 606.052,379.712 L 604.978,376.404 L 603.903,373.096 L 602.828,369.788 L 601.753,366.480 L 600.678,363.172 L 599.603,359.864 L 598.528,356.556 L 597.454,353.248 L 596.379,349.940 L 595.304,346.632 L 594.229,343.324" />
<circle class="node" fill="#0f172a" cx="792.000" cy="952.000" r="6.000" />
<text class="label" x="786.438" y="969.119" font-size="12.000" fill="#111827" text-anchor="end" dominant-baseline="middle" transform="rotate(288.000 786.438 969.119)">Company</text>
<circle class="node" fill="#0072b2" cx="934.561" cy="1024.638" r="6.000" />
<text class="label" x="950.599" y="1032.810" font-size="12.000" fill="#0072b2" text-anchor="start" dominant-baseline="middle" transform="rotate(27.000 950.599 1032.810)">Product Division</text>
<circle class="node" fill="#0072b2" cx="1077.122" cy="806.723" r="6.000" />
<text class="label" x="1093.160" y="798.551" font-size="12.000" fill="#0072b2" text-anchor="start" dominant-baseline="middle" transform="rotate(-27.000 1093.160 798.551)">Platform</text>
<circle class="node" fill="#0072b2" cx="1009.915" cy="524.317" r="6.000" />
<text class="label" x="1018.087" y="508.279" font-size="12.000" fill="#0072b2" text-anchor="start" dominant-baseline="middle" transform="rotate(-63.000 1018.087 508.279)">Backend</text>
<circle class="node" fill="#0072b2" cx="892.118" cy="319.879" r="6.000" />
<text class="label" x="894.934" y="302.101" font-size="12.000" fill="#0072b2" text-anchor="start" dominant-baseline="middle" transform="rotate(-81.000 894.934 302.101)">API Team</text>
<circle class="node" fill="#0072b2" cx="792.000" cy="152.000" r="6.000" />
<text class="label" x="792.000" y="134.000" font-size="12.000" fill="#0072b2" text-anchor="start" dominant-baseline="middle" transform="rotate(-90.000 792.000 134.000)">Auth Service</text>
<circle class="node" fill="#0072b2" cx="1039.214" cy="191.155" r="6.000" />
<text class="label" x="1044.776" y="174.036" font-size="12.000" fill="#0072b2" text-anchor="start" dominant-baseline="middle" transform="rotate(-72.000 1044.776 174.036)">Billing Service</text>
<circle class="node" fill="#0072b2" cx="1244.548" cy="499.452" r="6.000" />
<text class="label" x="1257.276" y="486.724" font-size="12.000" fill="#0072b2" text-anchor="start" dominant-baseline="middle" transform="rotate(-45.000 1257.276 486.724)">Infra Team</text>
<circle class="node" fill="#0072b2" cx="1262.228" cy="304.786" r="6.000" />
<text class="label" x="1272.808" y="290.224" font-size="12.000" fill="#0072b2" text-anchor="start" dominant-baseline="middle" transform="rotate(-54.000 1272.808 290.224)">Kubernetes</text>
<circle class="node" fill="#0072b2" cx="1439.214" cy="481.772" r="6.000" />
<text class="label" x="1453.776" y="471.192" font-size="12.000" fill="#0072b2" text-anchor="start" dominant-baseline="middle" transform="rotate(-36.000 1453.776 471.192)">Observability</text>
<circle class="node" fill="#0072b2" cx="1266.090" cy="1027.089" r="6.000" />
<text class="label" x="1283.869" y="1029.904" font-size="12.000" fill="#0072b2" text-anchor="start" dominant-baseline="middle" transform="rotate(9.000 1283.869 1029.904)">Data</text>
<circle class="node" fill="#0072b2" cx="1424.121" cy="851.882" r="6.000" />
<text class="label" x="1441.899" y="849.066" font-size="12.000" fill="#0072b2" text-anchor="start" dominant-baseline="middle" transform="rotate(-9.000 1441.899 849.066)">Warehouse Team</text>
<circle class="node" fill="#0072b2" cx="1552.845" cy="704.786" r="6.000" />
<text class="label" x="1569.964" y="699.224" font-size="12.000" fill="#0072b2" text-anchor="start" dominant-baseline="middle" transform="rotate(-18.000 1569.964 699.224)">ETL Pipelines</text>
<circle class="node" fill="#0072b2" cx="1592.000" cy="952.000" r="6.000" />
<text class="label" x="1610.000" y="952.000" font-size="12.000" fill="#0072b2" text-anchor="start" dominant-baseline="middle" transform="rotate(0.000 1610.000 952.000)">Data Models</text>
<circle class="node" fill="#0072b2" cx="1362.244" cy="1242.554" r="6.000" />
<text class="label" x="1378.282" y="1250.726" font-size="12.000" fill="#0072b2" text-anchor="start" dominant-baseline="middle" transform="rotate(27.000 1378.282 1250.726)">ML Team</text>
<circle class="node" fill="#0072b2" cx="1552.845" cy="1199.214" r="6.000" />
<text class="label" x="1569.964" y="1204.776" font-size="12.000" fill="#0072b2" text-anchor="start" dominant-baseline="middle" transform="rotate(18.000 1569.964 1204.776)">Recommendations</text>
<circle class="node" fill="#0072b2" cx="1439.214" cy="1422.228" r="6.000" />
<text class="label" x="1453.776" y="1432.808" font-size="12.000" fill="#0072b2" text-anchor="start" dominant-baseline="middle" transform="rotate(36.000 1453.776 1432.808)">Forecasting Models</text>
<circle class="node" fill="#0072b2" cx="842.059" cy="1268.060" r="6.000" />
<text class="label" x="844.875" y="1285.839" font-size="12.000" fill="#0072b2" text-anchor="start" dominant-baseline="middle" transform="rotate(81.000 844.875 1285.839)">Applications</text>
<circle class="node" fill="#0072b2" cx="1009.915" cy="1379.683" r="6.000" />
<text class="label" x="1018.087" y="1395.721" font-size="12.000" fill="#0072b2" text-anchor="start" dominant-baseline="middle" transform="rotate(63.000 1018.087 1395.721)">Mobile</text>
<circle class="node" fill="#0072b2" cx="1168.183" cy="1469.771" r="6.000" />
<text class="label" x="1178.763" y="1484.333" font-size="12.000" fill="#0072b2" text-anchor="start" dominant-baseline="middle" transform="rotate(54.000 1178.763 1484.333)">iOS Squad</text>
<circle class="node" fill="#0072b2" cx="989.771" cy="1560.676" r="6.000" />
<text class="label" x="995.333" y="1577.795" font-size="12.000" fill="#0072b2" text-anchor="start" dominant-baseline="middle" transform="rotate(72.000 995.333 1577.795)">Android Squad</text>
<circle class="node" fill="#0072b2" cx="716.911" cy="1426.090" r="6.000" />
<text class="label" x="714.096" y="1443.869" font-size="12.000" fill="#0072b2" text-anchor="end" dominant-baseline="middle" transform="rotate(279.000 714.096 1443.869)">Web</text>
<circle class="node" fill="#0072b2" cx="792.000" cy="1592.000" r="6.000" />
<text class="label" x="792.000" y="1610.000" font-size="12.000" fill="#0072b2" text-anchor="start" dominant-baseline="middle" transform="rotate(90.000 792.000 1610.000)">Frontend Squad</text>
<circle class="node" fill="#0072b2" cx="594.229" cy="1560.676" r="6.000" />
<text class="label" x="588.667" y="1577.795" font-size="12.000" fill="#0072b2" text-anchor="end" dominant-baseline="middle" transform="rotate(288.000 588.667 1577.795)">Design Systems</text>
<circle class="node" fill="#d55e00" cx="633.970" cy="926.970" r="6.000" />
<text class="label" x="616.191" y="924.155" font-size="12.000" fill="#d55e00" text-anchor="end" dominant-baseline="middle" transform="rotate(9.000 616.191 924.155)">Operations Division</text>
<circle class="node" fill="#d55e00" cx="506.878" cy="1097.277" r="6.000" />
<text class="label" x="490.840" y="1105.449" font-size="12.000" fill="#d55e00" text-anchor="end" dominant-baseline="middle" transform="rotate(333.000 490.840 1105.449)">People Ops</text>
<circle class="node" fill="#d55e00" cx="452.589" cy="1291.411" r="6.000" />
<text class="label" x="439.861" y="1304.139" font-size="12.000" fill="#d55e00" text-anchor="end" dominant-baseline="middle" transform="rotate(315.000 439.861 1304.139)">Recruiting</text>
<circle class="node" fill="#d55e00" cx="415.817" cy="1469.771" r="6.000" />
<text class="label" x="405.237" y="1484.333" font-size="12.000" fill="#d55e00" text-anchor="end" dominant-baseline="middle" transform="rotate(306.000 405.237 1484.333)">Employer Brand</text>
<circle class="node" fill="#d55e00" cx="274.229" cy="1328.183" r="6.000" />
<text class="label" x="259.667" y="1338.763" font-size="12.000" fill="#d55e00" text-anchor="end" dominant-baseline="middle" transform="rotate(324.000 259.667 1338.763)">Sourcing</text>
<circle class="node" fill="#d55e00" cx="317.910" cy="1027.089" r="6.000" />
<text class="label" x="300.131" y="1029.904" font-size="12.000" fill="#d55e00" text-anchor="end" dominant-baseline="middle" transform="rotate(351.000 300.131 1029.904)">Learning</text>
<circle class="node" fill="#d55e00" cx="183.324" cy="1149.771" r="6.000" />
<text class="label" x="166.205" y="1155.333" font-size="12.000" fill="#d55e00" text-anchor="end" dominant-baseline="middle" transform="rotate(342.000 166.205 1155.333)">Onboarding</text>
<circle class="node" fill="#d55e00" cx="152.000" cy="952.000" r="6.000" />
<text class="label" x="134.000" y="952.000" font-size="12.000" fill="#d55e00" text-anchor="end" dominant-baseline="middle" transform="rotate(360.000 134.000 952.000)">Growth</text>
<circle class="node" fill="#d55e00" cx="565.726" cy="725.726" r="6.000" />
<text class="label" x="552.998" y="712.998" font-size="12.000" fill="#d55e00" text-anchor="end" dominant-baseline="middle" transform="rotate(45.000 552.998 712.998)">Finance Ops</text>
<circle class="node" fill="#d55e00" cx="364.317" cy="734.085" r="6.000" />
<text class="label" x="348.279" y="725.913" font-size="12.000" fill="#d55e00" text-anchor="end" dominant-baseline="middle" transform="rotate(27.000 348.279 725.913)">Budgeting</text>
<circle class="node" fill="#d55e00" cx="183.324" cy="754.229" r="6.000" />
<text class="label" x="166.205" y="748.667" font-size="12.000" fill="#d55e00" text-anchor="end" dominant-baseline="middle" transform="rotate(378.000 166.205 748.667)">Forecasting</text>
<circle class="node" fill="#d55e00" cx="274.229" cy="575.817" r="6.000" />
<text class="label" x="259.667" y="565.237" font-size="12.000" fill="#d55e00" text-anchor="end" dominant-baseline="middle" transform="rotate(396.000 259.667 565.237)">Controls</text>
<circle class="node" fill="#d55e00" cx="574.085" cy="524.317" r="6.000" />
<text class="label" x="565.913" y="508.279" font-size="12.000" fill="#d55e00" text-anchor="end" dominant-baseline="middle" transform="rotate(63.000 565.913 508.279)">Reporting</text>
<circle class="node" fill="#d55e00" cx="415.817" cy="434.229" r="6.000" />
<text class="label" x="405.237" y="419.667" font-size="12.000" fill="#d55e00" text-anchor="end" dominant-baseline="middle" transform="rotate(414.000 405.237 419.667)">Internal Reporting</text>
<circle class="node" fill="#d55e00" cx="594.229" cy="343.324" r="6.000" />
<text class="label" x="588.667" y="326.205" font-size="12.000" fill="#d55e00" text-anchor="end" dominant-baseline="middle" transform="rotate(432.000 588.667 326.205)">External Reporting</text>
</svg>
