<svg xmlns="http://www.w3.org/2000/svg" viewBox="0 0 754.000 784.000" width="754.000" height="784.000" role="img">
<title>Dendrogram</title>
<style>
.edge { fill: none; stroke-width: 2.000; stroke-linecap: round; }
.node { }
.label { font-family: Helvetica, Arial, sans-serif; }
.legend { font-family: Helvetica, Arial, sans-serif; }
.legend-title { font-weight: 700; }
</style>
<path class="edge" stroke="#64748b"  d="M 422.000,152.000 L 416.130,158.957 L 410.261,165.913 L 404.391,172.870 L 398.522,179.826 L 392.652,186.783 L 386.783,193.739 L 380.913,200.696 L 375.043,207.652 L 369.174,214.609 L 363.304,221.565 L 357.435,228.522 L 351.565,235.478 L 345.696,242.435 L 339.826,249.391 L 333.957,256.348 L 328.087,263.304 L 322.217,270.261 L 316.348,277.217 L 310.478,284.174 L 304.609,291.130 L 298.739,298.087 L 292.870,305.043 L 287.000,312.000"></path>
<path class="edge" stroke="#66c2a5"  d="M 287.000,312.000 L 283.087,318.957 L 279.174,325.913 L 275.261,332.870 L 271.348,339.826 L 267.435,346.783 L 263.522,353.739 L 259.609,360.696 L 255.696,367.652 L 251.783,374.609 L 247.870,381.565 L 243.957,388.522 L 240.043,395.478 L 236.130,402.435 L 232.217,409.391 L 228.304,416.348 L 224.391,423.304 L 220.478,430.261 L 216.565,437.217 L 212.652,444.174 L 208.739,451.130 L 204.826,458.087 L 200.913,465.043 L 197.000,472.000"></path>
<path class="edge" stroke="#66c2a5"  d="M 197.000,472.000 L 195.043,478.957 L 193.087,485.913 L 191.130,492.870 L 189.174,499.826 L 187.217,506.783 L 185.261,513.739 L 183.304,520.696 L 181.348,527.652 L 179.391,534.609 L 177.435,541.565 L 175.478,548.522 L 173.522,555.478 L 171.565,562.435 L 169.609,569.391 L 167.652,576.348 L 165.696,583.304 L 163.739,590.261 L 161.783,597.217 L 159.826,604.174 L 157.870,611.130 L 155.913,618.087 L 153.957,625.043 L 152.000,632.000"></path>
<path class="edge" stroke="#66c2a5"  d="M 197.000,472.000 L 198.957,478.957 L 200.913,485.913 L 202.870,492.870 L 204.826,499.826 L 206.783,506.783 L 208.739,513.739 L 210.696,520.696 L 212.652,527.652 L 214.609,534.609 L 216.565,541.565 L 218.522,548.522 L 220.478,555.478 L 222.435,562.435 L 224.391,569.391 L 226.348,576.348 L 228.304,583.304 L 230.261,590.261 L 232.217,597.217 L 234.174,604.174 L 236.130,611.130 L 238.087,618.087 L 240.043,625.043 L 242.000,632.000"></path>
<path class="edge" stroke="#fc8d62"  d="M 287.000,312.000 L 290.913,318.957 L 294.826,325.913 L 298.739,332.870 L 302.652,339.826 L 306.565,346.783 L 310.478,353.739 L 314.391,360.696 L 318.304,367.652 L 322.217,374.609 L 326.130,381.565 L 330.043,388.522 L 333.957,395.478 L 337.870,402.435 L 341.783,409.391 L 345.696,416.348 L 349.609,423.304 L 353.522,430.261 L 357.435,437.217 L 361.348,444.174 L 365.261,451.130 L 369.174,458.087 L 373.087,465.043 L 377.000,472.000"></path>
<path class="edge" stroke="#fc8d62"  d="M 377.000,472.000 L 375.043,478.957 L 373.087,485.913 L 371.130,492.870 L 369.174,499.826 L 367.217,506.783 L 365.261,513.739 L 363.304,520.696 L 361.348,527.652 L 359.391,534.609 L 357.435,541.565 L 355.478,548.522 L 353.522,555.478 L 351.565,562.435 L 349.609,569.391 L 347.652,576.348 L 345.696,583.304 L 343.739,590.261 L 341.783,597.217 L 339.826,604.174 L 337.870,611.130 L 335.913,618.087 L 333.957,625.043 L 332.000,632.000"></path>
<path class="edge" stroke="#fc8d62"  d="M 377.000,472.000 L 378.957,478.957 L 380.913,485.913 L 382.870,492.870 L 384.826,499.826 L 386.783,506.783 L 388.739,513.739 L 390.696,520.696 L 392.652,527.652 L 394.609,534.609 L 396.565,541.565 L 398.522,548.522 L 400.478,555.478 L 402.435,562.435 L 404.391,569.391 L 406.348,576.348 L 408.304,583.304 L 410.261,590.261 L 412.217,597.217 L 414.174,604.174 L 416.130,611.130 L 418.087,618.087 L 420.043,625.043 L 422.000,632.000"></path>
<path class="edge" stroke="#64748b"  d="M 422.000,152.000 L 427.870,158.957 L 433.739,165.913 L 439.609,172.870 L 445.478,179.826 L 451.348,186.783 L 457.217,193.739 L 463.087,200.696 L 468.957,207.652 L 474.826,214.609 L 480.696,221.565 L 486.565,228.522 L 492.435,235.478 L 498.304,242.435 L 504.174,249.391 L 510.043,256.348 L 515.913,263.304 L 521.783,270.261 L 527.652,277.217 L 533.522,284.174 L 539.391,291.130 L 545.261,298.087 L 551.130,305.043 L 557.000,312.000"></path>
<path class="edge" stroke="#8da0cb"  d="M 557.000,312.000 L 555.043,318.957 L 553.087,325.913 L 551.130,332.870 L 549.174,339.826 L 547.217,346.783 L 545.261,353.739 L 543.304,360.696 L 541.348,367.652 L 539.391,374.609 L 537.435,381.565 L 535.478,388.522 L 533.522,395.478 L 531.565,402.435 L 529.609,409.391 L 527.652,416.348 L 525.696,423.304 L 523.739,430.261 L 521.783,437.217 L 519.826,444.174 L 517.870,451.130 L 515.913,458.087 L 513.957,465.043 L 512.000,472.000"></path>
<path class="edge" stroke="#e78ac3"  d="M 557.000,312.000 L 558.957,318.957 L 560.913,325.913 L 562.870,332.870 L 564.826,339.826 L 566.783,346.783 L 568.739,353.739 L 570.696,360.696 L 572.652,367.652 L 574.609,374.609 L 576.565,381.565 L 578.522,388.522 L 580.478,395.478 L 582.435,402.435 L 584.391,409.391 L 586.348,416.348 L 588.304,423.304 L 590.261,430.261 L 592.217,437.217 L 594.174,444.174 L 596.130,451.130 L 598.087,458.087 L 600.043,465.043 L 602.000,472.000"></path>
<circle class="node" fill="#64748b"  cx="422.000" cy="152.000" r="6.000"></circle>
<text class="label"  x="446.000" y="152.000" font-size="12.000" fill="#64748b" text-anchor="start" dominant-baseline="middle">Life</text>
<circle class="node" fill="#64748b"  cx="287.000" cy="312.000" r="6.000"></circle>
<text class="label"  x="311.000" y="312.000" font-size="12.000" fill="#64748b" text-anchor="start" dominant-baseline="middle">Animals</text>
<circle class="node" fill="#66c2a5"  cx="197.000" cy="472.000" r="6.000"></circle>
<text class="label"  x="221.000" y="472.000" font-size="12.000" fill="#66c2a5" text-anchor="start" dominant-baseline="middle">Mammals</text>
<circle class="node" fill="#66c2a5"  cx="152.000" cy="632.000" r="6.000"></circle>
<text class="label"  x="0" y="0" font-size="12.000" fill="#66c2a5" text-anchor="middle" dominant-baseline="middle" transform="translate(152.000 666.800) rotate(270.000)">Fox</text>
<circle class="node" fill="#66c2a5"  cx="242.000" cy="632.000" r="6.000"></circle>
<text class="label"  x="0" y="0" font-size="12.000" fill="#66c2a5" text-anchor="middle" dominant-baseline="middle" transform="translate(242.000 674.000) rotate(270.000)">Whale</text>
<circle class="node" fill="#fc8d62"  cx="377.000" cy="472.000" r="6.000"></circle>
<text class="label"  x="401.000" y="472.000" font-size="12.000" fill="#fc8d62" text-anchor="start" dominant-baseline="middle">Birds</text>
<circle class="node" fill="#fc8d62"  cx="332.000" cy="632.000" r="6.000"></circle>
<text class="label"  x="0" y="0" font-size="12.000" fill="#fc8d62" text-anchor="middle" dominant-baseline="middle" transform="translate(332.000 674.000) rotate(270.000)">Eagle</text>
<circle class="node" fill="#fc8d62"  cx="422.000" cy="632.000" r="6.000"></circle>
<text class="label"  x="0" y="0" font-size="12.000" fill="#fc8d62" text-anchor="middle" dominant-baseline="middle" transform="translate(422.000 681.200) rotate(270.000)">Sparrow</text>
<circle class="node" fill="#64748b"  cx="557.000" cy="312.000" r="6.000"></circle>
<text class="label"  x="581.000" y="312.000" font-size="12.000" fill="#64748b" text-anchor="start" dominant-baseline="middle">Plants</text>
<circle class="node" fill="#8da0cb"  cx="512.000" cy="472.000" r="6.000"></circle>
<text class="label"  x="0" y="0" font-size="12.000" fill="#8da0cb" text-anchor="middle" dominant-baseline="middle" transform="translate(512.000 506.800) rotate(270.000)">Oak</text>
<circle class="node" fill="#e78ac3"  cx="602.000" cy="472.000" r="6.000"></circle>
<text class="label"  x="0" y="0" font-size="12.000" fill="#e78ac3" text-anchor="middle" dominant-baseline="middle" transform="translate(602.000 510.400) rotate(270.000)">Rose</text>

</svg>
