<svg xmlns="http://www.w3.org/2000/svg" viewBox="0 0 1756.000 1756.000" width="1756.000" height="1756.000" role="img">
<title>Dendrogram</title>
<style>
.edge { fill: none; stroke-width: 2.000; stroke-linecap: round; }
.node { }
.label { font-family: Helvetica, Arial, sans-serif; }
.legend { font-family: Helvetica, Arial, sans-serif; }
.legend-title { font-weight: 700; }
</style>
<path class="edge" stroke="#64748b"  d="M 798.000,958.000 L 795.850,964.616 L 793.701,971.232 L 791.551,977.848 L 789.401,984.464 L 787.252,991.080 L 785.102,997.696 L 782.952,1004.312 L 780.803,1010.928 L 778.653,1017.544 L 776.503,1024.160 L 774.353,1030.776 L 772.204,1037.393 L 770.054,1044.009 L 767.904,1050.625 L 765.755,1057.241 L 763.605,1063.857 L 761.455,1070.473 L 759.306,1077.089 L 757.156,1083.705 L 755.006,1090.321 L 752.857,1096.937 L 750.707,1103.553 L 748.557,1110.169 L 752.217,1111.310 L 755.904,1112.363 L 759.614,1113.327 L 763.347,1114.202 L 767.099,1114.988 L 770.869,1115.683 L 774.655,1116.288 L 778.454,1116.802 L 782.264,1117.224 L 786.084,1117.556 L 789.910,1117.795 L 793.741,1117.943 L 797.574,1117.999 L 801.408,1117.964 L 805.239,1117.836 L 809.067,1117.617 L 812.888,1117.306 L 816.700,1116.903 L 820.502,1116.410 L 824.291,1115.825 L 828.065,1115.150 L 831.821,1114.385 L 835.558,1113.529 L 839.274,1112.585 L 842.966,1111.552 L 846.632,1110.430 L 850.270,1109.221 L 853.878,1107.925 L 857.454,1106.544 L 860.996,1105.077 L 864.502,1103.525 L 867.969,1101.890 L 871.397,1100.172 L 874.782,1098.373 L 878.123,1096.493 L 881.418,1094.534 L 884.665,1092.496 L 887.863,1090.381 L 891.009,1088.190 L 894.101,1085.924 L 897.139,1083.585 L 900.119,1081.173 L 903.041,1078.691 L 905.902,1076.140 L 908.702,1073.521 L 911.438,1070.835 L 914.109,1068.085 L 916.713,1065.272 L 919.249,1062.397 L 921.715,1059.462 L 924.111,1056.469 L 926.434,1053.419 L 928.683,1050.314 L 930.857,1047.157 L 932.955,1043.948 L 934.976,1040.690 L 936.918,1037.384 L 938.780,1034.033 L 940.561,1030.638"></path>
<path class="edge" stroke="#66c2a5"  d="M 940.561,1030.638 L 946.759,1033.797 L 952.958,1036.955 L 959.156,1040.113 L 965.354,1043.271 L 971.553,1046.429 L 977.751,1049.588 L 983.949,1052.746 L 990.147,1055.904 L 996.346,1059.062 L 1002.544,1062.220 L 1008.742,1065.379 L 1014.941,1068.537 L 1021.139,1071.695 L 1027.337,1074.853 L 1033.536,1078.011 L 1039.734,1081.170 L 1045.932,1084.328 L 1052.131,1087.486 L 1058.329,1090.644 L 1064.527,1093.802 L 1070.725,1096.961 L 1076.924,1100.119 L 1083.122,1103.277 L 1085.406,1098.704 L 1087.617,1094.095 L 1089.754,1089.452 L 1091.817,1084.774 L 1093.804,1080.065 L 1095.716,1075.324 L 1097.552,1070.554 L 1099.312,1065.755 L 1100.995,1060.928 L 1102.600,1056.075 L 1104.128,1051.197 L 1105.578,1046.295 L 1106.949,1041.371 L 1108.241,1036.425 L 1109.454,1031.459 L 1110.588,1026.475 L 1111.642,1021.473 L 1112.616,1016.455 L 1113.509,1011.422 L 1114.322,1006.375 L 1115.055,1001.316 L 1115.706,996.246 L 1116.277,991.167 L 1116.766,986.078 L 1117.174,980.983 L 1117.500,975.882 L 1117.745,970.776 L 1117.908,965.667 L 1117.990,960.556 L 1117.990,955.444 L 1117.908,950.333 L 1117.745,945.224 L 1117.500,940.118 L 1117.174,935.017 L 1116.766,929.922 L 1116.277,924.833 L 1115.706,919.754 L 1115.055,914.684 L 1114.322,909.625 L 1113.509,904.578 L 1112.616,899.545 L 1111.642,894.527 L 1110.588,889.525 L 1109.454,884.541 L 1108.241,879.575 L 1106.949,874.629 L 1105.578,869.705 L 1104.128,864.803 L 1102.600,859.925 L 1100.995,855.072 L 1099.312,850.245 L 1097.552,845.446 L 1095.716,840.676 L 1093.804,835.935 L 1091.817,831.226 L 1089.754,826.548 L 1087.617,821.905 L 1085.406,817.296 L 1083.122,812.723"></path>
<path class="edge" stroke="#66c2a5"  d="M 1083.122,812.723 L 1089.320,809.565 L 1095.519,806.407 L 1101.717,803.248 L 1107.915,800.090 L 1114.114,796.932 L 1120.312,793.774 L 1126.510,790.616 L 1132.709,787.457 L 1138.907,784.299 L 1145.105,781.141 L 1151.303,777.983 L 1157.502,774.825 L 1163.700,771.667 L 1169.898,768.508 L 1176.097,765.350 L 1182.295,762.192 L 1188.493,759.034 L 1194.692,755.876 L 1200.890,752.717 L 1207.088,749.559 L 1213.287,746.401 L 1219.485,743.243 L 1225.683,740.085 L 1223.338,735.542 L 1220.945,731.025 L 1218.504,726.534 L 1216.015,722.069 L 1213.479,717.631 L 1210.896,713.220 L 1208.266,708.837 L 1205.589,704.482 L 1202.866,700.156 L 1200.097,695.859 L 1197.283,691.592 L 1194.423,687.355 L 1191.518,683.149 L 1188.569,678.974 L 1185.576,674.830 L 1182.538,670.719 L 1179.457,666.640 L 1176.333,662.594 L 1173.165,658.582 L 1169.955,654.604 L 1166.703,650.660 L 1163.410,646.751 L 1160.074,642.877 L 1156.698,639.039 L 1153.281,635.238 L 1149.824,631.472 L 1146.326,627.744 L 1142.790,624.054 L 1139.214,620.401 L 1135.599,616.786 L 1131.946,613.210 L 1128.256,609.674 L 1124.528,606.176 L 1120.762,602.719 L 1116.961,599.302 L 1113.123,595.926 L 1109.249,592.590 L 1105.340,589.297 L 1101.396,586.045 L 1097.418,582.835 L 1093.406,579.667 L 1089.360,576.543 L 1085.281,573.462 L 1081.170,570.424 L 1077.026,567.431 L 1072.851,564.482 L 1068.645,561.577 L 1064.408,558.717 L 1060.141,555.903 L 1055.844,553.134 L 1051.518,550.411 L 1047.163,547.734 L 1042.780,545.104 L 1038.369,542.521 L 1033.931,539.985 L 1029.466,537.496 L 1024.975,535.055 L 1020.458,532.662 L 1015.915,530.317"></path>
<path class="edge" stroke="#66c2a5"  d="M 1015.915,530.317 L 1019.074,524.119 L 1022.232,517.920 L 1025.390,511.722 L 1028.548,505.524 L 1031.706,499.325 L 1034.865,493.127 L 1038.023,486.929 L 1041.181,480.730 L 1044.339,474.532 L 1047.497,468.334 L 1050.656,462.135 L 1053.814,455.937 L 1056.972,449.739 L 1060.130,443.541 L 1063.288,437.342 L 1066.447,431.144 L 1069.605,424.946 L 1072.763,418.747 L 1075.921,412.549 L 1079.079,406.351 L 1082.238,400.152 L 1085.396,393.954 L 1088.554,387.756 L 1085.513,386.217 L 1082.465,384.694 L 1079.408,383.187 L 1076.343,381.697 L 1073.271,380.223 L 1070.190,378.766 L 1067.102,377.325 L 1064.007,375.900 L 1060.903,374.492 L 1057.792,373.100 L 1054.674,371.725 L 1051.549,370.367 L 1048.416,369.025 L 1045.277,367.700 L 1042.130,366.392 L 1038.976,365.100 L 1035.816,363.825 L 1032.649,362.567 L 1029.475,361.326 L 1026.295,360.102 L 1023.108,358.895 L 1019.915,357.705 L 1016.715,356.532 L 1013.509,355.376 L 1010.297,354.237 L 1007.080,353.115 L 1003.856,352.010 L 1000.626,350.923 L 997.391,349.853 L 994.150,348.799 L 990.903,347.764 L 987.651,346.745 L 984.394,345.744 L 981.131,344.760 L 977.863,343.794 L 974.590,342.845 L 971.312,341.913 L 968.029,340.999 L 964.741,340.102 L 961.449,339.223 L 958.152,338.362 L 954.850,337.518 L 951.544,336.691 L 948.233,335.883 L 944.919,335.092 L 941.600,334.318 L 938.277,333.562 L 934.950,332.824 L 931.619,332.104 L 928.284,331.401 L 924.946,330.716 L 921.604,330.049 L 918.259,329.400 L 914.910,328.769 L 911.558,328.155 L 908.202,327.559 L 904.844,326.981 L 901.482,326.422 L 898.118,325.879"></path>
<path class="edge" stroke="#66c2a5"  d="M 898.118,325.879 L 898.662,322.444 L 899.206,319.009 L 899.750,315.573 L 900.295,312.138 L 900.839,308.702 L 901.383,305.267 L 901.927,301.831 L 902.471,298.396 L 903.015,294.961 L 903.559,291.525 L 904.103,288.090 L 904.647,284.654 L 905.192,281.219 L 905.736,277.783 L 906.280,274.348 L 906.824,270.912 L 907.368,267.477 L 907.912,264.042 L 908.456,260.606 L 909.000,257.171 L 909.545,253.735 L 910.089,250.300 L 910.633,246.864 L 908.739,246.567 L 906.845,246.275 L 904.949,245.987 L 903.053,245.705 L 901.157,245.428 L 899.259,245.156 L 897.361,244.889 L 895.462,244.627 L 893.562,244.370 L 891.662,244.118 L 889.761,243.871 L 887.860,243.629 L 885.957,243.393 L 884.054,243.161 L 882.151,242.935 L 880.247,242.713 L 878.342,242.497 L 876.437,242.285 L 874.531,242.079 L 872.625,241.878 L 870.718,241.682 L 868.811,241.491 L 866.903,241.305 L 864.995,241.124 L 863.086,240.948 L 861.176,240.777 L 859.267,240.611 L 857.357,240.451 L 855.446,240.295 L 853.535,240.145 L 851.624,240.000 L 849.712,239.859 L 847.800,239.724 L 845.887,239.594 L 843.974,239.469 L 842.061,239.349 L 840.148,239.235 L 838.234,239.125 L 836.320,239.020 L 834.406,238.921 L 832.491,238.827 L 830.576,238.737 L 828.661,238.653 L 826.746,238.574 L 824.830,238.500 L 822.915,238.431 L 820.999,238.367 L 819.083,238.309 L 817.167,238.255 L 815.250,238.207 L 813.334,238.163 L 811.418,238.125 L 809.501,238.092 L 807.584,238.064 L 805.667,238.041 L 803.751,238.023 L 801.834,238.010 L 799.917,238.003 L 798.000,238.000 L 798.000,234.522 L 798.000,231.043 L 798.000,227.565 L 798.000,224.087 L 798.000,220.609 L 798.000,217.130 L 798.000,213.652 L 798.000,210.174 L 798.000,206.696 L 798.000,203.217 L 798.000,199.739 L 798.000,196.261 L 798.000,192.783 L 798.000,189.304 L 798.000,185.826 L 798.000,182.348 L 798.000,178.870 L 798.000,175.391 L 798.000,171.913 L 798.000,168.435 L 798.000,164.957 L 798.000,161.478 L 798.000,158.000"></path>
<path class="edge" stroke="#66c2a5"  d="M 898.118,325.879 L 898.662,322.444 L 899.206,319.009 L 899.750,315.573 L 900.295,312.138 L 900.839,308.702 L 901.383,305.267 L 901.927,301.831 L 902.471,298.396 L 903.015,294.961 L 903.559,291.525 L 904.103,288.090 L 904.647,284.654 L 905.192,281.219 L 905.736,277.783 L 906.280,274.348 L 906.824,270.912 L 907.368,267.477 L 907.912,264.042 L 908.456,260.606 L 909.000,257.171 L 909.545,253.735 L 910.089,250.300 L 910.633,246.864 L 912.526,247.167 L 914.418,247.474 L 916.309,247.787 L 918.199,248.104 L 920.089,248.427 L 921.978,248.754 L 923.866,249.087 L 925.753,249.424 L 927.639,249.767 L 929.524,250.115 L 931.408,250.467 L 933.291,250.825 L 935.173,251.188 L 937.055,251.556 L 938.935,251.928 L 940.814,252.306 L 942.693,252.689 L 944.570,253.076 L 946.446,253.469 L 948.321,253.867 L 950.195,254.270 L 952.069,254.677 L 953.940,255.090 L 955.811,255.508 L 957.681,255.930 L 959.550,256.358 L 961.417,256.790 L 963.283,257.228 L 965.149,257.671 L 967.012,258.118 L 968.875,258.570 L 970.737,259.028 L 972.597,259.490 L 974.456,259.958 L 976.314,260.430 L 978.170,260.907 L 980.026,261.389 L 981.880,261.876 L 983.732,262.368 L 985.584,262.865 L 987.434,263.367 L 989.283,263.874 L 991.130,264.386 L 992.976,264.902 L 994.820,265.424 L 996.664,265.950 L 998.505,266.482 L 1000.346,267.018 L 1002.185,267.559 L 1004.022,268.105 L 1005.858,268.656 L 1007.693,269.212 L 1009.526,269.773 L 1011.357,270.338 L 1013.187,270.909 L 1015.016,271.484 L 1016.843,272.064 L 1018.668,272.649 L 1020.492,273.239 L 1021.567,269.931 L 1022.642,266.623 L 1023.717,263.315 L 1024.792,260.007 L 1025.866,256.699 L 1026.941,253.391 L 1028.016,250.083 L 1029.091,246.775 L 1030.166,243.467 L 1031.241,240.159 L 1032.315,236.851 L 1033.390,233.543 L 1034.465,230.235 L 1035.540,226.927 L 1036.615,223.619 L 1037.690,220.311 L 1038.765,217.003 L 1039.839,213.695 L 1040.914,210.387 L 1041.989,207.079 L 1043.064,203.771 L 1044.139,200.463 L 1045.214,197.155"></path>
<path class="edge" stroke="#66c2a5"  d="M 1015.915,530.317 L 1019.074,524.119 L 1022.232,517.920 L 1025.390,511.722 L 1028.548,505.524 L 1031.706,499.325 L 1034.865,493.127 L 1038.023,486.929 L 1041.181,480.730 L 1044.339,474.532 L 1047.497,468.334 L 1050.656,462.135 L 1053.814,455.937 L 1056.972,449.739 L 1060.130,443.541 L 1063.288,437.342 L 1066.447,431.144 L 1069.605,424.946 L 1072.763,418.747 L 1075.921,412.549 L 1079.079,406.351 L 1082.238,400.152 L 1085.396,393.954 L 1088.554,387.756 L 1091.586,389.311 L 1094.610,390.882 L 1097.626,392.470 L 1100.633,394.073 L 1103.631,395.693 L 1106.621,397.328 L 1109.602,398.979 L 1112.574,400.646 L 1115.537,402.329 L 1118.492,404.028 L 1121.437,405.742 L 1124.373,407.472 L 1127.300,409.218 L 1130.217,410.979 L 1133.125,412.756 L 1136.024,414.548 L 1138.913,416.356 L 1141.792,418.179 L 1144.661,420.017 L 1147.521,421.870 L 1150.371,423.739 L 1153.211,425.623 L 1156.040,427.522 L 1158.860,429.436 L 1161.669,431.365 L 1164.468,433.309 L 1167.257,435.267 L 1170.035,437.241 L 1172.803,439.229 L 1175.560,441.232 L 1178.306,443.250 L 1181.042,445.283 L 1183.766,447.329 L 1186.480,449.391 L 1189.183,451.466 L 1191.874,453.557 L 1194.555,455.661 L 1197.224,457.780 L 1199.882,459.912 L 1202.528,462.059 L 1205.163,464.220 L 1207.787,466.396 L 1210.398,468.584 L 1212.999,470.787 L 1215.587,473.004 L 1218.163,475.234 L 1220.728,477.478 L 1223.281,479.736 L 1225.821,482.007 L 1228.350,484.292 L 1230.866,486.590 L 1233.370,488.902 L 1235.862,491.227 L 1238.341,493.565 L 1240.808,495.916 L 1243.262,498.281 L 1245.703,500.658 L 1248.132,503.048 L 1250.548,505.452"></path>
<path class="edge" stroke="#66c2a5"  d="M 1250.548,505.452 L 1253.008,502.992 L 1255.467,500.533 L 1257.927,498.073 L 1260.386,495.614 L 1262.846,493.154 L 1265.305,490.695 L 1267.765,488.235 L 1270.224,485.776 L 1272.684,483.316 L 1275.143,480.857 L 1277.603,478.397 L 1280.062,475.938 L 1282.522,473.478 L 1284.981,471.019 L 1287.441,468.559 L 1289.900,466.100 L 1292.360,463.640 L 1294.819,461.181 L 1297.279,458.721 L 1299.738,456.262 L 1302.198,453.802 L 1304.657,451.343 L 1307.117,448.883 L 1305.760,447.529 L 1304.399,446.179 L 1303.034,444.833 L 1301.666,443.490 L 1300.295,442.151 L 1298.920,440.816 L 1297.541,439.484 L 1296.159,438.156 L 1294.773,436.831 L 1293.384,435.511 L 1291.991,434.194 L 1290.594,432.880 L 1289.195,431.571 L 1287.791,430.265 L 1286.385,428.963 L 1284.974,427.664 L 1283.561,426.370 L 1282.144,425.079 L 1280.723,423.792 L 1279.299,422.508 L 1277.872,421.229 L 1276.441,419.953 L 1275.007,418.681 L 1273.569,417.413 L 1272.128,416.149 L 1270.684,414.889 L 1269.236,413.632 L 1267.785,412.379 L 1266.331,411.131 L 1264.873,409.886 L 1263.412,408.645 L 1261.948,407.408 L 1260.481,406.174 L 1259.010,404.945 L 1257.536,403.720 L 1256.058,402.498 L 1254.578,401.280 L 1253.094,400.067 L 1251.607,398.857 L 1250.117,397.652 L 1248.623,396.450 L 1247.127,395.252 L 1245.627,394.058 L 1244.124,392.869 L 1242.618,391.683 L 1241.108,390.501 L 1239.596,389.323 L 1238.080,388.150 L 1236.562,386.980 L 1235.040,385.815 L 1233.515,384.653 L 1231.987,383.496 L 1230.456,382.342 L 1228.922,381.193 L 1227.384,380.048 L 1225.844,378.906 L 1224.301,377.769 L 1222.755,376.637 L 1221.205,375.508 L 1223.250,372.694 L 1225.294,369.880 L 1227.339,367.066 L 1229.383,364.252 L 1231.428,361.438 L 1233.472,358.624 L 1235.517,355.810 L 1237.561,352.996 L 1239.606,350.182 L 1241.650,347.368 L 1243.695,344.554 L 1245.739,341.740 L 1247.783,338.926 L 1249.828,336.112 L 1251.872,333.298 L 1253.917,330.484 L 1255.961,327.670 L 1258.006,324.856 L 1260.050,322.042 L 1262.095,319.228 L 1264.139,316.414 L 1266.184,313.600 L 1268.228,310.786"></path>
<path class="edge" stroke="#66c2a5"  d="M 1250.548,505.452 L 1253.008,502.992 L 1255.467,500.533 L 1257.927,498.073 L 1260.386,495.614 L 1262.846,493.154 L 1265.305,490.695 L 1267.765,488.235 L 1270.224,485.776 L 1272.684,483.316 L 1275.143,480.857 L 1277.603,478.397 L 1280.062,475.938 L 1282.522,473.478 L 1284.981,471.019 L 1287.441,468.559 L 1289.900,466.100 L 1292.360,463.640 L 1294.819,461.181 L 1297.279,458.721 L 1299.738,456.262 L 1302.198,453.802 L 1304.657,451.343 L 1307.117,448.883 L 1308.471,450.240 L 1309.821,451.601 L 1311.167,452.966 L 1312.510,454.334 L 1313.849,455.705 L 1315.184,457.080 L 1316.516,458.459 L 1317.844,459.841 L 1319.169,461.227 L 1320.489,462.616 L 1321.806,464.009 L 1323.120,465.406 L 1324.429,466.805 L 1325.735,468.209 L 1327.037,469.615 L 1328.336,471.026 L 1329.630,472.439 L 1330.921,473.856 L 1332.208,475.277 L 1333.492,476.701 L 1334.771,478.128 L 1336.047,479.559 L 1337.319,480.993 L 1338.587,482.431 L 1339.851,483.872 L 1341.111,485.316 L 1342.368,486.764 L 1343.621,488.215 L 1344.869,489.669 L 1346.114,491.127 L 1347.355,492.588 L 1348.592,494.052 L 1349.826,495.519 L 1351.055,496.990 L 1352.280,498.464 L 1353.502,499.942 L 1354.720,501.422 L 1355.933,502.906 L 1357.143,504.393 L 1358.348,505.883 L 1359.550,507.377 L 1360.748,508.873 L 1361.942,510.373 L 1363.131,511.876 L 1364.317,513.382 L 1365.499,514.892 L 1366.677,516.404 L 1367.850,517.920 L 1369.020,519.438 L 1370.185,520.960 L 1371.347,522.485 L 1372.504,524.013 L 1373.658,525.544 L 1374.807,527.078 L 1375.952,528.616 L 1377.094,530.156 L 1378.231,531.699 L 1379.363,533.245 L 1380.492,534.795 L 1383.306,532.750 L 1386.120,530.706 L 1388.934,528.661 L 1391.748,526.617 L 1394.562,524.572 L 1397.376,522.528 L 1400.190,520.483 L 1403.004,518.439 L 1405.818,516.394 L 1408.632,514.350 L 1411.446,512.305 L 1414.260,510.261 L 1417.074,508.217 L 1419.888,506.172 L 1422.702,504.128 L 1425.516,502.083 L 1428.330,500.039 L 1431.144,497.994 L 1433.958,495.950 L 1436.772,493.905 L 1439.586,491.861 L 1442.400,489.816 L 1445.214,487.772"></path>
<path class="edge" stroke="#66c2a5"  d="M 1083.122,812.723 L 1089.320,809.565 L 1095.519,806.407 L 1101.717,803.248 L 1107.915,800.090 L 1114.114,796.932 L 1120.312,793.774 L 1126.510,790.616 L 1132.709,787.457 L 1138.907,784.299 L 1145.105,781.141 L 1151.303,777.983 L 1157.502,774.825 L 1163.700,771.667 L 1169.898,768.508 L 1176.097,765.350 L 1182.295,762.192 L 1188.493,759.034 L 1194.692,755.876 L 1200.890,752.717 L 1207.088,749.559 L 1213.287,746.401 L 1219.485,743.243 L 1225.683,740.085 L 1227.980,744.651 L 1230.227,749.242 L 1232.426,753.857 L 1234.575,758.495 L 1236.675,763.156 L 1238.725,767.838 L 1240.725,772.542 L 1242.675,777.268 L 1244.574,782.013 L 1246.423,786.779 L 1248.221,791.564 L 1249.968,796.368 L 1251.664,801.190 L 1253.308,806.030 L 1254.900,810.888 L 1256.441,815.762 L 1257.930,820.652 L 1259.366,825.558 L 1260.751,830.478 L 1262.082,835.413 L 1263.362,840.363 L 1264.588,845.325 L 1265.761,850.300 L 1266.882,855.288 L 1267.949,860.287 L 1268.963,865.297 L 1269.923,870.318 L 1270.830,875.348 L 1271.684,880.388 L 1272.484,885.437 L 1273.229,890.494 L 1273.921,895.559 L 1274.559,900.630 L 1275.143,905.709 L 1275.673,910.793 L 1276.149,915.882 L 1276.570,920.977 L 1276.937,926.075 L 1277.250,931.177 L 1277.508,936.283 L 1277.713,941.390 L 1277.862,946.500 L 1277.957,951.611 L 1277.998,956.722 L 1277.985,961.834 L 1277.917,966.945 L 1277.794,972.055 L 1277.617,977.164 L 1277.386,982.270 L 1277.100,987.374 L 1276.760,992.475 L 1276.366,997.571 L 1275.918,1002.663 L 1275.415,1007.750 L 1274.858,1012.831 L 1274.247,1017.906 L 1273.582,1022.975 L 1272.863,1028.036 L 1272.090,1033.089"></path>
<path class="edge" stroke="#66c2a5"  d="M 1272.090,1033.089 L 1278.961,1034.177 L 1285.832,1035.265 L 1292.703,1036.353 L 1299.574,1037.442 L 1306.445,1038.530 L 1313.316,1039.618 L 1320.187,1040.706 L 1327.057,1041.794 L 1333.928,1042.883 L 1340.799,1043.971 L 1347.670,1045.059 L 1354.541,1046.147 L 1361.412,1047.236 L 1368.283,1048.324 L 1375.154,1049.412 L 1382.024,1050.500 L 1388.895,1051.589 L 1395.766,1052.677 L 1402.637,1053.765 L 1409.508,1054.853 L 1416.379,1055.942 L 1423.250,1057.030 L 1430.121,1058.118 L 1430.645,1054.751 L 1431.151,1051.381 L 1431.639,1048.008 L 1432.109,1044.633 L 1432.562,1041.255 L 1432.996,1037.875 L 1433.412,1034.493 L 1433.811,1031.108 L 1434.191,1027.722 L 1434.553,1024.333 L 1434.897,1020.943 L 1435.223,1017.551 L 1435.531,1014.157 L 1435.821,1010.761 L 1436.093,1007.364 L 1436.347,1003.966 L 1436.583,1000.566 L 1436.800,997.166 L 1437.000,993.764 L 1437.181,990.361 L 1437.345,986.957 L 1437.490,983.552 L 1437.617,980.146 L 1437.726,976.740 L 1437.816,973.334 L 1437.889,969.927 L 1437.943,966.519 L 1437.980,963.112 L 1437.998,959.704 L 1437.998,956.296 L 1437.980,952.888 L 1437.943,949.481 L 1437.889,946.073 L 1437.816,942.666 L 1437.726,939.260 L 1437.617,935.854 L 1437.490,932.448 L 1437.345,929.043 L 1437.181,925.639 L 1437.000,922.236 L 1436.800,918.834 L 1436.583,915.434 L 1436.347,912.034 L 1436.093,908.636 L 1435.821,905.239 L 1435.531,901.843 L 1435.223,898.449 L 1434.897,895.057 L 1434.553,891.667 L 1434.191,888.278 L 1433.811,884.892 L 1433.412,881.507 L 1432.996,878.125 L 1432.562,874.745 L 1432.109,871.367 L 1431.639,867.992 L 1431.151,864.619 L 1430.645,861.249 L 1430.121,857.882"></path>
<path class="edge" stroke="#66c2a5"  d="M 1430.121,857.882 L 1433.556,857.338 L 1436.991,856.794 L 1440.427,856.250 L 1443.862,855.705 L 1447.298,855.161 L 1450.733,854.617 L 1454.169,854.073 L 1457.604,853.529 L 1461.039,852.985 L 1464.475,852.441 L 1467.910,851.897 L 1471.346,851.353 L 1474.781,850.808 L 1478.217,850.264 L 1481.652,849.720 L 1485.088,849.176 L 1488.523,848.632 L 1491.958,848.088 L 1495.394,847.544 L 1498.829,847.000 L 1502.265,846.455 L 1505.700,845.911 L 1509.136,845.367 L 1508.833,843.474 L 1508.526,841.582 L 1508.213,839.691 L 1507.896,837.801 L 1507.573,835.911 L 1507.246,834.022 L 1506.913,832.134 L 1506.576,830.247 L 1506.233,828.361 L 1505.885,826.476 L 1505.533,824.592 L 1505.175,822.709 L 1504.812,820.827 L 1504.444,818.945 L 1504.072,817.065 L 1503.694,815.186 L 1503.311,813.307 L 1502.924,811.430 L 1502.531,809.554 L 1502.133,807.679 L 1501.730,805.805 L 1501.323,803.931 L 1500.910,802.060 L 1500.492,800.189 L 1500.070,798.319 L 1499.642,796.450 L 1499.210,794.583 L 1498.772,792.717 L 1498.329,790.851 L 1497.882,788.988 L 1497.430,787.125 L 1496.972,785.263 L 1496.510,783.403 L 1496.042,781.544 L 1495.570,779.686 L 1495.093,777.830 L 1494.611,775.974 L 1494.124,774.120 L 1493.632,772.268 L 1493.135,770.416 L 1492.633,768.566 L 1492.126,766.717 L 1491.614,764.870 L 1491.098,763.024 L 1490.576,761.180 L 1490.050,759.336 L 1489.518,757.495 L 1488.982,755.654 L 1488.441,753.815 L 1487.895,751.978 L 1487.344,750.142 L 1486.788,748.307 L 1486.227,746.474 L 1485.662,744.643 L 1485.091,742.813 L 1484.516,740.984 L 1483.936,739.157 L 1483.351,737.332 L 1482.761,735.508 L 1486.069,734.433 L 1489.377,733.358 L 1492.685,732.283 L 1495.993,731.208 L 1499.301,730.134 L 1502.609,729.059 L 1505.917,727.984 L 1509.225,726.909 L 1512.533,725.834 L 1515.841,724.759 L 1519.149,723.685 L 1522.457,722.610 L 1525.765,721.535 L 1529.073,720.460 L 1532.381,719.385 L 1535.689,718.310 L 1538.997,717.235 L 1542.305,716.161 L 1545.613,715.086 L 1548.921,714.011 L 1552.229,712.936 L 1555.537,711.861 L 1558.845,710.786"></path>
<path class="edge" stroke="#66c2a5"  d="M 1430.121,857.882 L 1433.556,857.338 L 1436.991,856.794 L 1440.427,856.250 L 1443.862,855.705 L 1447.298,855.161 L 1450.733,854.617 L 1454.169,854.073 L 1457.604,853.529 L 1461.039,852.985 L 1464.475,852.441 L 1467.910,851.897 L 1471.346,851.353 L 1474.781,850.808 L 1478.217,850.264 L 1481.652,849.720 L 1485.088,849.176 L 1488.523,848.632 L 1491.958,848.088 L 1495.394,847.544 L 1498.829,847.000 L 1502.265,846.455 L 1505.700,845.911 L 1509.136,845.367 L 1509.433,847.261 L 1509.725,849.155 L 1510.013,851.051 L 1510.295,852.947 L 1510.572,854.843 L 1510.844,856.741 L 1511.111,858.639 L 1511.373,860.538 L 1511.630,862.438 L 1511.882,864.338 L 1512.129,866.239 L 1512.371,868.140 L 1512.607,870.043 L 1512.839,871.946 L 1513.065,873.849 L 1513.287,875.753 L 1513.503,877.658 L 1513.715,879.563 L 1513.921,881.469 L 1514.122,883.375 L 1514.318,885.282 L 1514.509,887.189 L 1514.695,889.097 L 1514.876,891.005 L 1515.052,892.914 L 1515.223,894.824 L 1515.389,896.733 L 1515.549,898.643 L 1515.705,900.554 L 1515.855,902.465 L 1516.000,904.376 L 1516.141,906.288 L 1516.276,908.200 L 1516.406,910.113 L 1516.531,912.026 L 1516.651,913.939 L 1516.765,915.852 L 1516.875,917.766 L 1516.980,919.680 L 1517.079,921.594 L 1517.173,923.509 L 1517.263,925.424 L 1517.347,927.339 L 1517.426,929.254 L 1517.500,931.170 L 1517.569,933.085 L 1517.633,935.001 L 1517.691,936.917 L 1517.745,938.833 L 1517.793,940.750 L 1517.837,942.666 L 1517.875,944.582 L 1517.908,946.499 L 1517.936,948.416 L 1517.959,950.333 L 1517.977,952.249 L 1517.990,954.166 L 1517.997,956.083 L 1518.000,958.000 L 1521.478,958.000 L 1524.957,958.000 L 1528.435,958.000 L 1531.913,958.000 L 1535.391,958.000 L 1538.870,958.000 L 1542.348,958.000 L 1545.826,958.000 L 1549.304,958.000 L 1552.783,958.000 L 1556.261,958.000 L 1559.739,958.000 L 1563.217,958.000 L 1566.696,958.000 L 1570.174,958.000 L 1573.652,958.000 L 1577.130,958.000 L 1580.609,958.000 L 1584.087,958.000 L 1587.565,958.000 L 1591.043,958.000 L 1594.522,958.000 L 1598.000,958.000"></path>
<path class="edge" stroke="#66c2a5"  d="M 1272.090,1033.089 L 1278.961,1034.177 L 1285.832,1035.265 L 1292.703,1036.353 L 1299.574,1037.442 L 1306.445,1038.530 L 1313.316,1039.618 L 1320.187,1040.706 L 1327.057,1041.794 L 1333.928,1042.883 L 1340.799,1043.971 L 1347.670,1045.059 L 1354.541,1046.147 L 1361.412,1047.236 L 1368.283,1048.324 L 1375.154,1049.412 L 1382.024,1050.500 L 1388.895,1051.589 L 1395.766,1052.677 L 1402.637,1053.765 L 1409.508,1054.853 L 1416.379,1055.942 L 1423.250,1057.030 L 1430.121,1058.118 L 1429.578,1061.482 L 1429.019,1064.844 L 1428.441,1068.202 L 1427.845,1071.558 L 1427.231,1074.910 L 1426.600,1078.259 L 1425.951,1081.604 L 1425.284,1084.946 L 1424.599,1088.284 L 1423.896,1091.619 L 1423.176,1094.950 L 1422.438,1098.277 L 1421.682,1101.600 L 1420.908,1104.919 L 1420.117,1108.233 L 1419.309,1111.544 L 1418.482,1114.850 L 1417.638,1118.152 L 1416.777,1121.449 L 1415.898,1124.741 L 1415.001,1128.029 L 1414.087,1131.312 L 1413.155,1134.590 L 1412.206,1137.863 L 1411.240,1141.131 L 1410.256,1144.394 L 1409.255,1147.651 L 1408.236,1150.903 L 1407.201,1154.150 L 1406.147,1157.391 L 1405.077,1160.626 L 1403.990,1163.856 L 1402.885,1167.080 L 1401.763,1170.297 L 1400.624,1173.509 L 1399.468,1176.715 L 1398.295,1179.915 L 1397.105,1183.108 L 1395.898,1186.295 L 1394.674,1189.475 L 1393.433,1192.649 L 1392.175,1195.816 L 1390.900,1198.976 L 1389.608,1202.130 L 1388.300,1205.277 L 1386.975,1208.416 L 1385.633,1211.549 L 1384.275,1214.674 L 1382.900,1217.792 L 1381.508,1220.903 L 1380.100,1224.007 L 1378.675,1227.102 L 1377.234,1230.190 L 1375.777,1233.271 L 1374.303,1236.343 L 1372.813,1239.408 L 1371.306,1242.465 L 1369.783,1245.513 L 1368.244,1248.554"></path>
<path class="edge" stroke="#66c2a5"  d="M 1368.244,1248.554 L 1371.343,1250.133 L 1374.442,1251.712 L 1377.542,1253.291 L 1380.641,1254.870 L 1383.740,1256.449 L 1386.839,1258.029 L 1389.938,1259.608 L 1393.037,1261.187 L 1396.137,1262.766 L 1399.236,1264.345 L 1402.335,1265.924 L 1405.434,1267.503 L 1408.533,1269.082 L 1411.632,1270.661 L 1414.731,1272.240 L 1417.831,1273.819 L 1420.930,1275.399 L 1424.029,1276.978 L 1427.128,1278.557 L 1430.227,1280.136 L 1433.326,1281.715 L 1436.426,1283.294 L 1439.525,1284.873 L 1440.393,1283.164 L 1441.256,1281.453 L 1442.115,1279.739 L 1442.969,1278.023 L 1443.819,1276.305 L 1444.664,1274.584 L 1445.505,1272.861 L 1446.341,1271.136 L 1447.172,1269.409 L 1447.999,1267.680 L 1448.821,1265.948 L 1449.639,1264.214 L 1450.452,1262.478 L 1451.260,1260.740 L 1452.064,1259.000 L 1452.863,1257.257 L 1453.657,1255.513 L 1454.447,1253.766 L 1455.232,1252.017 L 1456.012,1250.267 L 1456.788,1248.514 L 1457.559,1246.759 L 1458.326,1245.002 L 1459.087,1243.243 L 1459.845,1241.482 L 1460.597,1239.718 L 1461.345,1237.953 L 1462.088,1236.186 L 1462.826,1234.417 L 1463.559,1232.646 L 1464.288,1230.873 L 1465.012,1229.099 L 1465.732,1227.322 L 1466.446,1225.543 L 1467.156,1223.762 L 1467.862,1221.980 L 1468.562,1220.196 L 1469.258,1218.409 L 1469.949,1216.621 L 1470.635,1214.831 L 1471.316,1213.040 L 1471.993,1211.246 L 1472.665,1209.451 L 1473.332,1207.654 L 1473.994,1205.855 L 1474.652,1204.054 L 1475.304,1202.252 L 1475.952,1200.448 L 1476.595,1198.642 L 1477.233,1196.835 L 1477.867,1195.025 L 1478.496,1193.214 L 1479.119,1191.402 L 1479.738,1189.588 L 1480.352,1187.772 L 1480.962,1185.954 L 1481.566,1184.135 L 1482.166,1182.315 L 1482.761,1180.492 L 1486.069,1181.567 L 1489.377,1182.642 L 1492.685,1183.717 L 1495.993,1184.792 L 1499.301,1185.866 L 1502.609,1186.941 L 1505.917,1188.016 L 1509.225,1189.091 L 1512.533,1190.166 L 1515.841,1191.241 L 1519.149,1192.315 L 1522.457,1193.390 L 1525.765,1194.465 L 1529.073,1195.540 L 1532.381,1196.615 L 1535.689,1197.690 L 1538.997,1198.765 L 1542.305,1199.839 L 1545.613,1200.914 L 1548.921,1201.989 L 1552.229,1203.064 L 1555.537,1204.139 L 1558.845,1205.214"></path>
<path class="edge" stroke="#66c2a5"  d="M 1368.244,1248.554 L 1371.343,1250.133 L 1374.442,1251.712 L 1377.542,1253.291 L 1380.641,1254.870 L 1383.740,1256.449 L 1386.839,1258.029 L 1389.938,1259.608 L 1393.037,1261.187 L 1396.137,1262.766 L 1399.236,1264.345 L 1402.335,1265.924 L 1405.434,1267.503 L 1408.533,1269.082 L 1411.632,1270.661 L 1414.731,1272.240 L 1417.831,1273.819 L 1420.930,1275.399 L 1424.029,1276.978 L 1427.128,1278.557 L 1430.227,1280.136 L 1433.326,1281.715 L 1436.426,1283.294 L 1439.525,1284.873 L 1438.652,1286.580 L 1437.775,1288.284 L 1436.893,1289.987 L 1436.007,1291.686 L 1435.117,1293.384 L 1434.222,1295.079 L 1433.322,1296.772 L 1432.418,1298.462 L 1431.509,1300.150 L 1430.596,1301.835 L 1429.678,1303.518 L 1428.756,1305.199 L 1427.829,1306.877 L 1426.898,1308.552 L 1425.963,1310.225 L 1425.023,1311.896 L 1424.078,1313.564 L 1423.130,1315.230 L 1422.176,1316.893 L 1421.219,1318.553 L 1420.256,1320.211 L 1419.290,1321.867 L 1418.319,1323.519 L 1417.344,1325.170 L 1416.364,1326.817 L 1415.380,1328.462 L 1414.391,1330.105 L 1413.398,1331.744 L 1412.401,1333.381 L 1411.400,1335.016 L 1410.394,1336.648 L 1409.383,1338.277 L 1408.369,1339.903 L 1407.350,1341.527 L 1406.327,1343.148 L 1405.299,1344.766 L 1404.267,1346.381 L 1403.231,1347.994 L 1402.191,1349.604 L 1401.146,1351.211 L 1400.097,1352.816 L 1399.044,1354.417 L 1397.986,1356.016 L 1396.924,1357.612 L 1395.858,1359.205 L 1394.788,1360.795 L 1393.713,1362.383 L 1392.635,1363.967 L 1391.552,1365.549 L 1390.465,1367.128 L 1389.373,1368.704 L 1388.278,1370.277 L 1387.178,1371.847 L 1386.074,1373.414 L 1384.966,1374.978 L 1383.854,1376.540 L 1382.737,1378.098 L 1381.617,1379.653 L 1380.492,1381.205 L 1383.306,1383.250 L 1386.120,1385.294 L 1388.934,1387.339 L 1391.748,1389.383 L 1394.562,1391.428 L 1397.376,1393.472 L 1400.190,1395.517 L 1403.004,1397.561 L 1405.818,1399.606 L 1408.632,1401.650 L 1411.446,1403.695 L 1414.260,1405.739 L 1417.074,1407.783 L 1419.888,1409.828 L 1422.702,1411.872 L 1425.516,1413.917 L 1428.330,1415.961 L 1431.144,1418.006 L 1433.958,1420.050 L 1436.772,1422.095 L 1439.586,1424.139 L 1442.400,1426.184 L 1445.214,1428.228"></path>
<path class="edge" stroke="#fc8d62"  d="M 940.561,1030.638 L 946.759,1033.797 L 952.958,1036.955 L 959.156,1040.113 L 965.354,1043.271 L 971.553,1046.429 L 977.751,1049.588 L 983.949,1052.746 L 990.147,1055.904 L 996.346,1059.062 L 1002.544,1062.220 L 1008.742,1065.379 L 1014.941,1068.537 L 1021.139,1071.695 L 1027.337,1074.853 L 1033.536,1078.011 L 1039.734,1081.170 L 1045.932,1084.328 L 1052.131,1087.486 L 1058.329,1090.644 L 1064.527,1093.802 L 1070.725,1096.961 L 1076.924,1100.119 L 1083.122,1103.277 L 1080.765,1107.813 L 1078.336,1112.310 L 1075.835,1116.769 L 1073.264,1121.186 L 1070.622,1125.563 L 1067.911,1129.896 L 1065.130,1134.185 L 1062.282,1138.430 L 1059.366,1142.628 L 1056.384,1146.780 L 1053.335,1150.883 L 1050.222,1154.937 L 1047.044,1158.941 L 1043.802,1162.893 L 1040.498,1166.793 L 1037.132,1170.640 L 1033.705,1174.433 L 1030.218,1178.170 L 1026.671,1181.852 L 1023.066,1185.476 L 1019.404,1189.042 L 1015.685,1192.549 L 1011.911,1195.996 L 1008.082,1199.383 L 1004.199,1202.708 L 1000.264,1205.970 L 996.277,1209.170 L 992.240,1212.305 L 988.153,1215.375 L 984.018,1218.379 L 979.835,1221.318 L 975.605,1224.189 L 971.331,1226.992 L 967.012,1229.726 L 962.650,1232.391 L 958.246,1234.986 L 953.801,1237.510 L 949.316,1239.963 L 944.793,1242.344 L 940.232,1244.653 L 935.635,1246.888 L 931.003,1249.050 L 926.337,1251.137 L 921.638,1253.150 L 916.908,1255.087 L 912.147,1256.949 L 907.357,1258.734 L 902.540,1260.442 L 897.695,1262.074 L 892.825,1263.627 L 887.931,1265.103 L 883.014,1266.500 L 878.076,1267.819 L 873.117,1269.059 L 868.138,1270.219 L 863.142,1271.299 L 858.129,1272.300 L 853.101,1273.220 L 848.059,1274.060"></path>
<path class="edge" stroke="#fc8d62"  d="M 848.059,1274.060 L 849.147,1280.931 L 850.236,1287.802 L 851.324,1294.673 L 852.412,1301.544 L 853.500,1308.415 L 854.588,1315.286 L 855.677,1322.156 L 856.765,1329.027 L 857.853,1335.898 L 858.941,1342.769 L 860.030,1349.640 L 861.118,1356.511 L 862.206,1363.382 L 863.294,1370.253 L 864.383,1377.123 L 865.471,1383.994 L 866.559,1390.865 L 867.647,1397.736 L 868.736,1404.607 L 869.824,1411.478 L 870.912,1418.349 L 872.000,1425.220 L 873.089,1432.090 L 875.612,1431.684 L 878.133,1431.264 L 880.652,1430.830 L 883.168,1430.384 L 885.682,1429.923 L 888.194,1429.450 L 890.703,1428.963 L 893.210,1428.463 L 895.713,1427.949 L 898.214,1427.422 L 900.712,1426.882 L 903.208,1426.328 L 905.700,1425.761 L 908.189,1425.181 L 910.675,1424.588 L 913.158,1423.981 L 915.637,1423.362 L 918.114,1422.729 L 920.587,1422.082 L 923.056,1421.423 L 925.522,1420.751 L 927.984,1420.065 L 930.442,1419.366 L 932.897,1418.655 L 935.348,1417.930 L 937.795,1417.192 L 940.238,1416.441 L 942.677,1415.677 L 945.112,1414.900 L 947.543,1414.111 L 949.970,1413.308 L 952.392,1412.492 L 954.810,1411.664 L 957.223,1410.822 L 959.632,1409.968 L 962.036,1409.101 L 964.436,1408.221 L 966.831,1407.329 L 969.221,1406.423 L 971.606,1405.505 L 973.987,1404.574 L 976.362,1403.631 L 978.732,1402.675 L 981.098,1401.706 L 983.458,1400.725 L 985.812,1399.731 L 988.162,1398.725 L 990.506,1397.706 L 992.844,1396.675 L 995.177,1395.631 L 997.505,1394.575 L 999.827,1393.507 L 1002.143,1392.426 L 1004.453,1391.333 L 1006.758,1390.227 L 1009.056,1389.109 L 1011.349,1387.980 L 1013.635,1386.837 L 1015.915,1385.683"></path>
<path class="edge" stroke="#fc8d62"  d="M 1015.915,1385.683 L 1017.495,1388.782 L 1019.074,1391.881 L 1020.653,1394.981 L 1022.232,1398.080 L 1023.811,1401.179 L 1025.390,1404.278 L 1026.969,1407.377 L 1028.548,1410.476 L 1030.127,1413.576 L 1031.706,1416.675 L 1033.286,1419.774 L 1034.865,1422.873 L 1036.444,1425.972 L 1038.023,1429.071 L 1039.602,1432.170 L 1041.181,1435.270 L 1042.760,1438.369 L 1044.339,1441.468 L 1045.918,1444.567 L 1047.497,1447.666 L 1049.076,1450.765 L 1050.656,1453.865 L 1052.235,1456.964 L 1053.562,1456.285 L 1054.888,1455.603 L 1056.212,1454.917 L 1057.534,1454.228 L 1058.854,1453.535 L 1060.172,1452.839 L 1061.489,1452.139 L 1062.804,1451.436 L 1064.116,1450.729 L 1065.427,1450.019 L 1066.736,1449.305 L 1068.043,1448.588 L 1069.348,1447.867 L 1070.652,1447.143 L 1071.953,1446.416 L 1073.252,1445.684 L 1074.550,1444.950 L 1075.845,1444.212 L 1077.139,1443.470 L 1078.430,1442.726 L 1079.720,1441.977 L 1081.007,1441.225 L 1082.293,1440.470 L 1083.576,1439.712 L 1084.858,1438.950 L 1086.137,1438.184 L 1087.415,1437.415 L 1088.690,1436.643 L 1089.963,1435.868 L 1091.235,1435.089 L 1092.504,1434.306 L 1093.771,1433.520 L 1095.036,1432.731 L 1096.299,1431.939 L 1097.559,1431.143 L 1098.818,1430.344 L 1100.074,1429.541 L 1101.329,1428.735 L 1102.581,1427.926 L 1103.831,1427.113 L 1105.079,1426.298 L 1106.325,1425.478 L 1107.568,1424.656 L 1108.809,1423.830 L 1110.048,1423.001 L 1111.285,1422.168 L 1112.520,1421.333 L 1113.752,1420.494 L 1114.983,1419.651 L 1116.211,1418.806 L 1117.436,1417.957 L 1118.660,1417.105 L 1119.881,1416.250 L 1121.100,1415.391 L 1122.316,1414.529 L 1123.531,1413.664 L 1124.743,1412.796 L 1125.952,1411.924 L 1127.160,1411.050 L 1129.204,1413.863 L 1131.249,1416.677 L 1133.293,1419.491 L 1135.338,1422.305 L 1137.382,1425.119 L 1139.427,1427.933 L 1141.471,1430.747 L 1143.516,1433.561 L 1145.560,1436.375 L 1147.604,1439.189 L 1149.649,1442.003 L 1151.693,1444.817 L 1153.738,1447.631 L 1155.782,1450.445 L 1157.827,1453.259 L 1159.871,1456.073 L 1161.916,1458.887 L 1163.960,1461.701 L 1166.005,1464.515 L 1168.049,1467.329 L 1170.094,1470.143 L 1172.138,1472.957 L 1174.183,1475.771"></path>
<path class="edge" stroke="#fc8d62"  d="M 1015.915,1385.683 L 1017.495,1388.782 L 1019.074,1391.881 L 1020.653,1394.981 L 1022.232,1398.080 L 1023.811,1401.179 L 1025.390,1404.278 L 1026.969,1407.377 L 1028.548,1410.476 L 1030.127,1413.576 L 1031.706,1416.675 L 1033.286,1419.774 L 1034.865,1422.873 L 1036.444,1425.972 L 1038.023,1429.071 L 1039.602,1432.170 L 1041.181,1435.270 L 1042.760,1438.369 L 1044.339,1441.468 L 1045.918,1444.567 L 1047.497,1447.666 L 1049.076,1450.765 L 1050.656,1453.865 L 1052.235,1456.964 L 1050.905,1457.639 L 1049.574,1458.310 L 1048.241,1458.978 L 1046.907,1459.643 L 1045.570,1460.304 L 1044.232,1460.961 L 1042.892,1461.615 L 1041.550,1462.265 L 1040.207,1462.912 L 1038.862,1463.555 L 1037.515,1464.194 L 1036.167,1464.830 L 1034.816,1465.462 L 1033.464,1466.091 L 1032.111,1466.716 L 1030.756,1467.338 L 1029.399,1467.955 L 1028.040,1468.570 L 1026.680,1469.180 L 1025.318,1469.787 L 1023.955,1470.391 L 1022.590,1470.991 L 1021.224,1471.587 L 1019.855,1472.179 L 1018.486,1472.768 L 1017.114,1473.353 L 1015.742,1473.935 L 1014.367,1474.513 L 1012.991,1475.087 L 1011.614,1475.657 L 1010.235,1476.224 L 1008.854,1476.787 L 1007.472,1477.347 L 1006.089,1477.903 L 1004.704,1478.455 L 1003.318,1479.003 L 1001.930,1479.548 L 1000.541,1480.089 L 999.150,1480.627 L 997.758,1481.160 L 996.364,1481.690 L 994.969,1482.217 L 993.573,1482.739 L 992.175,1483.258 L 990.776,1483.773 L 989.376,1484.285 L 987.974,1484.792 L 986.571,1485.296 L 985.166,1485.796 L 983.760,1486.293 L 982.353,1486.785 L 980.945,1487.274 L 979.535,1487.759 L 978.124,1488.241 L 976.711,1488.719 L 975.298,1489.193 L 973.883,1489.663 L 972.467,1490.129 L 971.050,1490.592 L 972.124,1493.900 L 973.199,1497.208 L 974.274,1500.516 L 975.349,1503.824 L 976.424,1507.132 L 977.499,1510.440 L 978.573,1513.748 L 979.648,1517.056 L 980.723,1520.364 L 981.798,1523.672 L 982.873,1526.980 L 983.948,1530.288 L 985.022,1533.596 L 986.097,1536.904 L 987.172,1540.212 L 988.247,1543.520 L 989.322,1546.828 L 990.397,1550.136 L 991.472,1553.444 L 992.546,1556.752 L 993.621,1560.060 L 994.696,1563.368 L 995.771,1566.676"></path>
<path class="edge" stroke="#fc8d62"  d="M 848.059,1274.060 L 849.147,1280.931 L 850.236,1287.802 L 851.324,1294.673 L 852.412,1301.544 L 853.500,1308.415 L 854.588,1315.286 L 855.677,1322.156 L 856.765,1329.027 L 857.853,1335.898 L 858.941,1342.769 L 860.030,1349.640 L 861.118,1356.511 L 862.206,1363.382 L 863.294,1370.253 L 864.383,1377.123 L 865.471,1383.994 L 866.559,1390.865 L 867.647,1397.736 L 868.736,1404.607 L 869.824,1411.478 L 870.912,1418.349 L 872.000,1425.220 L 873.089,1432.090 L 870.563,1432.484 L 868.036,1432.863 L 865.506,1433.229 L 862.975,1433.582 L 860.441,1433.921 L 857.906,1434.247 L 855.370,1434.559 L 852.831,1434.858 L 850.291,1435.143 L 847.750,1435.415 L 845.207,1435.673 L 842.663,1435.918 L 840.118,1436.149 L 837.571,1436.366 L 835.023,1436.570 L 832.475,1436.760 L 829.925,1436.937 L 827.374,1437.100 L 824.823,1437.250 L 822.270,1437.386 L 819.717,1437.508 L 817.164,1437.617 L 814.610,1437.713 L 812.055,1437.794 L 809.500,1437.862 L 806.945,1437.917 L 804.389,1437.957 L 801.834,1437.985 L 799.278,1437.998 L 796.722,1437.998 L 794.166,1437.985 L 791.611,1437.957 L 789.055,1437.917 L 786.500,1437.862 L 783.945,1437.794 L 781.390,1437.713 L 778.836,1437.617 L 776.283,1437.508 L 773.730,1437.386 L 771.177,1437.250 L 768.626,1437.100 L 766.075,1436.937 L 763.525,1436.760 L 760.977,1436.570 L 758.429,1436.366 L 755.882,1436.149 L 753.337,1435.918 L 750.793,1435.673 L 748.250,1435.415 L 745.709,1435.143 L 743.169,1434.858 L 740.630,1434.559 L 738.094,1434.247 L 735.559,1433.921 L 733.025,1433.582 L 730.494,1433.229 L 727.964,1432.863 L 725.437,1432.484 L 722.911,1432.090"></path>
<path class="edge" stroke="#fc8d62"  d="M 722.911,1432.090 L 722.367,1435.526 L 721.823,1438.961 L 721.279,1442.397 L 720.735,1445.832 L 720.191,1449.268 L 719.647,1452.703 L 719.103,1456.138 L 718.558,1459.574 L 718.014,1463.009 L 717.470,1466.445 L 716.926,1469.880 L 716.382,1473.316 L 715.838,1476.751 L 715.294,1480.187 L 714.750,1483.622 L 714.206,1487.057 L 713.661,1490.493 L 713.117,1493.928 L 712.573,1497.364 L 712.029,1500.799 L 711.485,1504.235 L 710.941,1507.670 L 710.397,1511.105 L 711.870,1511.337 L 713.343,1511.564 L 714.817,1511.788 L 716.292,1512.007 L 717.767,1512.223 L 719.243,1512.434 L 720.719,1512.642 L 722.196,1512.846 L 723.674,1513.046 L 725.152,1513.242 L 726.630,1513.433 L 728.109,1513.622 L 729.589,1513.806 L 731.069,1513.986 L 732.549,1514.162 L 734.030,1514.334 L 735.512,1514.503 L 736.993,1514.667 L 738.476,1514.827 L 739.958,1514.984 L 741.441,1515.137 L 742.925,1515.285 L 744.409,1515.430 L 745.893,1515.571 L 747.378,1515.707 L 748.863,1515.840 L 750.348,1515.969 L 751.834,1516.094 L 753.320,1516.215 L 754.806,1516.332 L 756.293,1516.445 L 757.780,1516.554 L 759.267,1516.659 L 760.754,1516.760 L 762.242,1516.857 L 763.730,1516.950 L 765.218,1517.040 L 766.707,1517.125 L 768.196,1517.206 L 769.684,1517.284 L 771.174,1517.357 L 772.663,1517.427 L 774.152,1517.492 L 775.642,1517.554 L 777.132,1517.611 L 778.622,1517.665 L 780.112,1517.714 L 781.602,1517.760 L 783.093,1517.802 L 784.583,1517.839 L 786.073,1517.873 L 787.564,1517.903 L 789.055,1517.929 L 790.546,1517.950 L 792.036,1517.968 L 793.527,1517.982 L 795.018,1517.992 L 796.509,1517.998 L 798.000,1518.000 L 798.000,1521.478 L 798.000,1524.957 L 798.000,1528.435 L 798.000,1531.913 L 798.000,1535.391 L 798.000,1538.870 L 798.000,1542.348 L 798.000,1545.826 L 798.000,1549.304 L 798.000,1552.783 L 798.000,1556.261 L 798.000,1559.739 L 798.000,1563.217 L 798.000,1566.696 L 798.000,1570.174 L 798.000,1573.652 L 798.000,1577.130 L 798.000,1580.609 L 798.000,1584.087 L 798.000,1587.565 L 798.000,1591.043 L 798.000,1594.522 L 798.000,1598.000"></path>
<path class="edge" stroke="#fc8d62"  d="M 722.911,1432.090 L 722.367,1435.526 L 721.823,1438.961 L 721.279,1442.397 L 720.735,1445.832 L 720.191,1449.268 L 719.647,1452.703 L 719.103,1456.138 L 718.558,1459.574 L 718.014,1463.009 L 717.470,1466.445 L 716.926,1469.880 L 716.382,1473.316 L 715.838,1476.751 L 715.294,1480.187 L 714.750,1483.622 L 714.206,1487.057 L 713.661,1490.493 L 713.117,1493.928 L 712.573,1497.364 L 712.029,1500.799 L 711.485,1504.235 L 710.941,1507.670 L 710.397,1511.105 L 708.924,1510.870 L 707.453,1510.631 L 705.982,1510.388 L 704.512,1510.141 L 703.042,1509.890 L 701.573,1509.636 L 700.105,1509.377 L 698.637,1509.114 L 697.170,1508.848 L 695.704,1508.577 L 694.238,1508.303 L 692.774,1508.025 L 691.310,1507.743 L 689.846,1507.457 L 688.384,1507.167 L 686.922,1506.873 L 685.461,1506.575 L 684.001,1506.274 L 682.542,1505.968 L 681.083,1505.659 L 679.626,1505.346 L 678.169,1505.029 L 676.713,1504.708 L 675.258,1504.383 L 673.804,1504.054 L 672.350,1503.722 L 670.898,1503.385 L 669.446,1503.045 L 667.996,1502.701 L 666.546,1502.353 L 665.097,1502.001 L 663.649,1501.645 L 662.202,1501.285 L 660.756,1500.922 L 659.311,1500.555 L 657.867,1500.183 L 656.424,1499.808 L 654.982,1499.430 L 653.541,1499.047 L 652.101,1498.660 L 650.663,1498.270 L 649.225,1497.876 L 647.788,1497.478 L 646.352,1497.076 L 644.917,1496.670 L 643.484,1496.261 L 642.051,1495.848 L 640.620,1495.430 L 639.190,1495.010 L 637.761,1494.585 L 636.333,1494.156 L 634.906,1493.724 L 633.480,1493.288 L 632.055,1492.848 L 630.632,1492.404 L 629.210,1491.957 L 627.789,1491.506 L 626.369,1491.050 L 624.950,1490.592 L 623.876,1493.900 L 622.801,1497.208 L 621.726,1500.516 L 620.651,1503.824 L 619.576,1507.132 L 618.501,1510.440 L 617.427,1513.748 L 616.352,1517.056 L 615.277,1520.364 L 614.202,1523.672 L 613.127,1526.980 L 612.052,1530.288 L 610.978,1533.596 L 609.903,1536.904 L 608.828,1540.212 L 607.753,1543.520 L 606.678,1546.828 L 605.603,1550.136 L 604.528,1553.444 L 603.454,1556.752 L 602.379,1560.060 L 601.304,1563.368 L 600.229,1566.676"></path>
<path class="edge" stroke="#64748b"  d="M 798.000,958.000 L 795.850,964.616 L 793.701,971.232 L 791.551,977.848 L 789.401,984.464 L 787.252,991.080 L 785.102,997.696 L 782.952,1004.312 L 780.803,1010.928 L 778.653,1017.544 L 776.503,1024.160 L 774.353,1030.776 L 772.204,1037.393 L 770.054,1044.009 L 767.904,1050.625 L 765.755,1057.241 L 763.605,1063.857 L 761.455,1070.473 L 759.306,1077.089 L 757.156,1083.705 L 755.006,1090.321 L 752.857,1096.937 L 750.707,1103.553 L 748.557,1110.169 L 744.926,1108.941 L 741.324,1107.626 L 737.756,1106.225 L 734.222,1104.739 L 730.724,1103.169 L 727.266,1101.515 L 723.847,1099.779 L 720.472,1097.962 L 717.141,1096.064 L 713.856,1094.087 L 710.620,1092.032 L 707.434,1089.900 L 704.299,1087.693 L 701.219,1085.410 L 698.194,1083.055 L 695.227,1080.628 L 692.318,1078.130 L 689.470,1075.564 L 686.685,1072.930 L 683.963,1070.230 L 681.307,1067.465 L 678.718,1064.638 L 676.197,1061.750 L 673.746,1058.802 L 671.367,1055.796 L 669.060,1052.734 L 666.827,1049.617 L 664.670,1046.448 L 662.589,1043.228 L 660.586,1039.959 L 658.662,1036.644 L 656.817,1033.283 L 655.054,1029.878 L 653.373,1026.433 L 651.775,1022.948 L 650.261,1019.426 L 648.832,1015.869 L 647.488,1012.278 L 646.231,1008.657 L 645.061,1005.006 L 643.978,1001.328 L 642.984,997.625 L 642.080,993.900 L 641.264,990.154 L 640.539,986.389 L 639.904,982.609 L 639.360,978.814 L 638.906,975.007 L 638.545,971.190 L 638.274,967.366 L 638.096,963.537 L 638.009,959.704 L 638.014,955.870 L 638.111,952.038 L 638.300,948.209 L 638.580,944.385 L 638.952,940.570 L 639.416,936.764 L 639.970,932.970"></path>
<path class="edge" stroke="#8da0cb"  d="M 639.970,932.970 L 633.099,931.882 L 626.228,930.794 L 619.357,929.706 L 612.486,928.618 L 605.615,927.529 L 598.745,926.441 L 591.874,925.353 L 585.003,924.265 L 578.132,923.176 L 571.261,922.088 L 564.390,921.000 L 557.519,919.912 L 550.648,918.823 L 543.778,917.735 L 536.907,916.647 L 530.036,915.559 L 523.165,914.470 L 516.294,913.382 L 509.423,912.294 L 502.552,911.206 L 495.681,910.117 L 488.811,909.029 L 481.940,907.941 L 481.425,911.310 L 480.945,914.684 L 480.502,918.062 L 480.095,921.446 L 479.723,924.833 L 479.388,928.225 L 479.089,931.619 L 478.826,935.017 L 478.600,938.417 L 478.409,941.820 L 478.255,945.224 L 478.137,948.630 L 478.056,952.037 L 478.010,955.444 L 478.001,958.852 L 478.028,962.260 L 478.092,965.667 L 478.192,969.073 L 478.328,972.478 L 478.500,975.882 L 478.709,979.283 L 478.953,982.682 L 479.234,986.078 L 479.551,989.471 L 479.905,992.861 L 480.294,996.246 L 480.719,999.628 L 481.180,1003.004 L 481.678,1006.375 L 482.211,1009.741 L 482.780,1013.101 L 483.384,1016.455 L 484.025,1019.802 L 484.701,1023.142 L 485.412,1026.475 L 486.159,1029.800 L 486.941,1033.117 L 487.759,1036.425 L 488.612,1039.724 L 489.500,1043.014 L 490.422,1046.295 L 491.380,1049.565 L 492.373,1052.825 L 493.400,1056.075 L 494.461,1059.313 L 495.558,1062.540 L 496.688,1065.755 L 497.853,1068.957 L 499.051,1072.147 L 500.284,1075.324 L 501.550,1078.488 L 502.850,1081.638 L 504.183,1084.774 L 505.550,1087.896 L 506.950,1091.003 L 508.383,1094.095 L 509.849,1097.172 L 511.347,1100.232 L 512.878,1103.277"></path>
<path class="edge" stroke="#8da0cb"  d="M 512.878,1103.277 L 506.680,1106.435 L 500.481,1109.593 L 494.283,1112.752 L 488.085,1115.910 L 481.886,1119.068 L 475.688,1122.226 L 469.490,1125.384 L 463.291,1128.543 L 457.093,1131.701 L 450.895,1134.859 L 444.697,1138.017 L 438.498,1141.175 L 432.300,1144.333 L 426.102,1147.492 L 419.903,1150.650 L 413.705,1153.808 L 407.507,1156.966 L 401.308,1160.124 L 395.110,1163.283 L 388.912,1166.441 L 382.713,1169.599 L 376.515,1172.757 L 370.317,1175.915 L 371.483,1178.190 L 372.662,1180.458 L 373.852,1182.719 L 375.055,1184.975 L 376.269,1187.223 L 377.496,1189.466 L 378.734,1191.701 L 379.985,1193.931 L 381.247,1196.153 L 382.521,1198.369 L 383.807,1200.578 L 385.104,1202.780 L 386.414,1204.975 L 387.734,1207.163 L 389.067,1209.344 L 390.411,1211.518 L 391.767,1213.684 L 393.134,1215.844 L 394.513,1217.996 L 395.903,1220.141 L 397.304,1222.278 L 398.717,1224.408 L 400.141,1226.530 L 401.577,1228.645 L 403.024,1230.752 L 404.482,1232.851 L 405.951,1234.943 L 407.431,1237.026 L 408.922,1239.102 L 410.424,1241.170 L 411.938,1243.230 L 413.462,1245.281 L 414.997,1247.325 L 416.543,1249.360 L 418.100,1251.387 L 419.667,1253.406 L 421.246,1255.416 L 422.835,1257.418 L 424.434,1259.411 L 426.045,1261.396 L 427.665,1263.372 L 429.297,1265.340 L 430.938,1267.299 L 432.590,1269.249 L 434.253,1271.190 L 435.926,1273.123 L 437.609,1275.046 L 439.302,1276.961 L 441.006,1278.866 L 442.719,1280.762 L 444.443,1282.650 L 446.176,1284.528 L 447.920,1286.396 L 449.674,1288.256 L 451.437,1290.106 L 453.210,1291.946 L 454.994,1293.778 L 456.786,1295.599 L 458.589,1297.411"></path>
<path class="edge" stroke="#8da0cb"  d="M 458.589,1297.411 L 456.129,1299.871 L 453.670,1302.330 L 451.210,1304.790 L 448.751,1307.249 L 446.291,1309.709 L 443.832,1312.168 L 441.372,1314.628 L 438.913,1317.087 L 436.453,1319.547 L 433.994,1322.006 L 431.534,1324.466 L 429.075,1326.925 L 426.615,1329.385 L 424.156,1331.844 L 421.696,1334.304 L 419.237,1336.763 L 416.777,1339.223 L 414.318,1341.682 L 411.858,1344.142 L 409.399,1346.601 L 406.939,1349.061 L 404.480,1351.520 L 402.020,1353.980 L 403.076,1355.033 L 404.134,1356.083 L 405.196,1357.130 L 406.260,1358.174 L 407.326,1359.216 L 408.396,1360.254 L 409.468,1361.290 L 410.543,1362.323 L 411.621,1363.353 L 412.702,1364.381 L 413.785,1365.405 L 414.871,1366.426 L 415.960,1367.445 L 417.051,1368.461 L 418.145,1369.474 L 419.242,1370.483 L 420.342,1371.490 L 421.444,1372.494 L 422.549,1373.495 L 423.656,1374.493 L 424.767,1375.489 L 425.879,1376.481 L 426.995,1377.470 L 428.113,1378.456 L 429.234,1379.440 L 430.357,1380.420 L 431.483,1381.397 L 432.611,1382.372 L 433.743,1383.343 L 434.876,1384.311 L 436.013,1385.276 L 437.151,1386.239 L 438.293,1387.198 L 439.437,1388.154 L 440.583,1389.107 L 441.732,1390.057 L 442.884,1391.004 L 444.038,1391.948 L 445.194,1392.889 L 446.354,1393.827 L 447.515,1394.761 L 448.679,1395.693 L 449.846,1396.621 L 451.015,1397.547 L 452.186,1398.469 L 453.360,1399.388 L 454.536,1400.304 L 455.715,1401.217 L 456.896,1402.127 L 458.080,1403.033 L 459.266,1403.937 L 460.455,1404.837 L 461.645,1405.734 L 462.839,1406.628 L 464.034,1407.519 L 465.232,1408.406 L 466.433,1409.290 L 467.635,1410.172 L 468.840,1411.050 L 466.796,1413.863 L 464.751,1416.677 L 462.707,1419.491 L 460.662,1422.305 L 458.618,1425.119 L 456.573,1427.933 L 454.529,1430.747 L 452.484,1433.561 L 450.440,1436.375 L 448.396,1439.189 L 446.351,1442.003 L 444.307,1444.817 L 442.262,1447.631 L 440.218,1450.445 L 438.173,1453.259 L 436.129,1456.073 L 434.084,1458.887 L 432.040,1461.701 L 429.995,1464.515 L 427.951,1467.329 L 425.906,1470.143 L 423.862,1472.957 L 421.817,1475.771"></path>
<path class="edge" stroke="#8da0cb"  d="M 458.589,1297.411 L 456.129,1299.871 L 453.670,1302.330 L 451.210,1304.790 L 448.751,1307.249 L 446.291,1309.709 L 443.832,1312.168 L 441.372,1314.628 L 438.913,1317.087 L 436.453,1319.547 L 433.994,1322.006 L 431.534,1324.466 L 429.075,1326.925 L 426.615,1329.385 L 424.156,1331.844 L 421.696,1334.304 L 419.237,1336.763 L 416.777,1339.223 L 414.318,1341.682 L 411.858,1344.142 L 409.399,1346.601 L 406.939,1349.061 L 404.480,1351.520 L 402.020,1353.980 L 400.967,1352.924 L 399.917,1351.866 L 398.870,1350.804 L 397.826,1349.740 L 396.784,1348.674 L 395.746,1347.604 L 394.710,1346.532 L 393.677,1345.457 L 392.647,1344.379 L 391.619,1343.298 L 390.595,1342.215 L 389.574,1341.129 L 388.555,1340.040 L 387.539,1338.949 L 386.526,1337.855 L 385.517,1336.758 L 384.510,1335.658 L 383.506,1334.556 L 382.505,1333.451 L 381.507,1332.344 L 380.511,1331.233 L 379.519,1330.121 L 378.530,1329.005 L 377.544,1327.887 L 376.560,1326.766 L 375.580,1325.643 L 374.603,1324.517 L 373.628,1323.389 L 372.657,1322.257 L 371.689,1321.124 L 370.724,1319.987 L 369.761,1318.849 L 368.802,1317.707 L 367.846,1316.563 L 366.893,1315.417 L 365.943,1314.268 L 364.996,1313.116 L 364.052,1311.962 L 363.111,1310.806 L 362.173,1309.646 L 361.239,1308.485 L 360.307,1307.321 L 359.379,1306.154 L 358.453,1304.985 L 357.531,1303.814 L 356.612,1302.640 L 355.696,1301.464 L 354.783,1300.285 L 353.873,1299.104 L 352.967,1297.920 L 352.063,1296.734 L 351.163,1295.545 L 350.266,1294.355 L 349.372,1293.161 L 348.481,1291.966 L 347.594,1290.768 L 346.710,1289.567 L 345.828,1288.365 L 344.950,1287.160 L 342.137,1289.204 L 339.323,1291.249 L 336.509,1293.293 L 333.695,1295.338 L 330.881,1297.382 L 328.067,1299.427 L 325.253,1301.471 L 322.439,1303.516 L 319.625,1305.560 L 316.811,1307.604 L 313.997,1309.649 L 311.183,1311.693 L 308.369,1313.738 L 305.555,1315.782 L 302.741,1317.827 L 299.927,1319.871 L 297.113,1321.916 L 294.299,1323.960 L 291.485,1326.005 L 288.671,1328.049 L 285.857,1330.094 L 283.043,1332.138 L 280.229,1334.183"></path>
<path class="edge" stroke="#8da0cb"  d="M 512.878,1103.277 L 506.680,1106.435 L 500.481,1109.593 L 494.283,1112.752 L 488.085,1115.910 L 481.886,1119.068 L 475.688,1122.226 L 469.490,1125.384 L 463.291,1128.543 L 457.093,1131.701 L 450.895,1134.859 L 444.697,1138.017 L 438.498,1141.175 L 432.300,1144.333 L 426.102,1147.492 L 419.903,1150.650 L 413.705,1153.808 L 407.507,1156.966 L 401.308,1160.124 L 395.110,1163.283 L 388.912,1166.441 L 382.713,1169.599 L 376.515,1172.757 L 370.317,1175.915 L 369.163,1173.635 L 368.020,1171.349 L 366.891,1169.056 L 365.773,1166.758 L 364.667,1164.453 L 363.574,1162.143 L 362.493,1159.827 L 361.425,1157.505 L 360.369,1155.177 L 359.325,1152.844 L 358.294,1150.506 L 357.275,1148.162 L 356.269,1145.812 L 355.275,1143.458 L 354.294,1141.098 L 353.325,1138.732 L 352.369,1136.362 L 351.426,1133.987 L 350.495,1131.606 L 349.577,1129.221 L 348.671,1126.831 L 347.779,1124.436 L 346.899,1122.036 L 346.032,1119.632 L 345.178,1117.223 L 344.336,1114.810 L 343.508,1112.392 L 342.692,1109.970 L 341.889,1107.543 L 341.100,1105.112 L 340.323,1102.677 L 339.559,1100.238 L 338.808,1097.795 L 338.070,1095.348 L 337.345,1092.897 L 336.634,1090.442 L 335.935,1087.984 L 335.249,1085.522 L 334.577,1083.056 L 333.918,1080.587 L 333.271,1078.114 L 332.638,1075.637 L 332.019,1073.158 L 331.412,1070.675 L 330.819,1068.189 L 330.239,1065.700 L 329.672,1063.208 L 329.118,1060.712 L 328.578,1058.214 L 328.051,1055.713 L 327.537,1053.210 L 327.037,1050.703 L 326.550,1048.194 L 326.077,1045.682 L 325.616,1043.168 L 325.170,1040.652 L 324.736,1038.133 L 324.316,1035.612 L 323.910,1033.089"></path>
<path class="edge" stroke="#8da0cb"  d="M 323.910,1033.089 L 320.474,1033.633 L 317.039,1034.177 L 313.603,1034.721 L 310.168,1035.265 L 306.732,1035.809 L 303.297,1036.353 L 299.862,1036.897 L 296.426,1037.442 L 292.991,1037.986 L 289.555,1038.530 L 286.120,1039.074 L 282.684,1039.618 L 279.249,1040.162 L 275.813,1040.706 L 272.378,1041.250 L 268.943,1041.794 L 265.507,1042.339 L 262.072,1042.883 L 258.636,1043.427 L 255.201,1043.971 L 251.765,1044.515 L 248.330,1045.059 L 244.895,1045.603 L 245.130,1047.076 L 245.369,1048.547 L 245.612,1050.018 L 245.859,1051.488 L 246.110,1052.958 L 246.364,1054.427 L 246.623,1055.895 L 246.886,1057.363 L 247.152,1058.830 L 247.423,1060.296 L 247.697,1061.762 L 247.975,1063.226 L 248.257,1064.690 L 248.543,1066.154 L 248.833,1067.616 L 249.127,1069.078 L 249.425,1070.539 L 249.726,1071.999 L 250.032,1073.458 L 250.341,1074.917 L 250.654,1076.374 L 250.971,1077.831 L 251.292,1079.287 L 251.617,1080.742 L 251.946,1082.196 L 252.278,1083.650 L 252.615,1085.102 L 252.955,1086.554 L 253.299,1088.004 L 253.647,1089.454 L 253.999,1090.903 L 254.355,1092.351 L 254.715,1093.798 L 255.078,1095.244 L 255.445,1096.689 L 255.817,1098.133 L 256.192,1099.576 L 256.570,1101.018 L 256.953,1102.459 L 257.340,1103.899 L 257.730,1105.337 L 258.124,1106.775 L 258.522,1108.212 L 258.924,1109.648 L 259.330,1111.083 L 259.739,1112.516 L 260.152,1113.949 L 260.570,1115.380 L 260.990,1116.810 L 261.415,1118.239 L 261.844,1119.667 L 262.276,1121.094 L 262.712,1122.520 L 263.152,1123.945 L 263.596,1125.368 L 264.043,1126.790 L 264.494,1128.211 L 264.950,1129.631 L 265.408,1131.050 L 262.100,1132.124 L 258.792,1133.199 L 255.484,1134.274 L 252.176,1135.349 L 248.868,1136.424 L 245.560,1137.499 L 242.252,1138.573 L 238.944,1139.648 L 235.636,1140.723 L 232.328,1141.798 L 229.020,1142.873 L 225.712,1143.948 L 222.404,1145.022 L 219.096,1146.097 L 215.788,1147.172 L 212.480,1148.247 L 209.172,1149.322 L 205.864,1150.397 L 202.556,1151.472 L 199.248,1152.546 L 195.940,1153.621 L 192.632,1154.696 L 189.324,1155.771"></path>
<path class="edge" stroke="#8da0cb"  d="M 323.910,1033.089 L 320.474,1033.633 L 317.039,1034.177 L 313.603,1034.721 L 310.168,1035.265 L 306.732,1035.809 L 303.297,1036.353 L 299.862,1036.897 L 296.426,1037.442 L 292.991,1037.986 L 289.555,1038.530 L 286.120,1039.074 L 282.684,1039.618 L 279.249,1040.162 L 275.813,1040.706 L 272.378,1041.250 L 268.943,1041.794 L 265.507,1042.339 L 262.072,1042.883 L 258.636,1043.427 L 255.201,1043.971 L 251.765,1044.515 L 248.330,1045.059 L 244.895,1045.603 L 244.663,1044.130 L 244.436,1042.657 L 244.212,1041.183 L 243.993,1039.708 L 243.777,1038.233 L 243.566,1036.757 L 243.358,1035.281 L 243.154,1033.804 L 242.954,1032.326 L 242.758,1030.848 L 242.567,1029.370 L 242.378,1027.891 L 242.194,1026.411 L 242.014,1024.931 L 241.838,1023.451 L 241.666,1021.970 L 241.497,1020.488 L 241.333,1019.007 L 241.173,1017.524 L 241.016,1016.042 L 240.863,1014.559 L 240.715,1013.075 L 240.570,1011.591 L 240.429,1010.107 L 240.293,1008.622 L 240.160,1007.137 L 240.031,1005.652 L 239.906,1004.166 L 239.785,1002.680 L 239.668,1001.194 L 239.555,999.707 L 239.446,998.220 L 239.341,996.733 L 239.240,995.246 L 239.143,993.758 L 239.050,992.270 L 238.960,990.782 L 238.875,989.293 L 238.794,987.804 L 238.716,986.316 L 238.643,984.826 L 238.573,983.337 L 238.508,981.848 L 238.446,980.358 L 238.389,978.868 L 238.335,977.378 L 238.286,975.888 L 238.240,974.398 L 238.198,972.907 L 238.161,971.417 L 238.127,969.927 L 238.097,968.436 L 238.071,966.945 L 238.050,965.454 L 238.032,963.964 L 238.018,962.473 L 238.008,960.982 L 238.002,959.491 L 238.000,958.000 L 234.522,958.000 L 231.043,958.000 L 227.565,958.000 L 224.087,958.000 L 220.609,958.000 L 217.130,958.000 L 213.652,958.000 L 210.174,958.000 L 206.696,958.000 L 203.217,958.000 L 199.739,958.000 L 196.261,958.000 L 192.783,958.000 L 189.304,958.000 L 185.826,958.000 L 182.348,958.000 L 178.870,958.000 L 175.391,958.000 L 171.913,958.000 L 168.435,958.000 L 164.957,958.000 L 161.478,958.000 L 158.000,958.000"></path>
<path class="edge" stroke="#e78ac3"  d="M 639.970,932.970 L 633.099,931.882 L 626.228,930.794 L 619.357,929.706 L 612.486,928.618 L 605.615,927.529 L 598.745,926.441 L 591.874,925.353 L 585.003,924.265 L 578.132,923.176 L 571.261,922.088 L 564.390,921.000 L 557.519,919.912 L 550.648,918.823 L 543.778,917.735 L 536.907,916.647 L 530.036,915.559 L 523.165,914.470 L 516.294,913.382 L 509.423,912.294 L 502.552,911.206 L 495.681,910.117 L 488.811,909.029 L 481.940,907.941 L 482.491,904.578 L 483.078,901.221 L 483.700,897.871 L 484.358,894.527 L 485.052,891.191 L 485.781,887.862 L 486.546,884.541 L 487.346,881.228 L 488.181,877.924 L 489.051,874.629 L 489.957,871.344 L 490.897,868.069 L 491.872,864.803 L 492.882,861.548 L 493.926,858.305 L 495.005,855.072 L 496.118,851.851 L 497.266,848.643 L 498.448,845.446 L 499.663,842.262 L 500.913,839.092 L 502.196,835.935 L 503.512,832.792 L 504.863,829.663 L 506.246,826.548 L 507.662,823.449 L 509.112,820.365 L 510.594,817.296 L 512.108,814.243 L 513.656,811.207 L 515.235,808.187 L 516.846,805.184 L 518.490,802.199 L 520.165,799.231 L 521.871,796.282 L 523.609,793.350 L 525.378,790.437 L 527.178,787.544 L 529.008,784.669 L 530.870,781.815 L 532.761,778.980 L 534.682,776.165 L 536.634,773.372 L 538.615,770.599 L 540.625,767.847 L 542.665,765.117 L 544.733,762.409 L 546.830,759.723 L 548.956,757.059 L 551.110,754.418 L 553.292,751.801 L 555.502,749.207 L 557.739,746.636 L 560.004,744.089 L 562.295,741.567 L 564.613,739.069 L 566.958,736.596 L 569.329,734.148 L 571.726,731.726"></path>
<path class="edge" stroke="#e78ac3"  d="M 571.726,731.726 L 566.807,726.807 L 561.888,721.888 L 556.969,716.969 L 552.050,712.050 L 547.131,707.131 L 542.212,702.212 L 537.293,697.293 L 532.374,692.374 L 527.455,687.455 L 522.536,682.536 L 517.617,677.617 L 512.698,672.698 L 507.779,667.779 L 502.860,662.860 L 497.941,657.941 L 493.022,653.022 L 488.103,648.103 L 483.184,643.184 L 478.265,638.265 L 473.346,633.346 L 468.427,628.427 L 463.508,623.508 L 458.589,618.589 L 456.786,620.401 L 454.994,622.222 L 453.210,624.054 L 451.437,625.894 L 449.674,627.744 L 447.920,629.604 L 446.176,631.472 L 444.443,633.350 L 442.719,635.238 L 441.006,637.134 L 439.302,639.039 L 437.609,640.954 L 435.926,642.877 L 434.253,644.810 L 432.590,646.751 L 430.938,648.701 L 429.297,650.660 L 427.665,652.628 L 426.045,654.604 L 424.434,656.589 L 422.835,658.582 L 421.246,660.584 L 419.667,662.594 L 418.100,664.613 L 416.543,666.640 L 414.997,668.675 L 413.462,670.719 L 411.938,672.770 L 410.424,674.830 L 408.922,676.898 L 407.431,678.974 L 405.951,681.057 L 404.482,683.149 L 403.024,685.248 L 401.577,687.355 L 400.141,689.470 L 398.717,691.592 L 397.304,693.722 L 395.903,695.859 L 394.513,698.004 L 393.134,700.156 L 391.767,702.316 L 390.411,704.482 L 389.067,706.656 L 387.734,708.837 L 386.414,711.025 L 385.104,713.220 L 383.807,715.422 L 382.521,717.631 L 381.247,719.847 L 379.985,722.069 L 378.734,724.299 L 377.496,726.534 L 376.269,728.777 L 375.055,731.025 L 373.852,733.281 L 372.662,735.542 L 371.483,737.810 L 370.317,740.085"></path>
<path class="edge" stroke="#e78ac3"  d="M 370.317,740.085 L 367.218,738.505 L 364.119,736.926 L 361.019,735.347 L 357.920,733.768 L 354.821,732.189 L 351.722,730.610 L 348.623,729.031 L 345.524,727.452 L 342.424,725.873 L 339.325,724.294 L 336.226,722.714 L 333.127,721.135 L 330.028,719.556 L 326.929,717.977 L 323.830,716.398 L 320.730,714.819 L 317.631,713.240 L 314.532,711.661 L 311.433,710.082 L 308.334,708.503 L 305.235,706.924 L 302.135,705.344 L 299.036,703.765 L 298.361,705.095 L 297.690,706.426 L 297.022,707.759 L 296.357,709.093 L 295.696,710.430 L 295.039,711.768 L 294.385,713.108 L 293.735,714.450 L 293.088,715.793 L 292.445,717.138 L 291.806,718.485 L 291.170,719.833 L 290.538,721.184 L 289.909,722.536 L 289.284,723.889 L 288.662,725.244 L 288.045,726.601 L 287.430,727.960 L 286.820,729.320 L 286.213,730.682 L 285.609,732.045 L 285.009,733.410 L 284.413,734.776 L 283.821,736.145 L 283.232,737.514 L 282.647,738.886 L 282.065,740.258 L 281.487,741.633 L 280.913,743.009 L 280.343,744.386 L 279.776,745.765 L 279.213,747.146 L 278.653,748.528 L 278.097,749.911 L 277.545,751.296 L 276.997,752.682 L 276.452,754.070 L 275.911,755.459 L 275.373,756.850 L 274.840,758.242 L 274.310,759.636 L 273.783,761.031 L 273.261,762.427 L 272.742,763.825 L 272.227,765.224 L 271.715,766.624 L 271.208,768.026 L 270.704,769.429 L 270.204,770.834 L 269.707,772.240 L 269.215,773.647 L 268.726,775.055 L 268.241,776.465 L 267.759,777.876 L 267.281,779.289 L 266.807,780.702 L 266.337,782.117 L 265.871,783.533 L 265.408,784.950 L 262.100,783.876 L 258.792,782.801 L 255.484,781.726 L 252.176,780.651 L 248.868,779.576 L 245.560,778.501 L 242.252,777.427 L 238.944,776.352 L 235.636,775.277 L 232.328,774.202 L 229.020,773.127 L 225.712,772.052 L 222.404,770.978 L 219.096,769.903 L 215.788,768.828 L 212.480,767.753 L 209.172,766.678 L 205.864,765.603 L 202.556,764.528 L 199.248,763.454 L 195.940,762.379 L 192.632,761.304 L 189.324,760.229"></path>
<path class="edge" stroke="#e78ac3"  d="M 370.317,740.085 L 367.218,738.505 L 364.119,736.926 L 361.019,735.347 L 357.920,733.768 L 354.821,732.189 L 351.722,730.610 L 348.623,729.031 L 345.524,727.452 L 342.424,725.873 L 339.325,724.294 L 336.226,722.714 L 333.127,721.135 L 330.028,719.556 L 326.929,717.977 L 323.830,716.398 L 320.730,714.819 L 317.631,713.240 L 314.532,711.661 L 311.433,710.082 L 308.334,708.503 L 305.235,706.924 L 302.135,705.344 L 299.036,703.765 L 299.715,702.438 L 300.397,701.112 L 301.083,699.788 L 301.772,698.466 L 302.465,697.146 L 303.161,695.828 L 303.861,694.511 L 304.564,693.196 L 305.271,691.884 L 305.981,690.573 L 306.695,689.264 L 307.412,687.957 L 308.133,686.652 L 308.857,685.348 L 309.584,684.047 L 310.316,682.748 L 311.050,681.450 L 311.788,680.155 L 312.530,678.861 L 313.274,677.570 L 314.023,676.280 L 314.775,674.993 L 315.530,673.707 L 316.288,672.424 L 317.050,671.142 L 317.816,669.863 L 318.585,668.585 L 319.357,667.310 L 320.132,666.037 L 320.911,664.765 L 321.694,663.496 L 322.480,662.229 L 323.269,660.964 L 324.061,659.701 L 324.857,658.441 L 325.656,657.182 L 326.459,655.926 L 327.265,654.671 L 328.074,653.419 L 328.887,652.169 L 329.702,650.921 L 330.522,649.675 L 331.344,648.432 L 332.170,647.191 L 332.999,645.952 L 333.832,644.715 L 334.667,643.480 L 335.506,642.248 L 336.349,641.017 L 337.194,639.789 L 338.043,638.564 L 338.895,637.340 L 339.750,636.119 L 340.609,634.900 L 341.471,633.684 L 342.336,632.469 L 343.204,631.257 L 344.076,630.048 L 344.950,628.840 L 342.137,626.796 L 339.323,624.751 L 336.509,622.707 L 333.695,620.662 L 330.881,618.618 L 328.067,616.573 L 325.253,614.529 L 322.439,612.484 L 319.625,610.440 L 316.811,608.396 L 313.997,606.351 L 311.183,604.307 L 308.369,602.262 L 305.555,600.218 L 302.741,598.173 L 299.927,596.129 L 297.113,594.084 L 294.299,592.040 L 291.485,589.995 L 288.671,587.951 L 285.857,585.906 L 283.043,583.862 L 280.229,581.817"></path>
<path class="edge" stroke="#e78ac3"  d="M 571.726,731.726 L 566.807,726.807 L 561.888,721.888 L 556.969,716.969 L 552.050,712.050 L 547.131,707.131 L 542.212,702.212 L 537.293,697.293 L 532.374,692.374 L 527.455,687.455 L 522.536,682.536 L 517.617,677.617 L 512.698,672.698 L 507.779,667.779 L 502.860,662.860 L 497.941,657.941 L 493.022,653.022 L 488.103,648.103 L 483.184,643.184 L 478.265,638.265 L 473.346,633.346 L 468.427,628.427 L 463.508,623.508 L 458.589,618.589 L 460.401,616.786 L 462.222,614.994 L 464.054,613.210 L 465.894,611.437 L 467.744,609.674 L 469.604,607.920 L 471.472,606.176 L 473.350,604.443 L 475.238,602.719 L 477.134,601.006 L 479.039,599.302 L 480.954,597.609 L 482.877,595.926 L 484.810,594.253 L 486.751,592.590 L 488.701,590.938 L 490.660,589.297 L 492.628,587.665 L 494.604,586.045 L 496.589,584.434 L 498.582,582.835 L 500.584,581.246 L 502.594,579.667 L 504.613,578.100 L 506.640,576.543 L 508.675,574.997 L 510.719,573.462 L 512.770,571.938 L 514.830,570.424 L 516.898,568.922 L 518.974,567.431 L 521.057,565.951 L 523.149,564.482 L 525.248,563.024 L 527.355,561.577 L 529.470,560.141 L 531.592,558.717 L 533.722,557.304 L 535.859,555.903 L 538.004,554.513 L 540.156,553.134 L 542.316,551.767 L 544.482,550.411 L 546.656,549.067 L 548.837,547.734 L 551.025,546.414 L 553.220,545.104 L 555.422,543.807 L 557.631,542.521 L 559.847,541.247 L 562.069,539.985 L 564.299,538.734 L 566.534,537.496 L 568.777,536.269 L 571.025,535.055 L 573.281,533.852 L 575.542,532.662 L 577.810,531.483 L 580.085,530.317"></path>
<path class="edge" stroke="#e78ac3"  d="M 580.085,530.317 L 578.505,527.218 L 576.926,524.119 L 575.347,521.019 L 573.768,517.920 L 572.189,514.821 L 570.610,511.722 L 569.031,508.623 L 567.452,505.524 L 565.873,502.424 L 564.294,499.325 L 562.714,496.226 L 561.135,493.127 L 559.556,490.028 L 557.977,486.929 L 556.398,483.830 L 554.819,480.730 L 553.240,477.631 L 551.661,474.532 L 550.082,471.433 L 548.503,468.334 L 546.924,465.235 L 545.344,462.135 L 543.765,459.036 L 542.438,459.715 L 541.112,460.397 L 539.788,461.083 L 538.466,461.772 L 537.146,462.465 L 535.828,463.161 L 534.511,463.861 L 533.196,464.564 L 531.884,465.271 L 530.573,465.981 L 529.264,466.695 L 527.957,467.412 L 526.652,468.133 L 525.348,468.857 L 524.047,469.584 L 522.748,470.316 L 521.450,471.050 L 520.155,471.788 L 518.861,472.530 L 517.570,473.274 L 516.280,474.023 L 514.993,474.775 L 513.707,475.530 L 512.424,476.288 L 511.142,477.050 L 509.863,477.816 L 508.585,478.585 L 507.310,479.357 L 506.037,480.132 L 504.765,480.911 L 503.496,481.694 L 502.229,482.480 L 500.964,483.269 L 499.701,484.061 L 498.441,484.857 L 497.182,485.656 L 495.926,486.459 L 494.671,487.265 L 493.419,488.074 L 492.169,488.887 L 490.921,489.702 L 489.675,490.522 L 488.432,491.344 L 487.191,492.170 L 485.952,492.999 L 484.715,493.832 L 483.480,494.667 L 482.248,495.506 L 481.017,496.349 L 479.789,497.194 L 478.564,498.043 L 477.340,498.895 L 476.119,499.750 L 474.900,500.609 L 473.684,501.471 L 472.469,502.336 L 471.257,503.204 L 470.048,504.076 L 468.840,504.950 L 466.796,502.137 L 464.751,499.323 L 462.707,496.509 L 460.662,493.695 L 458.618,490.881 L 456.573,488.067 L 454.529,485.253 L 452.484,482.439 L 450.440,479.625 L 448.396,476.811 L 446.351,473.997 L 444.307,471.183 L 442.262,468.369 L 440.218,465.555 L 438.173,462.741 L 436.129,459.927 L 434.084,457.113 L 432.040,454.299 L 429.995,451.485 L 427.951,448.671 L 425.906,445.857 L 423.862,443.043 L 421.817,440.229"></path>
<path class="edge" stroke="#e78ac3"  d="M 580.085,530.317 L 578.505,527.218 L 576.926,524.119 L 575.347,521.019 L 573.768,517.920 L 572.189,514.821 L 570.610,511.722 L 569.031,508.623 L 567.452,505.524 L 565.873,502.424 L 564.294,499.325 L 562.714,496.226 L 561.135,493.127 L 559.556,490.028 L 557.977,486.929 L 556.398,483.830 L 554.819,480.730 L 553.240,477.631 L 551.661,474.532 L 550.082,471.433 L 548.503,468.334 L 546.924,465.235 L 545.344,462.135 L 543.765,459.036 L 545.095,458.361 L 546.426,457.690 L 547.759,457.022 L 549.093,456.357 L 550.430,455.696 L 551.768,455.039 L 553.108,454.385 L 554.450,453.735 L 555.793,453.088 L 557.138,452.445 L 558.485,451.806 L 559.833,451.170 L 561.184,450.538 L 562.536,449.909 L 563.889,449.284 L 565.244,448.662 L 566.601,448.045 L 567.960,447.430 L 569.320,446.820 L 570.682,446.213 L 572.045,445.609 L 573.410,445.009 L 574.776,444.413 L 576.145,443.821 L 577.514,443.232 L 578.886,442.647 L 580.258,442.065 L 581.633,441.487 L 583.009,440.913 L 584.386,440.343 L 585.765,439.776 L 587.146,439.213 L 588.528,438.653 L 589.911,438.097 L 591.296,437.545 L 592.682,436.997 L 594.070,436.452 L 595.459,435.911 L 596.850,435.373 L 598.242,434.840 L 599.636,434.310 L 601.031,433.783 L 602.427,433.261 L 603.825,432.742 L 605.224,432.227 L 606.624,431.715 L 608.026,431.208 L 609.429,430.704 L 610.834,430.204 L 612.240,429.707 L 613.647,429.215 L 615.055,428.726 L 616.465,428.241 L 617.876,427.759 L 619.289,427.281 L 620.702,426.807 L 622.117,426.337 L 623.533,425.871 L 624.950,425.408 L 623.876,422.100 L 622.801,418.792 L 621.726,415.484 L 620.651,412.176 L 619.576,408.868 L 618.501,405.560 L 617.427,402.252 L 616.352,398.944 L 615.277,395.636 L 614.202,392.328 L 613.127,389.020 L 612.052,385.712 L 610.978,382.404 L 609.903,379.096 L 608.828,375.788 L 607.753,372.480 L 606.678,369.172 L 605.603,365.864 L 604.528,362.556 L 603.454,359.248 L 602.379,355.940 L 601.304,352.632 L 600.229,349.324"></path>
<circle class="node" fill="#64748b"  cx="798.000" cy="958.000" r="6.000"></circle>
<circle class="node" fill="#64748b"  cx="940.561" cy="1030.638" r="6.000"></circle>
<circle class="node" fill="#66c2a5"  cx="1083.122" cy="812.723" r="6.000"></circle>
<circle class="node" fill="#66c2a5"  cx="1015.915" cy="530.317" r="6.000"></circle>
<circle class="node" fill="#66c2a5"  cx="898.118" cy="325.879" r="6.000"></circle>
<circle class="node" fill="#66c2a5"  cx="798.000" cy="158.000" r="6.000"></circle>
<text class="label"  x="798.000" y="134.000" font-size="12.000" fill="#66c2a5" text-anchor="start" dominant-baseline="middle" transform="rotate(-90.000 798.000 134.000)">Auth Service</text>
<circle class="node" fill="#66c2a5"  cx="1045.214" cy="197.155" r="6.000"></circle>
<text class="label"  x="1052.630" y="174.329" font-size="12.000" fill="#66c2a5" text-anchor="start" dominant-baseline="middle" transform="rotate(-72.000 1052.630 174.329)">Billing Service</text>
<circle class="node" fill="#66c2a5"  cx="1250.548" cy="505.452" r="6.000"></circle>
<circle class="node" fill="#66c2a5"  cx="1268.228" cy="310.786" r="6.000"></circle>
<text class="label"  x="1282.335" y="291.370" font-size="12.000" fill="#66c2a5" text-anchor="start" dominant-baseline="middle" transform="rotate(-54.000 1282.335 291.370)">Kubernetes</text>
<circle class="node" fill="#66c2a5"  cx="1445.214" cy="487.772" r="6.000"></circle>
<text class="label"  x="1464.630" y="473.665" font-size="12.000" fill="#66c2a5" text-anchor="start" dominant-baseline="middle" transform="rotate(-36.000 1464.630 473.665)">Observability</text>
<circle class="node" fill="#66c2a5"  cx="1272.090" cy="1033.089" r="6.000"></circle>
<circle class="node" fill="#66c2a5"  cx="1430.121" cy="857.882" r="6.000"></circle>
<circle class="node" fill="#66c2a5"  cx="1558.845" cy="710.786" r="6.000"></circle>
<text class="label"  x="1581.671" y="703.370" font-size="12.000" fill="#66c2a5" text-anchor="start" dominant-baseline="middle" transform="rotate(-18.000 1581.671 703.370)">ETL Pipelines</text>
<circle class="node" fill="#66c2a5"  cx="1598.000" cy="958.000" r="6.000"></circle>
<text class="label"  x="1622.000" y="958.000" font-size="12.000" fill="#66c2a5" text-anchor="start" dominant-baseline="middle" transform="rotate(0.000 1622.000 958.000)">Data Models</text>
<circle class="node" fill="#66c2a5"  cx="1368.244" cy="1248.554" r="6.000"></circle>
<circle class="node" fill="#66c2a5"  cx="1558.845" cy="1205.214" r="6.000"></circle>
<text class="label"  x="1581.671" y="1212.630" font-size="12.000" fill="#66c2a5" text-anchor="start" dominant-baseline="middle" transform="rotate(18.000 1581.671 1212.630)">Recommendations</text>
<circle class="node" fill="#66c2a5"  cx="1445.214" cy="1428.228" r="6.000"></circle>
<text class="label"  x="1464.630" y="1442.335" font-size="12.000" fill="#66c2a5" text-anchor="start" dominant-baseline="middle" transform="rotate(36.000 1464.630 1442.335)">Forecasting Models</text>
<circle class="node" fill="#fc8d62"  cx="848.059" cy="1274.060" r="6.000"></circle>
<circle class="node" fill="#fc8d62"  cx="1015.915" cy="1385.683" r="6.000"></circle>
<circle class="node" fill="#fc8d62"  cx="1174.183" cy="1475.771" r="6.000"></circle>
<text class="label"  x="1188.289" y="1495.187" font-size="12.000" fill="#fc8d62" text-anchor="start" dominant-baseline="middle" transform="rotate(54.000 1188.289 1495.187)">iOS Squad</text>
<circle class="node" fill="#fc8d62"  cx="995.771" cy="1566.676" r="6.000"></circle>
<text class="label"  x="1003.187" y="1589.502" font-size="12.000" fill="#fc8d62" text-anchor="start" dominant-baseline="middle" transform="rotate(72.000 1003.187 1589.502)">Android Squad</text>
<circle class="node" fill="#fc8d62"  cx="722.911" cy="1432.090" r="6.000"></circle>
<circle class="node" fill="#fc8d62"  cx="798.000" cy="1598.000" r="6.000"></circle>
<text class="label"  x="798.000" y="1622.000" font-size="12.000" fill="#fc8d62" text-anchor="start" dominant-baseline="middle" transform="rotate(90.000 798.000 1622.000)">Frontend Squad</text>
<circle class="node" fill="#fc8d62"  cx="600.229" cy="1566.676" r="6.000"></circle>
<text class="label"  x="592.813" y="1589.502" font-size="12.000" fill="#fc8d62" text-anchor="end" dominant-baseline="middle" transform="rotate(288.000 592.813 1589.502)">Design Systems</text>
<circle class="node" fill="#64748b"  cx="639.970" cy="932.970" r="6.000"></circle>
<circle class="node" fill="#8da0cb"  cx="512.878" cy="1103.277" r="6.000"></circle>
<circle class="node" fill="#8da0cb"  cx="458.589" cy="1297.411" r="6.000"></circle>
<circle class="node" fill="#8da0cb"  cx="421.817" cy="1475.771" r="6.000"></circle>
<text class="label"  x="407.711" y="1495.187" font-size="12.000" fill="#8da0cb" text-anchor="end" dominant-baseline="middle" transform="rotate(306.000 407.711 1495.187)">Employer Brand</text>
<circle class="node" fill="#8da0cb"  cx="280.229" cy="1334.183" r="6.000"></circle>
<text class="label"  x="260.813" y="1348.289" font-size="12.000" fill="#8da0cb" text-anchor="end" dominant-baseline="middle" transform="rotate(324.000 260.813 1348.289)">Sourcing</text>
<circle class="node" fill="#8da0cb"  cx="323.910" cy="1033.089" r="6.000"></circle>
<circle class="node" fill="#8da0cb"  cx="189.324" cy="1155.771" r="6.000"></circle>
<text class="label"  x="166.498" y="1163.187" font-size="12.000" fill="#8da0cb" text-anchor="end" dominant-baseline="middle" transform="rotate(342.000 166.498 1163.187)">Onboarding</text>
<circle class="node" fill="#8da0cb"  cx="158.000" cy="958.000" r="6.000"></circle>
<text class="label"  x="134.000" y="958.000" font-size="12.000" fill="#8da0cb" text-anchor="end" dominant-baseline="middle" transform="rotate(360.000 134.000 958.000)">Growth</text>
<circle class="node" fill="#e78ac3"  cx="571.726" cy="731.726" r="6.000"></circle>
<circle class="node" fill="#e78ac3"  cx="370.317" cy="740.085" r="6.000"></circle>
<circle class="node" fill="#e78ac3"  cx="189.324" cy="760.229" r="6.000"></circle>
<text class="label"  x="166.498" y="752.813" font-size="12.000" fill="#e78ac3" text-anchor="end" dominant-baseline="middle" transform="rotate(378.000 166.498 752.813)">Forecasting</text>
<circle class="node" fill="#e78ac3"  cx="280.229" cy="581.817" r="6.000"></circle>
<text class="label"  x="260.813" y="567.711" font-size="12.000" fill="#e78ac3" text-anchor="end" dominant-baseline="middle" transform="rotate(396.000 260.813 567.711)">Controls</text>
<circle class="node" fill="#e78ac3"  cx="580.085" cy="530.317" r="6.000"></circle>
<circle class="node" fill="#e78ac3"  cx="421.817" cy="440.229" r="6.000"></circle>
<text class="label"  x="407.711" y="420.813" font-size="12.000" fill="#e78ac3" text-anchor="end" dominant-baseline="middle" transform="rotate(414.000 407.711 420.813)">Internal Reporting</text>
<circle class="node" fill="#e78ac3"  cx="600.229" cy="349.324" r="6.000"></circle>
<text class="label"  x="592.813" y="326.498" font-size="12.000" fill="#e78ac3" text-anchor="end" dominant-baseline="middle" transform="rotate(432.000 592.813 326.498)">External Reporting</text>

</svg>
