<svg xmlns="http://www.w3.org/2000/svg" viewBox="0 0 784.000 754.000" width="784.000" height="754.000" role="img">
<title>Dendrogram</title>
<style>
.edge { fill: none; stroke-width: 2.000; stroke-linecap: round; }
.node { }
.label { font-family: Helvetica, Arial, sans-serif; }
</style>
<path class="edge" stroke="#3b82f6" d="M 152.000,422.000 L 156.000,421.885 L 159.866,421.545 L 163.604,420.988 L 167.218,420.223 L 170.713,419.256 L 174.093,418.096 L 177.363,416.750 L 180.529,415.227 L 183.593,413.534 L 186.562,411.680 L 189.440,409.672 L 192.232,407.518 L 194.941,405.226 L 197.574,402.804 L 200.133,400.259 L 202.626,397.600 L 205.055,394.835 L 207.425,391.971 L 209.742,389.016 L 212.010,385.979 L 214.233,382.866 L 216.417,379.687 L 218.566,376.448 L 220.684,373.158 L 222.776,369.825 L 224.848,366.456 L 226.903,363.060 L 228.947,359.644 L 230.983,356.216 L 233.017,352.784 L 235.053,349.356 L 237.097,345.940 L 239.152,342.544 L 241.224,339.175 L 243.316,335.842 L 245.434,332.552 L 247.583,329.313 L 249.767,326.134 L 251.990,323.021 L 254.258,319.984 L 256.575,317.029 L 258.945,314.165 L 261.374,311.400 L 263.867,308.741 L 266.426,306.196 L 269.059,303.774 L 271.768,301.482 L 274.560,299.328 L 277.438,297.320 L 280.407,295.466 L 283.471,293.773 L 286.637,292.250 L 289.907,290.904 L 293.287,289.744 L 296.782,288.777 L 300.396,288.012 L 304.134,287.455 L 308.000,287.115 L 312.000,287.000" />
<path class="edge" stroke="#3b82f6" d="M 312.000,287.000 L 316.000,286.923 L 319.866,286.697 L 323.604,286.326 L 327.218,285.815 L 330.713,285.170 L 334.093,284.397 L 337.363,283.500 L 340.529,282.485 L 343.593,281.356 L 346.562,280.120 L 349.440,278.781 L 352.232,277.345 L 354.941,275.817 L 357.574,274.202 L 360.133,272.506 L 362.626,270.733 L 365.055,268.890 L 367.425,266.981 L 369.742,265.011 L 372.010,262.986 L 374.233,260.911 L 376.417,258.791 L 378.566,256.632 L 380.684,254.439 L 382.776,252.217 L 384.848,249.971 L 386.903,247.707 L 388.947,245.429 L 390.983,243.144 L 393.017,240.856 L 395.053,238.571 L 397.097,236.293 L 399.152,234.029 L 401.224,231.783 L 403.316,229.561 L 405.434,227.368 L 407.583,225.209 L 409.767,223.089 L 411.990,221.014 L 414.258,218.989 L 416.575,217.019 L 418.945,215.110 L 421.374,213.267 L 423.867,211.494 L 426.426,209.798 L 429.059,208.183 L 431.768,206.655 L 434.560,205.219 L 437.438,203.880 L 440.407,202.644 L 443.471,201.515 L 446.637,200.500 L 449.907,199.603 L 453.287,198.830 L 456.782,198.185 L 460.396,197.674 L 464.134,197.303 L 468.000,197.077 L 472.000,197.000" />
<path class="edge" stroke="#3b82f6" d="M 472.000,197.000 L 476.000,196.962 L 479.866,196.848 L 483.604,196.663 L 487.218,196.408 L 490.713,196.085 L 494.093,195.699 L 497.363,195.250 L 500.529,194.742 L 503.593,194.178 L 506.562,193.560 L 509.440,192.891 L 512.232,192.173 L 514.941,191.409 L 517.574,190.601 L 520.133,189.753 L 522.626,188.867 L 525.055,187.945 L 527.425,186.990 L 529.742,186.005 L 532.010,184.993 L 534.233,183.955 L 536.417,182.896 L 538.566,181.816 L 540.684,180.719 L 542.776,179.608 L 544.848,178.485 L 546.903,177.353 L 548.947,176.215 L 550.983,175.072 L 553.017,173.928 L 555.053,172.785 L 557.097,171.647 L 559.152,170.515 L 561.224,169.392 L 563.316,168.281 L 565.434,167.184 L 567.583,166.104 L 569.767,165.045 L 571.990,164.007 L 574.258,162.995 L 576.575,162.010 L 578.945,161.055 L 581.374,160.133 L 583.867,159.247 L 586.426,158.399 L 589.059,157.591 L 591.768,156.827 L 594.560,156.109 L 597.438,155.440 L 600.407,154.822 L 603.471,154.258 L 606.637,153.750 L 609.907,153.301 L 613.287,152.915 L 616.782,152.592 L 620.396,152.337 L 624.134,152.152 L 628.000,152.038 L 632.000,152.000" />
<path class="edge" stroke="#3b82f6" d="M 472.000,197.000 L 476.000,197.038 L 479.866,197.152 L 483.604,197.337 L 487.218,197.592 L 490.713,197.915 L 494.093,198.301 L 497.363,198.750 L 500.529,199.258 L 503.593,199.822 L 506.562,200.440 L 509.440,201.109 L 512.232,201.827 L 514.941,202.591 L 517.574,203.399 L 520.133,204.247 L 522.626,205.133 L 525.055,206.055 L 527.425,207.010 L 529.742,207.995 L 532.010,209.007 L 534.233,210.045 L 536.417,211.104 L 538.566,212.184 L 540.684,213.281 L 542.776,214.392 L 544.848,215.515 L 546.903,216.647 L 548.947,217.785 L 550.983,218.928 L 553.017,220.072 L 555.053,221.215 L 557.097,222.353 L 559.152,223.485 L 561.224,224.608 L 563.316,225.719 L 565.434,226.816 L 567.583,227.896 L 569.767,228.955 L 571.990,229.993 L 574.258,231.005 L 576.575,231.990 L 578.945,232.945 L 581.374,233.867 L 583.867,234.753 L 586.426,235.601 L 589.059,236.409 L 591.768,237.173 L 594.560,237.891 L 597.438,238.560 L 600.407,239.178 L 603.471,239.742 L 606.637,240.250 L 609.907,240.699 L 613.287,241.085 L 616.782,241.408 L 620.396,241.663 L 624.134,241.848 L 628.000,241.962 L 632.000,242.000" />
<path class="edge" stroke="#3b82f6" d="M 312.000,287.000 L 316.000,287.077 L 319.866,287.303 L 323.604,287.674 L 327.218,288.185 L 330.713,288.830 L 334.093,289.603 L 337.363,290.500 L 340.529,291.515 L 343.593,292.644 L 346.562,293.880 L 349.440,295.219 L 352.232,296.655 L 354.941,298.183 L 357.574,299.798 L 360.133,301.494 L 362.626,303.267 L 365.055,305.110 L 367.425,307.019 L 369.742,308.989 L 372.010,311.014 L 374.233,313.089 L 376.417,315.209 L 378.566,317.368 L 380.684,319.561 L 382.776,321.783 L 384.848,324.029 L 386.903,326.293 L 388.947,328.571 L 390.983,330.856 L 393.017,333.144 L 395.053,335.429 L 397.097,337.707 L 399.152,339.971 L 401.224,342.217 L 403.316,344.439 L 405.434,346.632 L 407.583,348.791 L 409.767,350.911 L 411.990,352.986 L 414.258,355.011 L 416.575,356.981 L 418.945,358.890 L 421.374,360.733 L 423.867,362.506 L 426.426,364.202 L 429.059,365.817 L 431.768,367.345 L 434.560,368.781 L 437.438,370.120 L 440.407,371.356 L 443.471,372.485 L 446.637,373.500 L 449.907,374.397 L 453.287,375.170 L 456.782,375.815 L 460.396,376.326 L 464.134,376.697 L 468.000,376.923 L 472.000,377.000" />
<path class="edge" stroke="#3b82f6" d="M 472.000,377.000 L 476.000,376.962 L 479.866,376.848 L 483.604,376.663 L 487.218,376.408 L 490.713,376.085 L 494.093,375.699 L 497.363,375.250 L 500.529,374.742 L 503.593,374.178 L 506.562,373.560 L 509.440,372.891 L 512.232,372.173 L 514.941,371.409 L 517.574,370.601 L 520.133,369.753 L 522.626,368.867 L 525.055,367.945 L 527.425,366.990 L 529.742,366.005 L 532.010,364.993 L 534.233,363.955 L 536.417,362.896 L 538.566,361.816 L 540.684,360.719 L 542.776,359.608 L 544.848,358.485 L 546.903,357.353 L 548.947,356.215 L 550.983,355.072 L 553.017,353.928 L 555.053,352.785 L 557.097,351.647 L 559.152,350.515 L 561.224,349.392 L 563.316,348.281 L 565.434,347.184 L 567.583,346.104 L 569.767,345.045 L 571.990,344.007 L 574.258,342.995 L 576.575,342.010 L 578.945,341.055 L 581.374,340.133 L 583.867,339.247 L 586.426,338.399 L 589.059,337.591 L 591.768,336.827 L 594.560,336.109 L 597.438,335.440 L 600.407,334.822 L 603.471,334.258 L 606.637,333.750 L 609.907,333.301 L 613.287,332.915 L 616.782,332.592 L 620.396,332.337 L 624.134,332.152 L 628.000,332.038 L 632.000,332.000" />
<path class="edge" stroke="#3b82f6" d="M 472.000,377.000 L 476.000,377.038 L 479.866,377.152 L 483.604,377.337 L 487.218,377.592 L 490.713,377.915 L 494.093,378.301 L 497.363,378.750 L 500.529,379.258 L 503.593,379.822 L 506.562,380.440 L 509.440,381.109 L 512.232,381.827 L 514.941,382.591 L 517.574,383.399 L 520.133,384.247 L 522.626,385.133 L 525.055,386.055 L 527.425,387.010 L 529.742,387.995 L 532.010,389.007 L 534.233,390.045 L 536.417,391.104 L 538.566,392.184 L 540.684,393.281 L 542.776,394.392 L 544.848,395.515 L 546.903,396.647 L 548.947,397.785 L 550.983,398.928 L 553.017,400.072 L 555.053,401.215 L 557.097,402.353 L 559.152,403.485 L 561.224,404.608 L 563.316,405.719 L 565.434,406.816 L 567.583,407.896 L 569.767,408.955 L 571.990,409.993 L 574.258,411.005 L 576.575,411.990 L 578.945,412.945 L 581.374,413.867 L 583.867,414.753 L 586.426,415.601 L 589.059,416.409 L 591.768,417.173 L 594.560,417.891 L 597.438,418.560 L 600.407,419.178 L 603.471,419.742 L 606.637,420.250 L 609.907,420.699 L 613.287,421.085 L 616.782,421.408 L 620.396,421.663 L 624.134,421.848 L 628.000,421.962 L 632.000,422.000" />
<path class="edge" stroke="#3b82f6" d="M 152.000,422.000 L 156.000,422.115 L 159.866,422.455 L 163.604,423.012 L 167.218,423.777 L 170.713,424.744 L 174.093,425.904 L 177.363,427.250 L 180.529,428.773 L 183.593,430.466 L 186.562,432.320 L 189.440,434.328 L 192.232,436.482 L 194.941,438.774 L 197.574,441.196 L 200.133,443.741 L 202.626,446.400 L 205.055,449.165 L 207.425,452.029 L 209.742,454.984 L 212.010,458.021 L 214.233,461.134 L 216.417,464.313 L 218.566,467.552 L 220.684,470.842 L 222.776,474.175 L 224.848,477.544 L 226.903,480.940 L 228.947,484.356 L 230.983,487.784 L 233.017,491.216 L 235.053,494.644 L 237.097,498.060 L 239.152,501.456 L 241.224,504.825 L 243.316,508.158 L 245.434,511.448 L 247.583,514.687 L 249.767,517.866 L 251.990,520.979 L 254.258,524.016 L 256.575,526.971 L 258.945,529.835 L 261.374,532.600 L 263.867,535.259 L 266.426,537.804 L 269.059,540.226 L 271.768,542.518 L 274.560,544.672 L 277.438,546.680 L 280.407,548.534 L 283.471,550.227 L 286.637,551.750 L 289.907,553.096 L 293.287,554.256 L 296.782,555.223 L 300.396,555.988 L 304.134,556.545 L 308.000,556.885 L 312.000,557.000" />
<path class="edge" stroke="#3b82f6" d="M 312.000,557.000 L 316.000,556.962 L 319.866,556.848 L 323.604,556.663 L 327.218,556.408 L 330.713,556.085 L 334.093,555.699 L 337.363,555.250 L 340.529,554.742 L 343.593,554.178 L 346.562,553.560 L 349.440,552.891 L 352.232,552.173 L 354.941,551.409 L 357.574,550.601 L 360.133,549.753 L 362.626,548.867 L 365.055,547.945 L 367.425,546.990 L 369.742,546.005 L 372.010,544.993 L 374.233,543.955 L 376.417,542.896 L 378.566,541.816 L 380.684,540.719 L 382.776,539.608 L 384.848,538.485 L 386.903,537.353 L 388.947,536.215 L 390.983,535.072 L 393.017,533.928 L 395.053,532.785 L 397.097,531.647 L 399.152,530.515 L 401.224,529.392 L 403.316,528.281 L 405.434,527.184 L 407.583,526.104 L 409.767,525.045 L 411.990,524.007 L 414.258,522.995 L 416.575,522.010 L 418.945,521.055 L 421.374,520.133 L 423.867,519.247 L 426.426,518.399 L 429.059,517.591 L 431.768,516.827 L 434.560,516.109 L 437.438,515.440 L 440.407,514.822 L 443.471,514.258 L 446.637,513.750 L 449.907,513.301 L 453.287,512.915 L 456.782,512.592 L 460.396,512.337 L 464.134,512.152 L 468.000,512.038 L 472.000,512.000" />
<path class="edge" stroke="#3b82f6" d="M 312.000,557.000 L 316.000,557.038 L 319.866,557.152 L 323.604,557.337 L 327.218,557.592 L 330.713,557.915 L 334.093,558.301 L 337.363,558.750 L 340.529,559.258 L 343.593,559.822 L 346.562,560.440 L 349.440,561.109 L 352.232,561.827 L 354.941,562.591 L 357.574,563.399 L 360.133,564.247 L 362.626,565.133 L 365.055,566.055 L 367.425,567.010 L 369.742,567.995 L 372.010,569.007 L 374.233,570.045 L 376.417,571.104 L 378.566,572.184 L 380.684,573.281 L 382.776,574.392 L 384.848,575.515 L 386.903,576.647 L 388.947,577.785 L 390.983,578.928 L 393.017,580.072 L 395.053,581.215 L 397.097,582.353 L 399.152,583.485 L 401.224,584.608 L 403.316,585.719 L 405.434,586.816 L 407.583,587.896 L 409.767,588.955 L 411.990,589.993 L 414.258,591.005 L 416.575,591.990 L 418.945,592.945 L 421.374,593.867 L 423.867,594.753 L 426.426,595.601 L 429.059,596.409 L 431.768,597.173 L 434.560,597.891 L 437.438,598.560 L 440.407,599.178 L 443.471,599.742 L 446.637,600.250 L 449.907,600.699 L 453.287,601.085 L 456.782,601.408 L 460.396,601.663 L 464.134,601.848 L 468.000,601.962 L 472.000,602.000" />
<circle class="node" fill="#2563eb" cx="152.000" cy="422.000" r="6.000" />
<text class="label" x="176.000" y="422.000" font-size="12.000" fill="#1d4ed8" dominant-baseline="middle">Life</text>
<circle class="node" fill="#2563eb" cx="312.000" cy="287.000" r="6.000" />
<text class="label" x="336.000" y="287.000" font-size="12.000" fill="#1d4ed8" dominant-baseline="middle">Animals</text>
<circle class="node" fill="#2563eb" cx="472.000" cy="197.000" r="6.000" />
<text class="label" x="496.000" y="197.000" font-size="12.000" fill="#1d4ed8" dominant-baseline="middle">Mammals</text>
<circle class="node" fill="#2563eb" cx="632.000" cy="152.000" r="6.000" />
<text class="label" x="656.000" y="152.000" font-size="12.000" fill="#1d4ed8" dominant-baseline="middle">Fox</text>
<circle class="node" fill="#2563eb" cx="632.000" cy="242.000" r="6.000" />
<text class="label" x="656.000" y="242.000" font-size="12.000" fill="#1d4ed8" dominant-baseline="middle">Whale</text>
<circle class="node" fill="#2563eb" cx="472.000" cy="377.000" r="6.000" />
<text class="label" x="496.000" y="377.000" font-size="12.000" fill="#1d4ed8" dominant-baseline="middle">Birds</text>
<circle class="node" fill="#2563eb" cx="632.000" cy="332.000" r="6.000" />
<text class="label" x="656.000" y="332.000" font-size="12.000" fill="#1d4ed8" dominant-baseline="middle">Eagle</text>
<circle class="node" fill="#2563eb" cx="632.000" cy="422.000" r="6.000" />
<text class="label" x="656.000" y="422.000" font-size="12.000" fill="#1d4ed8" dominant-baseline="middle">Sparrow</text>
<circle class="node" fill="#2563eb" cx="312.000" cy="557.000" r="6.000" />
<text class="label" x="336.000" y="557.000" font-size="12.000" fill="#1d4ed8" dominant-baseline="middle">Plants</text>
<circle class="node" fill="#2563eb" cx="472.000" cy="512.000" r="6.000" />
<text class="label" x="496.000" y="512.000" font-size="12.000" fill="#1d4ed8" dominant-baseline="middle">Oak</text>
<circle class="node" fill="#2563eb" cx="472.000" cy="602.000" r="6.000" />
<text class="label" x="496.000" y="602.000" font-size="12.000" fill="#1d4ed8" dominant-baseline="middle">Rose</text>
</svg>
