<svg xmlns="http://www.w3.org/2000/svg" viewBox="0 0 804.000 774.000" width="804.000" height="774.000" role="img">
<title>Dendrogram</title>
<style>
.edge { fill: none; stroke-width: 2.000; stroke-linecap: round; }
.node { }
.label { font-family: Helvetica, Arial, sans-serif; }
</style>
<path class="edge" stroke="#3b82f6" d="M 162.000,432.000 L 166.000,431.885 L 169.866,431.545 L 173.604,430.988 L 177.218,430.223 L 180.713,429.256 L 184.093,428.096 L 187.363,426.750 L 190.529,425.227 L 193.593,423.534 L 196.562,421.680 L 199.440,419.672 L 202.232,417.518 L 204.941,415.226 L 207.574,412.804 L 210.133,410.259 L 212.626,407.600 L 215.055,404.835 L 217.425,401.971 L 219.742,399.016 L 222.010,395.979 L 224.233,392.866 L 226.417,389.687 L 228.566,386.448 L 230.684,383.158 L 232.776,379.825 L 234.848,376.456 L 236.903,373.060 L 238.947,369.644 L 240.983,366.216 L 243.017,362.784 L 245.053,359.356 L 247.097,355.940 L 249.152,352.544 L 251.224,349.175 L 253.316,345.842 L 255.434,342.552 L 257.583,339.313 L 259.767,336.134 L 261.990,333.021 L 264.258,329.984 L 266.575,327.029 L 268.945,324.165 L 271.374,321.400 L 273.867,318.741 L 276.426,316.196 L 279.059,313.774 L 281.768,311.482 L 284.560,309.328 L 287.438,307.320 L 290.407,305.466 L 293.471,303.773 L 296.637,302.250 L 299.907,300.904 L 303.287,299.744 L 306.782,298.777 L 310.396,298.012 L 314.134,297.455 L 318.000,297.115 L 322.000,297.000" />
<path class="edge" stroke="#3b82f6" d="M 322.000,297.000 L 326.000,296.923 L 329.866,296.697 L 333.604,296.326 L 337.218,295.815 L 340.713,295.170 L 344.093,294.397 L 347.363,293.500 L 350.529,292.485 L 353.593,291.356 L 356.562,290.120 L 359.440,288.781 L 362.232,287.345 L 364.941,285.817 L 367.574,284.202 L 370.133,282.506 L 372.626,280.733 L 375.055,278.890 L 377.425,276.981 L 379.742,275.011 L 382.010,272.986 L 384.233,270.911 L 386.417,268.791 L 388.566,266.632 L 390.684,264.439 L 392.776,262.217 L 394.848,259.971 L 396.903,257.707 L 398.947,255.429 L 400.983,253.144 L 403.017,250.856 L 405.053,248.571 L 407.097,246.293 L 409.152,244.029 L 411.224,241.783 L 413.316,239.561 L 415.434,237.368 L 417.583,235.209 L 419.767,233.089 L 421.990,231.014 L 424.258,228.989 L 426.575,227.019 L 428.945,225.110 L 431.374,223.267 L 433.867,221.494 L 436.426,219.798 L 439.059,218.183 L 441.768,216.655 L 444.560,215.219 L 447.438,213.880 L 450.407,212.644 L 453.471,211.515 L 456.637,210.500 L 459.907,209.603 L 463.287,208.830 L 466.782,208.185 L 470.396,207.674 L 474.134,207.303 L 478.000,207.077 L 482.000,207.000" />
<path class="edge" stroke="#3b82f6" d="M 482.000,207.000 L 486.000,206.962 L 489.866,206.848 L 493.604,206.663 L 497.218,206.408 L 500.713,206.085 L 504.093,205.699 L 507.363,205.250 L 510.529,204.742 L 513.593,204.178 L 516.562,203.560 L 519.440,202.891 L 522.232,202.173 L 524.941,201.409 L 527.574,200.601 L 530.133,199.753 L 532.626,198.867 L 535.055,197.945 L 537.425,196.990 L 539.742,196.005 L 542.010,194.993 L 544.233,193.955 L 546.417,192.896 L 548.566,191.816 L 550.684,190.719 L 552.776,189.608 L 554.848,188.485 L 556.903,187.353 L 558.947,186.215 L 560.983,185.072 L 563.017,183.928 L 565.053,182.785 L 567.097,181.647 L 569.152,180.515 L 571.224,179.392 L 573.316,178.281 L 575.434,177.184 L 577.583,176.104 L 579.767,175.045 L 581.990,174.007 L 584.258,172.995 L 586.575,172.010 L 588.945,171.055 L 591.374,170.133 L 593.867,169.247 L 596.426,168.399 L 599.059,167.591 L 601.768,166.827 L 604.560,166.109 L 607.438,165.440 L 610.407,164.822 L 613.471,164.258 L 616.637,163.750 L 619.907,163.301 L 623.287,162.915 L 626.782,162.592 L 630.396,162.337 L 634.134,162.152 L 638.000,162.038 L 642.000,162.000" />
<path class="edge" stroke="#3b82f6" d="M 482.000,207.000 L 486.000,207.038 L 489.866,207.152 L 493.604,207.337 L 497.218,207.592 L 500.713,207.915 L 504.093,208.301 L 507.363,208.750 L 510.529,209.258 L 513.593,209.822 L 516.562,210.440 L 519.440,211.109 L 522.232,211.827 L 524.941,212.591 L 527.574,213.399 L 530.133,214.247 L 532.626,215.133 L 535.055,216.055 L 537.425,217.010 L 539.742,217.995 L 542.010,219.007 L 544.233,220.045 L 546.417,221.104 L 548.566,222.184 L 550.684,223.281 L 552.776,224.392 L 554.848,225.515 L 556.903,226.647 L 558.947,227.785 L 560.983,228.928 L 563.017,230.072 L 565.053,231.215 L 567.097,232.353 L 569.152,233.485 L 571.224,234.608 L 573.316,235.719 L 575.434,236.816 L 577.583,237.896 L 579.767,238.955 L 581.990,239.993 L 584.258,241.005 L 586.575,241.990 L 588.945,242.945 L 591.374,243.867 L 593.867,244.753 L 596.426,245.601 L 599.059,246.409 L 601.768,247.173 L 604.560,247.891 L 607.438,248.560 L 610.407,249.178 L 613.471,249.742 L 616.637,250.250 L 619.907,250.699 L 623.287,251.085 L 626.782,251.408 L 630.396,251.663 L 634.134,251.848 L 638.000,251.962 L 642.000,252.000" />
<path class="edge" stroke="#3b82f6" d="M 322.000,297.000 L 326.000,297.077 L 329.866,297.303 L 333.604,297.674 L 337.218,298.185 L 340.713,298.830 L 344.093,299.603 L 347.363,300.500 L 350.529,301.515 L 353.593,302.644 L 356.562,303.880 L 359.440,305.219 L 362.232,306.655 L 364.941,308.183 L 367.574,309.798 L 370.133,311.494 L 372.626,313.267 L 375.055,315.110 L 377.425,317.019 L 379.742,318.989 L 382.010,321.014 L 384.233,323.089 L 386.417,325.209 L 388.566,327.368 L 390.684,329.561 L 392.776,331.783 L 394.848,334.029 L 396.903,336.293 L 398.947,338.571 L 400.983,340.856 L 403.017,343.144 L 405.053,345.429 L 407.097,347.707 L 409.152,349.971 L 411.224,352.217 L 413.316,354.439 L 415.434,356.632 L 417.583,358.791 L 419.767,360.911 L 421.990,362.986 L 424.258,365.011 L 426.575,366.981 L 428.945,368.890 L 431.374,370.733 L 433.867,372.506 L 436.426,374.202 L 439.059,375.817 L 441.768,377.345 L 444.560,378.781 L 447.438,380.120 L 450.407,381.356 L 453.471,382.485 L 456.637,383.500 L 459.907,384.397 L 463.287,385.170 L 466.782,385.815 L 470.396,386.326 L 474.134,386.697 L 478.000,386.923 L 482.000,387.000" />
<path class="edge" stroke="#3b82f6" d="M 482.000,387.000 L 486.000,386.962 L 489.866,386.848 L 493.604,386.663 L 497.218,386.408 L 500.713,386.085 L 504.093,385.699 L 507.363,385.250 L 510.529,384.742 L 513.593,384.178 L 516.562,383.560 L 519.440,382.891 L 522.232,382.173 L 524.941,381.409 L 527.574,380.601 L 530.133,379.753 L 532.626,378.867 L 535.055,377.945 L 537.425,376.990 L 539.742,376.005 L 542.010,374.993 L 544.233,373.955 L 546.417,372.896 L 548.566,371.816 L 550.684,370.719 L 552.776,369.608 L 554.848,368.485 L 556.903,367.353 L 558.947,366.215 L 560.983,365.072 L 563.017,363.928 L 565.053,362.785 L 567.097,361.647 L 569.152,360.515 L 571.224,359.392 L 573.316,358.281 L 575.434,357.184 L 577.583,356.104 L 579.767,355.045 L 581.990,354.007 L 584.258,352.995 L 586.575,352.010 L 588.945,351.055 L 591.374,350.133 L 593.867,349.247 L 596.426,348.399 L 599.059,347.591 L 601.768,346.827 L 604.560,346.109 L 607.438,345.440 L 610.407,344.822 L 613.471,344.258 L 616.637,343.750 L 619.907,343.301 L 623.287,342.915 L 626.782,342.592 L 630.396,342.337 L 634.134,342.152 L 638.000,342.038 L 642.000,342.000" />
<path class="edge" stroke="#3b82f6" d="M 482.000,387.000 L 486.000,387.038 L 489.866,387.152 L 493.604,387.337 L 497.218,387.592 L 500.713,387.915 L 504.093,388.301 L 507.363,388.750 L 510.529,389.258 L 513.593,389.822 L 516.562,390.440 L 519.440,391.109 L 522.232,391.827 L 524.941,392.591 L 527.574,393.399 L 530.133,394.247 L 532.626,395.133 L 535.055,396.055 L 537.425,397.010 L 539.742,397.995 L 542.010,399.007 L 544.233,400.045 L 546.417,401.104 L 548.566,402.184 L 550.684,403.281 L 552.776,404.392 L 554.848,405.515 L 556.903,406.647 L 558.947,407.785 L 560.983,408.928 L 563.017,410.072 L 565.053,411.215 L 567.097,412.353 L 569.152,413.485 L 571.224,414.608 L 573.316,415.719 L 575.434,416.816 L 577.583,417.896 L 579.767,418.955 L 581.990,419.993 L 584.258,421.005 L 586.575,421.990 L 588.945,422.945 L 591.374,423.867 L 593.867,424.753 L 596.426,425.601 L 599.059,426.409 L 601.768,427.173 L 604.560,427.891 L 607.438,428.560 L 610.407,429.178 L 613.471,429.742 L 616.637,430.250 L 619.907,430.699 L 623.287,431.085 L 626.782,431.408 L 630.396,431.663 L 634.134,431.848 L 638.000,431.962 L 642.000,432.000" />
<path class="edge" stroke="#3b82f6" d="M 162.000,432.000 L 166.000,432.115 L 169.866,432.455 L 173.604,433.012 L 177.218,433.777 L 180.713,434.744 L 184.093,435.904 L 187.363,437.250 L 190.529,438.773 L 193.593,440.466 L 196.562,442.320 L 199.440,444.328 L 202.232,446.482 L 204.941,448.774 L 207.574,451.196 L 210.133,453.741 L 212.626,456.400 L 215.055,459.165 L 217.425,462.029 L 219.742,464.984 L 222.010,468.021 L 224.233,471.134 L 226.417,474.313 L 228.566,477.552 L 230.684,480.842 L 232.776,484.175 L 234.848,487.544 L 236.903,490.940 L 238.947,494.356 L 240.983,497.784 L 243.017,501.216 L 245.053,504.644 L 247.097,508.060 L 249.152,511.456 L 251.224,514.825 L 253.316,518.158 L 255.434,521.448 L 257.583,524.687 L 259.767,527.866 L 261.990,530.979 L 264.258,534.016 L 266.575,536.971 L 268.945,539.835 L 271.374,542.600 L 273.867,545.259 L 276.426,547.804 L 279.059,550.226 L 281.768,552.518 L 284.560,554.672 L 287.438,556.680 L 290.407,558.534 L 293.471,560.227 L 296.637,561.750 L 299.907,563.096 L 303.287,564.256 L 306.782,565.223 L 310.396,565.988 L 314.134,566.545 L 318.000,566.885 L 322.000,567.000" />
<path class="edge" stroke="#3b82f6" d="M 322.000,567.000 L 326.000,566.962 L 329.866,566.848 L 333.604,566.663 L 337.218,566.408 L 340.713,566.085 L 344.093,565.699 L 347.363,565.250 L 350.529,564.742 L 353.593,564.178 L 356.562,563.560 L 359.440,562.891 L 362.232,562.173 L 364.941,561.409 L 367.574,560.601 L 370.133,559.753 L 372.626,558.867 L 375.055,557.945 L 377.425,556.990 L 379.742,556.005 L 382.010,554.993 L 384.233,553.955 L 386.417,552.896 L 388.566,551.816 L 390.684,550.719 L 392.776,549.608 L 394.848,548.485 L 396.903,547.353 L 398.947,546.215 L 400.983,545.072 L 403.017,543.928 L 405.053,542.785 L 407.097,541.647 L 409.152,540.515 L 411.224,539.392 L 413.316,538.281 L 415.434,537.184 L 417.583,536.104 L 419.767,535.045 L 421.990,534.007 L 424.258,532.995 L 426.575,532.010 L 428.945,531.055 L 431.374,530.133 L 433.867,529.247 L 436.426,528.399 L 439.059,527.591 L 441.768,526.827 L 444.560,526.109 L 447.438,525.440 L 450.407,524.822 L 453.471,524.258 L 456.637,523.750 L 459.907,523.301 L 463.287,522.915 L 466.782,522.592 L 470.396,522.337 L 474.134,522.152 L 478.000,522.038 L 482.000,522.000" />
<path class="edge" stroke="#3b82f6" d="M 322.000,567.000 L 326.000,567.038 L 329.866,567.152 L 333.604,567.337 L 337.218,567.592 L 340.713,567.915 L 344.093,568.301 L 347.363,568.750 L 350.529,569.258 L 353.593,569.822 L 356.562,570.440 L 359.440,571.109 L 362.232,571.827 L 364.941,572.591 L 367.574,573.399 L 370.133,574.247 L 372.626,575.133 L 375.055,576.055 L 377.425,577.010 L 379.742,577.995 L 382.010,579.007 L 384.233,580.045 L 386.417,581.104 L 388.566,582.184 L 390.684,583.281 L 392.776,584.392 L 394.848,585.515 L 396.903,586.647 L 398.947,587.785 L 400.983,588.928 L 403.017,590.072 L 405.053,591.215 L 407.097,592.353 L 409.152,593.485 L 411.224,594.608 L 413.316,595.719 L 415.434,596.816 L 417.583,597.896 L 419.767,598.955 L 421.990,599.993 L 424.258,601.005 L 426.575,601.990 L 428.945,602.945 L 431.374,603.867 L 433.867,604.753 L 436.426,605.601 L 439.059,606.409 L 441.768,607.173 L 444.560,607.891 L 447.438,608.560 L 450.407,609.178 L 453.471,609.742 L 456.637,610.250 L 459.907,610.699 L 463.287,611.085 L 466.782,611.408 L 470.396,611.663 L 474.134,611.848 L 478.000,611.962 L 482.000,612.000" />
<circle class="node" fill="#2563eb" cx="162.000" cy="432.000" r="6.000" />
<text class="label" x="162.000" y="398.000" font-size="12.000" fill="#1d4ed8" text-anchor="middle" dominant-baseline="middle">Life</text>
<circle class="node" fill="#2563eb" cx="322.000" cy="297.000" r="6.000" />
<text class="label" x="322.000" y="263.000" font-size="12.000" fill="#1d4ed8" text-anchor="middle" dominant-baseline="middle">Animals</text>
<circle class="node" fill="#2563eb" cx="482.000" cy="207.000" r="6.000" />
<text class="label" x="482.000" y="173.000" font-size="12.000" fill="#1d4ed8" text-anchor="middle" dominant-baseline="middle">Mammals</text>
<circle class="node" fill="#2563eb" cx="642.000" cy="162.000" r="6.000" />
<text class="label" x="676.000" y="162.000" font-size="12.000" fill="#1d4ed8" text-anchor="start" dominant-baseline="middle">Fox</text>
<circle class="node" fill="#2563eb" cx="642.000" cy="252.000" r="6.000" />
<text class="label" x="676.000" y="252.000" font-size="12.000" fill="#1d4ed8" text-anchor="start" dominant-baseline="middle">Whale</text>
<circle class="node" fill="#2563eb" cx="482.000" cy="387.000" r="6.000" />
<text class="label" x="482.000" y="353.000" font-size="12.000" fill="#1d4ed8" text-anchor="middle" dominant-baseline="middle">Birds</text>
<circle class="node" fill="#2563eb" cx="642.000" cy="342.000" r="6.000" />
<text class="label" x="676.000" y="342.000" font-size="12.000" fill="#1d4ed8" text-anchor="start" dominant-baseline="middle">Eagle</text>
<circle class="node" fill="#2563eb" cx="642.000" cy="432.000" r="6.000" />
<text class="label" x="676.000" y="432.000" font-size="12.000" fill="#1d4ed8" text-anchor="start" dominant-baseline="middle">Sparrow</text>
<circle class="node" fill="#2563eb" cx="322.000" cy="567.000" r="6.000" />
<text class="label" x="322.000" y="533.000" font-size="12.000" fill="#1d4ed8" text-anchor="middle" dominant-baseline="middle">Plants</text>
<circle class="node" fill="#2563eb" cx="482.000" cy="522.000" r="6.000" />
<text class="label" x="516.000" y="522.000" font-size="12.000" fill="#1d4ed8" text-anchor="start" dominant-baseline="middle">Oak</text>
<circle class="node" fill="#2563eb" cx="482.000" cy="612.000" r="6.000" />
<text class="label" x="516.000" y="612.000" font-size="12.000" fill="#1d4ed8" text-anchor="start" dominant-baseline="middle">Rose</text>
</svg>
